solid OpenSCAD_Model
  facet normal 1 -0 0
    outer loop
      vertex 80 0 4
      vertex 80 30 0
      vertex 80 30 4
    endloop
  endfacet
  facet normal 1 0 0
    outer loop
      vertex 80 30 0
      vertex 80 0 4
      vertex 80 0 0
    endloop
  endfacet
  facet normal 0 0 1
    outer loop
      vertex 9.88968 18.6104 4
      vertex 6.1872 18.6104 4
      vertex 9.88968 9 4
    endloop
  endfacet
  facet normal 0 0 1
    outer loop
      vertex 80 30 4
      vertex 51.2791 14.7858 4
      vertex 80 0 4
    endloop
  endfacet
  facet normal 0 0 1
    outer loop
      vertex 80 30 4
      vertex 51.1832 16.0761 4
      vertex 51.2791 14.7858 4
    endloop
  endfacet
  facet normal 0 0 1
    outer loop
      vertex 80 30 4
      vertex 50.8956 17.2209 4
      vertex 51.1832 16.0761 4
    endloop
  endfacet
  facet normal 0 0 1
    outer loop
      vertex 80 30 4
      vertex 50.4163 18.2203 4
      vertex 50.8956 17.2209 4
    endloop
  endfacet
  facet normal 0 0 1
    outer loop
      vertex 80 30 4
      vertex 49.7452 19.0742 4
      vertex 50.4163 18.2203 4
    endloop
  endfacet
  facet normal 0 0 1
    outer loop
      vertex 80 30 4
      vertex 48.9037 19.7578 4
      vertex 49.7452 19.0742 4
    endloop
  endfacet
  facet normal 0 0 1
    outer loop
      vertex 80 30 4
      vertex 47.9133 20.246 4
      vertex 48.9037 19.7578 4
    endloop
  endfacet
  facet normal 0 0 1
    outer loop
      vertex 80 30 4
      vertex 46.7738 20.539 4
      vertex 47.9133 20.246 4
    endloop
  endfacet
  facet normal 0 0 1
    outer loop
      vertex 80 30 4
      vertex 45.4853 20.6366 4
      vertex 46.7738 20.539 4
    endloop
  endfacet
  facet normal -0 0 1
    outer loop
      vertex 0 30 4
      vertex 45.4853 20.6366 4
      vertex 80 30 4
    endloop
  endfacet
  facet normal 0 0 1
    outer loop
      vertex 45.4853 20.6366 4
      vertex 0 30 4
      vertex 44.197 20.54 4
    endloop
  endfacet
  facet normal -0 0 1
    outer loop
      vertex 37.9329 15.926 4
      vertex 39.6995 14.7858 4
      vertex 39.7951 16.0893 4
    endloop
  endfacet
  facet normal -0 0 1
    outer loop
      vertex 38.0611 16.4664 4
      vertex 39.7951 16.0893 4
      vertex 38.1038 17.048 4
    endloop
  endfacet
  facet normal 0 0 1
    outer loop
      vertex 40.0819 17.2412 4
      vertex 38.1038 17.048 4
      vertex 39.7951 16.0893 4
    endloop
  endfacet
  facet normal -0 0 1
    outer loop
      vertex 38.0342 17.8259 4
      vertex 40.0819 17.2412 4
      vertex 40.56 18.2416 4
    endloop
  endfacet
  facet normal 0 0 1
    outer loop
      vertex 37.4767 19.0933 4
      vertex 40.56 18.2416 4
      vertex 41.2294 19.0904 4
    endloop
  endfacet
  facet normal -0 0 1
    outer loop
      vertex 36.9889 19.5828 4
      vertex 41.2294 19.0904 4
      vertex 42.0691 19.7669 4
    endloop
  endfacet
  facet normal 0 0 1
    outer loop
      vertex 40.0819 17.2412 4
      vertex 38.0342 17.8259 4
      vertex 38.1038 17.048 4
    endloop
  endfacet
  facet normal -0 0 1
    outer loop
      vertex 36.373 19.9691 4
      vertex 42.0691 19.7669 4
      vertex 43.0583 20.2501 4
    endloop
  endfacet
  facet normal 0 0 1
    outer loop
      vertex 40.56 18.2416 4
      vertex 37.8251 18.5077 4
      vertex 38.0342 17.8259 4
    endloop
  endfacet
  facet normal 0 0 1
    outer loop
      vertex 40.56 18.2416 4
      vertex 37.4767 19.0933 4
      vertex 37.8251 18.5077 4
    endloop
  endfacet
  facet normal 0 -0 1
    outer loop
      vertex 35.6401 20.245 4
      vertex 44.197 20.54 4
      vertex 34.7903 20.4106 4
    endloop
  endfacet
  facet normal 0 0 1
    outer loop
      vertex 41.2294 19.0904 4
      vertex 36.9889 19.5828 4
      vertex 37.4767 19.0933 4
    endloop
  endfacet
  facet normal 0 0 1
    outer loop
      vertex 42.0691 19.7669 4
      vertex 36.373 19.9691 4
      vertex 36.9889 19.5828 4
    endloop
  endfacet
  facet normal 0 0 1
    outer loop
      vertex 43.0583 20.2501 4
      vertex 35.6401 20.245 4
      vertex 36.373 19.9691 4
    endloop
  endfacet
  facet normal 0 0 1
    outer loop
      vertex 44.197 20.54 4
      vertex 35.6401 20.245 4
      vertex 43.0583 20.2501 4
    endloop
  endfacet
  facet normal 0 0 1
    outer loop
      vertex 44.197 20.54 4
      vertex 33.8234 20.4658 4
      vertex 34.7903 20.4106 4
    endloop
  endfacet
  facet normal 0 0 1
    outer loop
      vertex 44.197 20.54 4
      vertex 0 30 4
      vertex 33.8234 20.4658 4
    endloop
  endfacet
  facet normal 0 0 1
    outer loop
      vertex 28.0946 20.4658 4
      vertex 26.5397 9 4
      vertex 28.0946 9 4
    endloop
  endfacet
  facet normal 0 0 1
    outer loop
      vertex 28.0946 20.4658 4
      vertex 22.3733 20.4658 4
      vertex 26.5397 9 4
    endloop
  endfacet
  facet normal 0 0 1
    outer loop
      vertex 33.8234 20.4658 4
      vertex 0 30 4
      vertex 28.0946 20.4658 4
    endloop
  endfacet
  facet normal 0 0 1
    outer loop
      vertex 28.0946 20.4658 4
      vertex 0 30 4
      vertex 22.3733 20.4658 4
    endloop
  endfacet
  facet normal 0 0 1
    outer loop
      vertex 22.3733 20.4658 4
      vertex 0 30 4
      vertex 19.5414 20.4658 4
    endloop
  endfacet
  facet normal 0 0 1
    outer loop
      vertex 19.5414 20.4658 4
      vertex 0 30 4
      vertex 16.001 20.4658 4
    endloop
  endfacet
  facet normal 0 0 1
    outer loop
      vertex 6.1872 20.4658 4
      vertex 0 30 4
      vertex 6.1872 18.6104 4
    endloop
  endfacet
  facet normal 0 0 1
    outer loop
      vertex 16.001 20.4658 4
      vertex 0 30 4
      vertex 6.1872 20.4658 4
    endloop
  endfacet
  facet normal -0 0 1
    outer loop
      vertex 51.2349 13.9176 4
      vertex 80 0 4
      vertex 51.2791 14.7858 4
    endloop
  endfacet
  facet normal -0 0 1
    outer loop
      vertex 51.1021 13.1033 4
      vertex 80 0 4
      vertex 51.2349 13.9176 4
    endloop
  endfacet
  facet normal -0 0 1
    outer loop
      vertex 50.8809 12.343 4
      vertex 80 0 4
      vertex 51.1021 13.1033 4
    endloop
  endfacet
  facet normal -0 0 1
    outer loop
      vertex 50.5711 11.6365 4
      vertex 80 0 4
      vertex 50.8809 12.343 4
    endloop
  endfacet
  facet normal -0 0 1
    outer loop
      vertex 50.179 10.997 4
      vertex 80 0 4
      vertex 50.5711 11.6365 4
    endloop
  endfacet
  facet normal -0 0 1
    outer loop
      vertex 49.7106 10.4373 4
      vertex 80 0 4
      vertex 50.179 10.997 4
    endloop
  endfacet
  facet normal -0 0 1
    outer loop
      vertex 49.1659 9.95743 4
      vertex 80 0 4
      vertex 49.7106 10.4373 4
    endloop
  endfacet
  facet normal -0 0 1
    outer loop
      vertex 48.5449 9.5574 4
      vertex 80 0 4
      vertex 49.1659 9.95743 4
    endloop
  endfacet
  facet normal -0 0 1
    outer loop
      vertex 47.8583 9.24235 4
      vertex 80 0 4
      vertex 48.5449 9.5574 4
    endloop
  endfacet
  facet normal -0 0 1
    outer loop
      vertex 47.1168 9.01731 4
      vertex 80 0 4
      vertex 47.8583 9.24235 4
    endloop
  endfacet
  facet normal -0 0 1
    outer loop
      vertex 46.3204 8.88229 4
      vertex 80 0 4
      vertex 47.1168 9.01731 4
    endloop
  endfacet
  facet normal -0 0 1
    outer loop
      vertex 45.469 8.83728 4
      vertex 80 0 4
      vertex 46.3204 8.88229 4
    endloop
  endfacet
  facet normal 0 0 1
    outer loop
      vertex 38.6735 9 4
      vertex 45.469 8.83728 4
      vertex 44.1912 8.93671 4
    endloop
  endfacet
  facet normal 0 0 1
    outer loop
      vertex 38.6735 9 4
      vertex 39.7954 13.4759 4
      vertex 39.6995 14.7858 4
    endloop
  endfacet
  facet normal 0 0 1
    outer loop
      vertex 38.6735 9 4
      vertex 40.083 12.313 4
      vertex 39.7954 13.4759 4
    endloop
  endfacet
  facet normal 0 0 1
    outer loop
      vertex 38.6735 9 4
      vertex 40.5623 11.297 4
      vertex 40.083 12.313 4
    endloop
  endfacet
  facet normal 0 0 1
    outer loop
      vertex 38.6735 9 4
      vertex 41.2334 10.4281 4
      vertex 40.5623 11.297 4
    endloop
  endfacet
  facet normal 0 0 1
    outer loop
      vertex 38.6735 9 4
      vertex 42.0734 9.73213 4
      vertex 41.2334 10.4281 4
    endloop
  endfacet
  facet normal 0 0 1
    outer loop
      vertex 38.6735 9 4
      vertex 43.0593 9.23499 4
      vertex 42.0734 9.73213 4
    endloop
  endfacet
  facet normal -0 0 1
    outer loop
      vertex 38.6735 9 4
      vertex 44.1912 8.93671 4
      vertex 43.0593 9.23499 4
    endloop
  endfacet
  facet normal 0 0 1
    outer loop
      vertex 45.469 8.83728 4
      vertex 38.6735 9 4
      vertex 80 0 4
    endloop
  endfacet
  facet normal 0 0 1
    outer loop
      vertex 0 0 4
      vertex 38.6735 9 4
      vertex 35.9718 9 4
    endloop
  endfacet
  facet normal 0 0 1
    outer loop
      vertex 30.4952 9 4
      vertex 33.3108 13.3536 4
      vertex 30.4952 13.3536 4
    endloop
  endfacet
  facet normal 0 0 1
    outer loop
      vertex 33.3108 13.3536 4
      vertex 30.4952 9 4
      vertex 35.9718 9 4
    endloop
  endfacet
  facet normal 0 0 1
    outer loop
      vertex 0 0 4
      vertex 35.9718 9 4
      vertex 30.4952 9 4
    endloop
  endfacet
  facet normal 0 0 1
    outer loop
      vertex 0 0 4
      vertex 30.4952 9 4
      vertex 28.0946 9 4
    endloop
  endfacet
  facet normal 0 0 1
    outer loop
      vertex 0 0 4
      vertex 28.0946 9 4
      vertex 26.5397 9 4
    endloop
  endfacet
  facet normal 0 0 1
    outer loop
      vertex 0 0 4
      vertex 26.5397 9 4
      vertex 24.1636 9 4
    endloop
  endfacet
  facet normal -0 0 1
    outer loop
      vertex 18.7765 11.9296 4
      vertex 24.1636 9 4
      vertex 23.1463 11.9296 4
    endloop
  endfacet
  facet normal 0 0 1
    outer loop
      vertex 17.7593 9 4
      vertex 24.1636 9 4
      vertex 18.7765 11.9296 4
    endloop
  endfacet
  facet normal 0 0 1
    outer loop
      vertex 0 0 4
      vertex 24.1636 9 4
      vertex 17.7593 9 4
    endloop
  endfacet
  facet normal 0 0 1
    outer loop
      vertex 0 0 4
      vertex 17.7593 9 4
      vertex 15.3587 9 4
    endloop
  endfacet
  facet normal 0 0 1
    outer loop
      vertex 12.2903 9 4
      vertex 15.3587 9 4
      vertex 12.2903 18.6104 4
    endloop
  endfacet
  facet normal 0 0 1
    outer loop
      vertex 0 0 4
      vertex 15.3587 9 4
      vertex 12.2903 9 4
    endloop
  endfacet
  facet normal 0 0 1
    outer loop
      vertex 0 0 4
      vertex 12.2903 9 4
      vertex 9.88968 9 4
    endloop
  endfacet
  facet normal 0 0 1
    outer loop
      vertex 0 0 4
      vertex 6.1872 18.6104 4
      vertex 0 30 4
    endloop
  endfacet
  facet normal 0 0 1
    outer loop
      vertex 38.6735 9 4
      vertex 0 0 4
      vertex 80 0 4
    endloop
  endfacet
  facet normal 0 0 1
    outer loop
      vertex 6.1872 18.6104 4
      vertex 0 0 4
      vertex 9.88968 9 4
    endloop
  endfacet
  facet normal 0 0 1
    outer loop
      vertex 37.9329 15.926 4
      vertex 39.7951 16.0893 4
      vertex 38.0611 16.4664 4
    endloop
  endfacet
  facet normal 0 0 1
    outer loop
      vertex 39.6995 14.7858 4
      vertex 37.9329 15.926 4
      vertex 37.7193 15.4268 4
    endloop
  endfacet
  facet normal 0 0 1
    outer loop
      vertex 39.6995 14.7858 4
      vertex 37.7193 15.4268 4
      vertex 37.4202 14.9688 4
    endloop
  endfacet
  facet normal 0 0 1
    outer loop
      vertex 37.0484 14.5688 4
      vertex 39.6995 14.7858 4
      vertex 37.4202 14.9688 4
    endloop
  endfacet
  facet normal 0 0 1
    outer loop
      vertex 36.6166 14.2436 4
      vertex 39.6995 14.7858 4
      vertex 37.0484 14.5688 4
    endloop
  endfacet
  facet normal 0 0 1
    outer loop
      vertex 39.6995 14.7858 4
      vertex 36.6166 14.2436 4
      vertex 38.6735 9 4
    endloop
  endfacet
  facet normal -0 0 1
    outer loop
      vertex 36.1249 13.9931 4
      vertex 38.6735 9 4
      vertex 36.6166 14.2436 4
    endloop
  endfacet
  facet normal 0 0 1
    outer loop
      vertex 38.6735 9 4
      vertex 36.1249 13.9931 4
      vertex 35.573 13.8174 4
    endloop
  endfacet
  facet normal 0 0 1
    outer loop
      vertex 16.001 18.6104 4
      vertex 19.5414 20.4658 4
      vertex 16.001 20.4658 4
    endloop
  endfacet
  facet normal -0 0 1
    outer loop
      vertex 16.001 18.6104 4
      vertex 15.3587 9 4
      vertex 19.5414 20.4658 4
    endloop
  endfacet
  facet normal 0 -0 1
    outer loop
      vertex 15.3587 9 4
      vertex 16.001 18.6104 4
      vertex 12.2903 18.6104 4
    endloop
  endfacet
  facet normal 0 0 1
    outer loop
      vertex 42.1164 14.7858 4
      vertex 48.8298 14.7858 4
      vertex 48.7749 15.6634 4
    endloop
  endfacet
  facet normal 0 0 1
    outer loop
      vertex 48.8298 14.7858 4
      vertex 42.1164 14.7858 4
      vertex 48.7751 13.8688 4
    endloop
  endfacet
  facet normal -0 0 1
    outer loop
      vertex 42.1713 15.67 4
      vertex 48.7749 15.6634 4
      vertex 48.6101 16.4407 4
    endloop
  endfacet
  facet normal -0 -0 1
    outer loop
      vertex 42.1726 13.8919 4
      vertex 48.7751 13.8688 4
      vertex 42.1164 14.7858 4
    endloop
  endfacet
  facet normal 0 0 1
    outer loop
      vertex 45.4853 18.7487 4
      vertex 48.6101 16.4407 4
      vertex 48.3354 17.1179 4
    endloop
  endfacet
  facet normal 0 -0 1
    outer loop
      vertex 42.3412 13.0982 4
      vertex 48.7751 13.8688 4
      vertex 42.1726 13.8919 4
    endloop
  endfacet
  facet normal 0 0 1
    outer loop
      vertex 46.2344 18.6828 4
      vertex 48.3354 17.1179 4
      vertex 47.9509 17.6948 4
    endloop
  endfacet
  facet normal 0 0 1
    outer loop
      vertex 48.7751 13.8688 4
      vertex 42.3412 13.0982 4
      vertex 48.6111 13.0627 4
    endloop
  endfacet
  facet normal 0 0 1
    outer loop
      vertex 46.2344 18.6828 4
      vertex 47.9509 17.6948 4
      vertex 47.4672 18.1559 4
    endloop
  endfacet
  facet normal 0 -0 1
    outer loop
      vertex 45.469 10.7251 4
      vertex 48.6111 13.0627 4
      vertex 42.3412 13.0982 4
    endloop
  endfacet
  facet normal 0 0 1
    outer loop
      vertex 46.2344 18.6828 4
      vertex 47.4672 18.1559 4
      vertex 46.8951 18.4852 4
    endloop
  endfacet
  facet normal 0 0 1
    outer loop
      vertex 48.3354 17.1179 4
      vertex 46.2344 18.6828 4
      vertex 45.4853 18.7487 4
    endloop
  endfacet
  facet normal 0 0 1
    outer loop
      vertex 48.6111 13.0627 4
      vertex 45.469 10.7251 4
      vertex 48.3377 12.3674 4
    endloop
  endfacet
  facet normal 0 0 1
    outer loop
      vertex 48.6101 16.4407 4
      vertex 45.4853 18.7487 4
      vertex 42.3361 16.4509 4
    endloop
  endfacet
  facet normal 0 -0 1
    outer loop
      vertex 46.2286 10.7912 4
      vertex 48.3377 12.3674 4
      vertex 45.469 10.7251 4
    endloop
  endfacet
  facet normal 0 0 1
    outer loop
      vertex 47.955 11.783 4
      vertex 46.2286 10.7912 4
      vertex 47.4716 11.3202 4
    endloop
  endfacet
  facet normal 0 0 1
    outer loop
      vertex 42.3361 16.4509 4
      vertex 45.4853 18.7487 4
      vertex 44.7254 18.6833 4
    endloop
  endfacet
  facet normal 0 0 1
    outer loop
      vertex 47.4716 11.3202 4
      vertex 46.2286 10.7912 4
      vertex 46.8961 10.9896 4
    endloop
  endfacet
  facet normal 0 0 1
    outer loop
      vertex 42.6107 17.1286 4
      vertex 44.7254 18.6833 4
      vertex 44.0571 18.4873 4
    endloop
  endfacet
  facet normal 0 0 1
    outer loop
      vertex 48.3377 12.3674 4
      vertex 46.2286 10.7912 4
      vertex 47.955 11.783 4
    endloop
  endfacet
  facet normal 0 0 1
    outer loop
      vertex 42.9952 17.703 4
      vertex 44.0571 18.4873 4
      vertex 43.4804 18.1605 4
    endloop
  endfacet
  facet normal -0 -0 1
    outer loop
      vertex 42.6222 12.4048 4
      vertex 45.469 10.7251 4
      vertex 42.3412 13.0982 4
    endloop
  endfacet
  facet normal 0 0 1
    outer loop
      vertex 44.0571 18.4873 4
      vertex 42.9952 17.703 4
      vertex 42.6107 17.1286 4
    endloop
  endfacet
  facet normal 0 0 1
    outer loop
      vertex 45.469 10.7251 4
      vertex 42.6222 12.4048 4
      vertex 44.7328 10.793 4
    endloop
  endfacet
  facet normal 0 0 1
    outer loop
      vertex 44.7254 18.6833 4
      vertex 42.6107 17.1286 4
      vertex 42.3361 16.4509 4
    endloop
  endfacet
  facet normal -0 -0 1
    outer loop
      vertex 43.0156 11.8115 4
      vertex 44.7328 10.793 4
      vertex 42.6222 12.4048 4
    endloop
  endfacet
  facet normal 0 0 1
    outer loop
      vertex 48.6101 16.4407 4
      vertex 42.3361 16.4509 4
      vertex 42.1713 15.67 4
    endloop
  endfacet
  facet normal 0 0 1
    outer loop
      vertex 44.7328 10.793 4
      vertex 43.0156 11.8115 4
      vertex 44.0785 10.9967 4
    endloop
  endfacet
  facet normal 0 0 1
    outer loop
      vertex 48.7749 15.6634 4
      vertex 42.1713 15.67 4
      vertex 42.1164 14.7858 4
    endloop
  endfacet
  facet normal 0 0 1
    outer loop
      vertex 44.0785 10.9967 4
      vertex 43.0156 11.8115 4
      vertex 43.5061 11.3362 4
    endloop
  endfacet
  facet normal -0 0 1
    outer loop
      vertex 20.9086 18.5209 4
      vertex 21.1283 18.1384 4
      vertex 20.9573 18.7 4
    endloop
  endfacet
  facet normal -0 0 1
    outer loop
      vertex 20.8658 18.3693 4
      vertex 21.1283 18.1384 4
      vertex 20.9086 18.5209 4
    endloop
  endfacet
  facet normal -0 0 1
    outer loop
      vertex 20.819 18.2076 4
      vertex 21.1283 18.1384 4
      vertex 20.8658 18.3693 4
    endloop
  endfacet
  facet normal 0 0 1
    outer loop
      vertex 20.7681 18.0357 4
      vertex 21.1283 18.1384 4
      vertex 20.819 18.2076 4
    endloop
  endfacet
  facet normal 0 0 1
    outer loop
      vertex 20.7132 17.8536 4
      vertex 21.1283 18.1384 4
      vertex 20.7681 18.0357 4
    endloop
  endfacet
  facet normal 0 0 1
    outer loop
      vertex 21.1283 18.1384 4
      vertex 20.7132 17.8536 4
      vertex 21.4781 17.0317 4
    endloop
  endfacet
  facet normal -0 0 1
    outer loop
      vertex 20.583 17.4559 4
      vertex 21.4781 17.0317 4
      vertex 20.7132 17.8536 4
    endloop
  endfacet
  facet normal 0 0 1
    outer loop
      vertex 20.3063 16.6371 4
      vertex 21.4781 17.0317 4
      vertex 20.583 17.4559 4
    endloop
  endfacet
  facet normal 0 0 1
    outer loop
      vertex 19.8832 15.3971 4
      vertex 21.4781 17.0317 4
      vertex 20.3063 16.6371 4
    endloop
  endfacet
  facet normal 0 0 1
    outer loop
      vertex 21.4781 17.0317 4
      vertex 19.8832 15.3971 4
      vertex 22.6092 13.736 4
    endloop
  endfacet
  facet normal 0 0 1
    outer loop
      vertex 22.6092 13.736 4
      vertex 19.8832 15.3971 4
      vertex 19.3135 13.736 4
    endloop
  endfacet
  facet normal 0 0 1
    outer loop
      vertex 34.5233 15.331 4
      vertex 35.6544 16.5623 4
      vertex 35.6869 16.9504 4
    endloop
  endfacet
  facet normal 0 0 1
    outer loop
      vertex 34.4968 18.499 4
      vertex 35.6869 16.9504 4
      vertex 35.5547 17.6731 4
    endloop
  endfacet
  facet normal 0 -0 1
    outer loop
      vertex 34.5233 15.331 4
      vertex 35.6869 16.9504 4
      vertex 34.4968 18.499 4
    endloop
  endfacet
  facet normal 0 -0 1
    outer loop
      vertex 34.8752 15.4734 4
      vertex 35.6544 16.5623 4
      vertex 34.5233 15.331 4
    endloop
  endfacet
  facet normal 0 0 1
    outer loop
      vertex 34.4968 18.499 4
      vertex 35.5547 17.6731 4
      vertex 35.158 18.1893 4
    endloop
  endfacet
  facet normal 0 0 1
    outer loop
      vertex 35.5567 16.22 4
      vertex 34.8752 15.4734 4
      vertex 35.394 15.9235 4
    endloop
  endfacet
  facet normal 0 0 1
    outer loop
      vertex 35.394 15.9235 4
      vertex 34.8752 15.4734 4
      vertex 35.1661 15.6727 4
    endloop
  endfacet
  facet normal 0 0 1
    outer loop
      vertex 35.6544 16.5623 4
      vertex 34.8752 15.4734 4
      vertex 35.5567 16.22 4
    endloop
  endfacet
  facet normal 0 0 1
    outer loop
      vertex 34.4968 18.499 4
      vertex 34.1103 15.2456 4
      vertex 34.5233 15.331 4
    endloop
  endfacet
  facet normal 0 0 1
    outer loop
      vertex 33.5712 18.6023 4
      vertex 34.1103 15.2456 4
      vertex 34.4968 18.499 4
    endloop
  endfacet
  facet normal 0 0 1
    outer loop
      vertex 34.1103 15.2456 4
      vertex 33.5712 18.6023 4
      vertex 33.6364 15.2171 4
    endloop
  endfacet
  facet normal 0 0 1
    outer loop
      vertex 30.4952 15.2171 4
      vertex 33.5712 18.6023 4
      vertex 30.4952 18.6023 4
    endloop
  endfacet
  facet normal 0 0 1
    outer loop
      vertex 33.5712 18.6023 4
      vertex 30.4952 15.2171 4
      vertex 33.6364 15.2171 4
    endloop
  endfacet
  facet normal 0 0 -1
    outer loop
      vertex 0 0 0
      vertex 80 30 0
      vertex 80 0 0
    endloop
  endfacet
  facet normal -0 0 -1
    outer loop
      vertex 80 30 0
      vertex 0 0 0
      vertex 0 30 0
    endloop
  endfacet
  facet normal -1 0 0
    outer loop
      vertex 0 0 0
      vertex 0 30 4
      vertex 0 30 0
    endloop
  endfacet
  facet normal -1 -0 0
    outer loop
      vertex 0 30 4
      vertex 0 0 0
      vertex 0 0 4
    endloop
  endfacet
  facet normal 0 1 -0
    outer loop
      vertex 80 30 0
      vertex 0 30 4
      vertex 80 30 4
    endloop
  endfacet
  facet normal 0 1 0
    outer loop
      vertex 0 30 4
      vertex 80 30 0
      vertex 0 30 0
    endloop
  endfacet
  facet normal 0 -1 0
    outer loop
      vertex 0 0 0
      vertex 80 0 4
      vertex 0 0 4
    endloop
  endfacet
  facet normal 0 -1 -0
    outer loop
      vertex 80 0 4
      vertex 0 0 0
      vertex 80 0 0
    endloop
  endfacet
  facet normal 0.167153 -0.985931 0
    outer loop
      vertex 46.3204 8.88229 4
      vertex 47.1168 9.01731 6
      vertex 46.3204 8.88229 6
    endloop
  endfacet
  facet normal 0.167153 -0.985931 0
    outer loop
      vertex 47.1168 9.01731 6
      vertex 46.3204 8.88229 4
      vertex 47.1168 9.01731 4
    endloop
  endfacet
  facet normal 0.290413 -0.956901 0
    outer loop
      vertex 47.1168 9.01731 4
      vertex 47.8583 9.24235 6
      vertex 47.1168 9.01731 6
    endloop
  endfacet
  facet normal 0.290413 -0.956901 0
    outer loop
      vertex 47.8583 9.24235 6
      vertex 47.1168 9.01731 4
      vertex 47.8583 9.24235 4
    endloop
  endfacet
  facet normal 0.417047 -0.908885 0
    outer loop
      vertex 47.8583 9.24235 4
      vertex 48.5449 9.5574 6
      vertex 47.8583 9.24235 6
    endloop
  endfacet
  facet normal 0.417047 -0.908885 0
    outer loop
      vertex 48.5449 9.5574 6
      vertex 47.8583 9.24235 4
      vertex 48.5449 9.5574 4
    endloop
  endfacet
  facet normal 0.541539 -0.840676 0
    outer loop
      vertex 48.5449 9.5574 4
      vertex 49.1659 9.95743 6
      vertex 48.5449 9.5574 6
    endloop
  endfacet
  facet normal 0.541539 -0.840676 0
    outer loop
      vertex 49.1659 9.95743 6
      vertex 48.5449 9.5574 4
      vertex 49.1659 9.95743 4
    endloop
  endfacet
  facet normal 0.661042 -0.750349 0
    outer loop
      vertex 49.1659 9.95743 4
      vertex 49.7106 10.4373 6
      vertex 49.1659 9.95743 6
    endloop
  endfacet
  facet normal 0.661042 -0.750349 0
    outer loop
      vertex 49.7106 10.4373 6
      vertex 49.1659 9.95743 4
      vertex 49.7106 10.4373 4
    endloop
  endfacet
  facet normal 0.766883 -0.641787 0
    outer loop
      vertex 49.7106 10.4373 6
      vertex 50.179 10.997 4
      vertex 50.179 10.997 6
    endloop
  endfacet
  facet normal 0.766883 -0.641787 0
    outer loop
      vertex 50.179 10.997 4
      vertex 49.7106 10.4373 6
      vertex 49.7106 10.4373 4
    endloop
  endfacet
  facet normal 0.852513 -0.522706 0
    outer loop
      vertex 50.179 10.997 6
      vertex 50.5711 11.6365 4
      vertex 50.5711 11.6365 6
    endloop
  endfacet
  facet normal 0.852513 -0.522706 0
    outer loop
      vertex 50.5711 11.6365 4
      vertex 50.179 10.997 6
      vertex 50.179 10.997 4
    endloop
  endfacet
  facet normal 0.915821 -0.401587 0
    outer loop
      vertex 50.5711 11.6365 6
      vertex 50.8809 12.343 4
      vertex 50.8809 12.343 6
    endloop
  endfacet
  facet normal 0.915821 -0.401587 0
    outer loop
      vertex 50.8809 12.343 4
      vertex 50.5711 11.6365 6
      vertex 50.5711 11.6365 4
    endloop
  endfacet
  facet normal 0.960188 -0.279355 0
    outer loop
      vertex 50.8809 12.343 6
      vertex 51.1021 13.1033 4
      vertex 51.1021 13.1033 6
    endloop
  endfacet
  facet normal 0.960188 -0.279355 0
    outer loop
      vertex 51.1021 13.1033 4
      vertex 50.8809 12.343 6
      vertex 50.8809 12.343 4
    endloop
  endfacet
  facet normal 0.986961 -0.160958 0
    outer loop
      vertex 51.1021 13.1033 6
      vertex 51.2349 13.9176 4
      vertex 51.2349 13.9176 6
    endloop
  endfacet
  facet normal 0.986961 -0.160958 0
    outer loop
      vertex 51.2349 13.9176 4
      vertex 51.1021 13.1033 6
      vertex 51.1021 13.1033 4
    endloop
  endfacet
  facet normal 0.998707 -0.0508441 0
    outer loop
      vertex 51.2349 13.9176 6
      vertex 51.2791 14.7858 4
      vertex 51.2791 14.7858 6
    endloop
  endfacet
  facet normal 0.998707 -0.0508441 0
    outer loop
      vertex 51.2791 14.7858 4
      vertex 51.2349 13.9176 6
      vertex 51.2349 13.9176 4
    endloop
  endfacet
  facet normal 0.997249 0.0741194 0
    outer loop
      vertex 51.2791 14.7858 6
      vertex 51.1832 16.0761 4
      vertex 51.1832 16.0761 6
    endloop
  endfacet
  facet normal 0.997249 0.0741194 0
    outer loop
      vertex 51.1832 16.0761 4
      vertex 51.2791 14.7858 6
      vertex 51.2791 14.7858 4
    endloop
  endfacet
  facet normal 0.969863 0.243652 0
    outer loop
      vertex 51.1832 16.0761 6
      vertex 50.8956 17.2209 4
      vertex 50.8956 17.2209 6
    endloop
  endfacet
  facet normal 0.969863 0.243652 0
    outer loop
      vertex 50.8956 17.2209 4
      vertex 51.1832 16.0761 6
      vertex 51.1832 16.0761 4
    endloop
  endfacet
  facet normal 0.901668 0.432429 0
    outer loop
      vertex 50.8956 17.2209 6
      vertex 50.4163 18.2203 4
      vertex 50.4163 18.2203 6
    endloop
  endfacet
  facet normal 0.901668 0.432429 0
    outer loop
      vertex 50.4163 18.2203 4
      vertex 50.8956 17.2209 6
      vertex 50.8956 17.2209 4
    endloop
  endfacet
  facet normal 0.786238 0.617923 0
    outer loop
      vertex 50.4163 18.2203 6
      vertex 49.7452 19.0742 4
      vertex 49.7452 19.0742 6
    endloop
  endfacet
  facet normal 0.786238 0.617923 0
    outer loop
      vertex 49.7452 19.0742 4
      vertex 50.4163 18.2203 6
      vertex 50.4163 18.2203 4
    endloop
  endfacet
  facet normal 0.630527 0.776168 -0
    outer loop
      vertex 49.7452 19.0742 4
      vertex 48.9037 19.7578 6
      vertex 49.7452 19.0742 6
    endloop
  endfacet
  facet normal 0.630527 0.776168 0
    outer loop
      vertex 48.9037 19.7578 6
      vertex 49.7452 19.0742 4
      vertex 48.9037 19.7578 4
    endloop
  endfacet
  facet normal 0.442135 0.896949 -0
    outer loop
      vertex 48.9037 19.7578 4
      vertex 47.9133 20.246 6
      vertex 48.9037 19.7578 6
    endloop
  endfacet
  facet normal 0.442135 0.896949 0
    outer loop
      vertex 47.9133 20.246 6
      vertex 48.9037 19.7578 4
      vertex 47.9133 20.246 4
    endloop
  endfacet
  facet normal 0.24903 0.968496 -0
    outer loop
      vertex 47.9133 20.246 4
      vertex 46.7738 20.539 6
      vertex 47.9133 20.246 6
    endloop
  endfacet
  facet normal 0.24903 0.968496 0
    outer loop
      vertex 46.7738 20.539 6
      vertex 47.9133 20.246 4
      vertex 46.7738 20.539 4
    endloop
  endfacet
  facet normal 0.0755306 0.997143 -0
    outer loop
      vertex 46.7738 20.539 4
      vertex 45.4853 20.6366 6
      vertex 46.7738 20.539 6
    endloop
  endfacet
  facet normal 0.0755306 0.997143 0
    outer loop
      vertex 45.4853 20.6366 6
      vertex 46.7738 20.539 4
      vertex 45.4853 20.6366 4
    endloop
  endfacet
  facet normal -0.0747726 0.997201 0
    outer loop
      vertex 45.4853 20.6366 4
      vertex 44.197 20.54 6
      vertex 45.4853 20.6366 6
    endloop
  endfacet
  facet normal -0.0747726 0.997201 0
    outer loop
      vertex 44.197 20.54 6
      vertex 45.4853 20.6366 4
      vertex 44.197 20.54 4
    endloop
  endfacet
  facet normal -0.246719 0.969087 0
    outer loop
      vertex 44.197 20.54 4
      vertex 43.0583 20.2501 6
      vertex 44.197 20.54 6
    endloop
  endfacet
  facet normal -0.246719 0.969087 0
    outer loop
      vertex 43.0583 20.2501 6
      vertex 44.197 20.54 4
      vertex 43.0583 20.2501 4
    endloop
  endfacet
  facet normal -0.43891 0.898531 0
    outer loop
      vertex 43.0583 20.2501 4
      vertex 42.0691 19.7669 6
      vertex 43.0583 20.2501 6
    endloop
  endfacet
  facet normal -0.43891 0.898531 0
    outer loop
      vertex 42.0691 19.7669 6
      vertex 43.0583 20.2501 4
      vertex 42.0691 19.7669 4
    endloop
  endfacet
  facet normal -0.627372 0.77872 0
    outer loop
      vertex 42.0691 19.7669 4
      vertex 41.2294 19.0904 6
      vertex 42.0691 19.7669 6
    endloop
  endfacet
  facet normal -0.627372 0.77872 0
    outer loop
      vertex 41.2294 19.0904 6
      vertex 42.0691 19.7669 4
      vertex 41.2294 19.0904 4
    endloop
  endfacet
  facet normal -0.7852 0.619242 0
    outer loop
      vertex 40.56 18.2416 4
      vertex 41.2294 19.0904 6
      vertex 41.2294 19.0904 4
    endloop
  endfacet
  facet normal -0.7852 0.619242 0
    outer loop
      vertex 41.2294 19.0904 6
      vertex 40.56 18.2416 4
      vertex 40.56 18.2416 6
    endloop
  endfacet
  facet normal -0.902258 0.431197 0
    outer loop
      vertex 40.0819 17.2412 4
      vertex 40.56 18.2416 6
      vertex 40.56 18.2416 4
    endloop
  endfacet
  facet normal -0.902258 0.431197 0
    outer loop
      vertex 40.56 18.2416 6
      vertex 40.0819 17.2412 4
      vertex 40.0819 17.2412 6
    endloop
  endfacet
  facet normal -0.970375 0.241604 0
    outer loop
      vertex 39.7951 16.0893 4
      vertex 40.0819 17.2412 6
      vertex 40.0819 17.2412 4
    endloop
  endfacet
  facet normal -0.970375 0.241604 0
    outer loop
      vertex 40.0819 17.2412 6
      vertex 39.7951 16.0893 4
      vertex 39.7951 16.0893 6
    endloop
  endfacet
  facet normal -0.997321 0.0731446 0
    outer loop
      vertex 39.6995 14.7858 4
      vertex 39.7951 16.0893 6
      vertex 39.7951 16.0893 4
    endloop
  endfacet
  facet normal -0.997321 0.0731446 0
    outer loop
      vertex 39.7951 16.0893 6
      vertex 39.6995 14.7858 4
      vertex 39.6995 14.7858 6
    endloop
  endfacet
  facet normal -0.997331 -0.0730163 0
    outer loop
      vertex 39.7954 13.4759 4
      vertex 39.6995 14.7858 6
      vertex 39.6995 14.7858 4
    endloop
  endfacet
  facet normal -0.997331 -0.0730163 0
    outer loop
      vertex 39.6995 14.7858 6
      vertex 39.7954 13.4759 4
      vertex 39.7954 13.4759 6
    endloop
  endfacet
  facet normal -0.970753 -0.24008 0
    outer loop
      vertex 40.083 12.313 4
      vertex 39.7954 13.4759 6
      vertex 39.7954 13.4759 4
    endloop
  endfacet
  facet normal -0.970753 -0.24008 0
    outer loop
      vertex 39.7954 13.4759 6
      vertex 40.083 12.313 4
      vertex 40.083 12.313 6
    endloop
  endfacet
  facet normal -0.904413 -0.426659 0
    outer loop
      vertex 40.5623 11.297 4
      vertex 40.083 12.313 6
      vertex 40.083 12.313 4
    endloop
  endfacet
  facet normal -0.904413 -0.426659 0
    outer loop
      vertex 40.083 12.313 6
      vertex 40.5623 11.297 4
      vertex 40.5623 11.297 6
    endloop
  endfacet
  facet normal -0.791427 -0.611263 0
    outer loop
      vertex 41.2334 10.4281 4
      vertex 40.5623 11.297 6
      vertex 40.5623 11.297 4
    endloop
  endfacet
  facet normal -0.791427 -0.611263 0
    outer loop
      vertex 40.5623 11.297 6
      vertex 41.2334 10.4281 4
      vertex 41.2334 10.4281 6
    endloop
  endfacet
  facet normal -0.638002 -0.770035 0
    outer loop
      vertex 41.2334 10.4281 4
      vertex 42.0734 9.73213 6
      vertex 41.2334 10.4281 6
    endloop
  endfacet
  facet normal -0.638002 -0.770035 -0
    outer loop
      vertex 42.0734 9.73213 6
      vertex 41.2334 10.4281 4
      vertex 42.0734 9.73213 4
    endloop
  endfacet
  facet normal -0.450247 -0.892904 0
    outer loop
      vertex 42.0734 9.73213 4
      vertex 43.0593 9.23499 6
      vertex 42.0734 9.73213 6
    endloop
  endfacet
  facet normal -0.450247 -0.892904 -0
    outer loop
      vertex 43.0593 9.23499 6
      vertex 42.0734 9.73213 4
      vertex 43.0593 9.23499 4
    endloop
  endfacet
  facet normal -0.254822 -0.966988 0
    outer loop
      vertex 43.0593 9.23499 4
      vertex 44.1912 8.93671 6
      vertex 43.0593 9.23499 6
    endloop
  endfacet
  facet normal -0.254822 -0.966988 -0
    outer loop
      vertex 44.1912 8.93671 6
      vertex 43.0593 9.23499 4
      vertex 44.1912 8.93671 4
    endloop
  endfacet
  facet normal -0.0775789 -0.996986 0
    outer loop
      vertex 44.1912 8.93671 4
      vertex 45.469 8.83728 6
      vertex 44.1912 8.93671 6
    endloop
  endfacet
  facet normal -0.0775789 -0.996986 -0
    outer loop
      vertex 45.469 8.83728 6
      vertex 44.1912 8.93671 4
      vertex 45.469 8.83728 4
    endloop
  endfacet
  facet normal 0.0527921 -0.998606 0
    outer loop
      vertex 45.469 8.83728 4
      vertex 46.3204 8.88229 6
      vertex 45.469 8.83728 6
    endloop
  endfacet
  facet normal 0.0527921 -0.998606 0
    outer loop
      vertex 46.3204 8.88229 6
      vertex 45.469 8.83728 4
      vertex 46.3204 8.88229 4
    endloop
  endfacet
  facet normal 0.297253 0.954799 -0
    outer loop
      vertex 44.7328 10.793 4
      vertex 44.0785 10.9967 6
      vertex 44.7328 10.793 6
    endloop
  endfacet
  facet normal 0.297253 0.954799 0
    outer loop
      vertex 44.0785 10.9967 6
      vertex 44.7328 10.793 4
      vertex 44.0785 10.9967 4
    endloop
  endfacet
  facet normal 0.510136 0.860094 -0
    outer loop
      vertex 44.0785 10.9967 4
      vertex 43.5061 11.3362 6
      vertex 44.0785 10.9967 6
    endloop
  endfacet
  facet normal 0.510136 0.860094 0
    outer loop
      vertex 43.5061 11.3362 6
      vertex 44.0785 10.9967 4
      vertex 43.5061 11.3362 4
    endloop
  endfacet
  facet normal 0.695892 0.718146 -0
    outer loop
      vertex 43.5061 11.3362 4
      vertex 43.0156 11.8115 6
      vertex 43.5061 11.3362 6
    endloop
  endfacet
  facet normal 0.695892 0.718146 0
    outer loop
      vertex 43.0156 11.8115 6
      vertex 43.5061 11.3362 4
      vertex 43.0156 11.8115 4
    endloop
  endfacet
  facet normal 0.833431 0.552624 0
    outer loop
      vertex 43.0156 11.8115 6
      vertex 42.6222 12.4048 4
      vertex 42.6222 12.4048 6
    endloop
  endfacet
  facet normal 0.833431 0.552624 0
    outer loop
      vertex 42.6222 12.4048 4
      vertex 43.0156 11.8115 6
      vertex 43.0156 11.8115 4
    endloop
  endfacet
  facet normal 0.92679 0.375581 0
    outer loop
      vertex 42.6222 12.4048 6
      vertex 42.3412 13.0982 4
      vertex 42.3412 13.0982 6
    endloop
  endfacet
  facet normal 0.92679 0.375581 0
    outer loop
      vertex 42.3412 13.0982 4
      vertex 42.6222 12.4048 6
      vertex 42.6222 12.4048 4
    endloop
  endfacet
  facet normal 0.978174 0.207787 0
    outer loop
      vertex 42.3412 13.0982 6
      vertex 42.1726 13.8919 4
      vertex 42.1726 13.8919 6
    endloop
  endfacet
  facet normal 0.978174 0.207787 0
    outer loop
      vertex 42.1726 13.8919 4
      vertex 42.3412 13.0982 6
      vertex 42.3412 13.0982 4
    endloop
  endfacet
  facet normal 0.998029 0.0627467 0
    outer loop
      vertex 42.1726 13.8919 6
      vertex 42.1164 14.7858 4
      vertex 42.1164 14.7858 6
    endloop
  endfacet
  facet normal 0.998029 0.0627467 0
    outer loop
      vertex 42.1164 14.7858 4
      vertex 42.1726 13.8919 6
      vertex 42.1726 13.8919 4
    endloop
  endfacet
  facet normal 0.998078 -0.0619707 0
    outer loop
      vertex 42.1164 14.7858 6
      vertex 42.1713 15.67 4
      vertex 42.1713 15.67 6
    endloop
  endfacet
  facet normal 0.998078 -0.0619707 0
    outer loop
      vertex 42.1713 15.67 4
      vertex 42.1164 14.7858 6
      vertex 42.1164 14.7858 4
    endloop
  endfacet
  facet normal 0.978449 -0.20649 0
    outer loop
      vertex 42.1713 15.67 6
      vertex 42.3361 16.4509 4
      vertex 42.3361 16.4509 6
    endloop
  endfacet
  facet normal 0.978449 -0.20649 0
    outer loop
      vertex 42.3361 16.4509 4
      vertex 42.1713 15.67 6
      vertex 42.1713 15.67 4
    endloop
  endfacet
  facet normal 0.926807 -0.375537 0
    outer loop
      vertex 42.3361 16.4509 6
      vertex 42.6107 17.1286 4
      vertex 42.6107 17.1286 6
    endloop
  endfacet
  facet normal 0.926807 -0.375537 0
    outer loop
      vertex 42.6107 17.1286 4
      vertex 42.3361 16.4509 6
      vertex 42.3361 16.4509 4
    endloop
  endfacet
  facet normal 0.831003 -0.556268 0
    outer loop
      vertex 42.6107 17.1286 6
      vertex 42.9952 17.703 4
      vertex 42.9952 17.703 6
    endloop
  endfacet
  facet normal 0.831003 -0.556268 0
    outer loop
      vertex 42.9952 17.703 4
      vertex 42.6107 17.1286 6
      vertex 42.6107 17.1286 4
    endloop
  endfacet
  facet normal 0.686033 -0.72757 0
    outer loop
      vertex 42.9952 17.703 4
      vertex 43.4804 18.1605 6
      vertex 42.9952 17.703 6
    endloop
  endfacet
  facet normal 0.686033 -0.72757 0
    outer loop
      vertex 43.4804 18.1605 6
      vertex 42.9952 17.703 4
      vertex 43.4804 18.1605 4
    endloop
  endfacet
  facet normal 0.493016 -0.87002 0
    outer loop
      vertex 43.4804 18.1605 4
      vertex 44.0571 18.4873 6
      vertex 43.4804 18.1605 6
    endloop
  endfacet
  facet normal 0.493016 -0.87002 0
    outer loop
      vertex 44.0571 18.4873 6
      vertex 43.4804 18.1605 4
      vertex 44.0571 18.4873 4
    endloop
  endfacet
  facet normal 0.281428 -0.959582 0
    outer loop
      vertex 44.0571 18.4873 4
      vertex 44.7254 18.6833 6
      vertex 44.0571 18.4873 6
    endloop
  endfacet
  facet normal 0.281428 -0.959582 0
    outer loop
      vertex 44.7254 18.6833 6
      vertex 44.0571 18.4873 4
      vertex 44.7254 18.6833 4
    endloop
  endfacet
  facet normal 0.085747 -0.996317 0
    outer loop
      vertex 44.7254 18.6833 4
      vertex 45.4853 18.7487 6
      vertex 44.7254 18.6833 6
    endloop
  endfacet
  facet normal 0.085747 -0.996317 0
    outer loop
      vertex 45.4853 18.7487 6
      vertex 44.7254 18.6833 4
      vertex 45.4853 18.7487 4
    endloop
  endfacet
  facet normal -0.0876338 -0.996153 0
    outer loop
      vertex 45.4853 18.7487 4
      vertex 46.2344 18.6828 6
      vertex 45.4853 18.7487 6
    endloop
  endfacet
  facet normal -0.0876338 -0.996153 -0
    outer loop
      vertex 46.2344 18.6828 6
      vertex 45.4853 18.7487 4
      vertex 46.2344 18.6828 4
    endloop
  endfacet
  facet normal -0.286536 -0.958069 0
    outer loop
      vertex 46.2344 18.6828 4
      vertex 46.8951 18.4852 6
      vertex 46.2344 18.6828 6
    endloop
  endfacet
  facet normal -0.286536 -0.958069 -0
    outer loop
      vertex 46.8951 18.4852 6
      vertex 46.2344 18.6828 4
      vertex 46.8951 18.4852 4
    endloop
  endfacet
  facet normal -0.498861 -0.866682 0
    outer loop
      vertex 46.8951 18.4852 4
      vertex 47.4672 18.1559 6
      vertex 46.8951 18.4852 6
    endloop
  endfacet
  facet normal -0.498861 -0.866682 -0
    outer loop
      vertex 47.4672 18.1559 6
      vertex 46.8951 18.4852 4
      vertex 47.4672 18.1559 4
    endloop
  endfacet
  facet normal -0.689995 -0.723814 0
    outer loop
      vertex 47.4672 18.1559 4
      vertex 47.9509 17.6948 6
      vertex 47.4672 18.1559 6
    endloop
  endfacet
  facet normal -0.689995 -0.723814 -0
    outer loop
      vertex 47.9509 17.6948 6
      vertex 47.4672 18.1559 4
      vertex 47.9509 17.6948 4
    endloop
  endfacet
  facet normal -0.832117 -0.5546 0
    outer loop
      vertex 48.3354 17.1179 4
      vertex 47.9509 17.6948 6
      vertex 47.9509 17.6948 4
    endloop
  endfacet
  facet normal -0.832117 -0.5546 0
    outer loop
      vertex 47.9509 17.6948 6
      vertex 48.3354 17.1179 4
      vertex 48.3354 17.1179 6
    endloop
  endfacet
  facet normal -0.926663 -0.375893 0
    outer loop
      vertex 48.6101 16.4407 4
      vertex 48.3354 17.1179 6
      vertex 48.3354 17.1179 4
    endloop
  endfacet
  facet normal -0.926663 -0.375893 0
    outer loop
      vertex 48.3354 17.1179 6
      vertex 48.6101 16.4407 4
      vertex 48.6101 16.4407 6
    endloop
  endfacet
  facet normal -0.978255 -0.207406 0
    outer loop
      vertex 48.7749 15.6634 4
      vertex 48.6101 16.4407 6
      vertex 48.6101 16.4407 4
    endloop
  endfacet
  facet normal -0.978255 -0.207406 0
    outer loop
      vertex 48.6101 16.4407 6
      vertex 48.7749 15.6634 4
      vertex 48.7749 15.6634 6
    endloop
  endfacet
  facet normal -0.998049 -0.0624349 0
    outer loop
      vertex 48.8298 14.7858 4
      vertex 48.7749 15.6634 6
      vertex 48.7749 15.6634 4
    endloop
  endfacet
  facet normal -0.998049 -0.0624349 0
    outer loop
      vertex 48.7749 15.6634 6
      vertex 48.8298 14.7858 4
      vertex 48.8298 14.7858 6
    endloop
  endfacet
  facet normal -0.998226 0.0595452 0
    outer loop
      vertex 48.7751 13.8688 4
      vertex 48.8298 14.7858 6
      vertex 48.8298 14.7858 4
    endloop
  endfacet
  facet normal -0.998226 0.0595452 0
    outer loop
      vertex 48.8298 14.7858 6
      vertex 48.7751 13.8688 4
      vertex 48.7751 13.8688 6
    endloop
  endfacet
  facet normal -0.979925 0.199365 0
    outer loop
      vertex 48.6111 13.0627 4
      vertex 48.7751 13.8688 6
      vertex 48.7751 13.8688 4
    endloop
  endfacet
  facet normal -0.979925 0.199365 0
    outer loop
      vertex 48.7751 13.8688 6
      vertex 48.6111 13.0627 4
      vertex 48.6111 13.0627 6
    endloop
  endfacet
  facet normal -0.930639 0.365938 0
    outer loop
      vertex 48.3377 12.3674 4
      vertex 48.6111 13.0627 6
      vertex 48.6111 13.0627 4
    endloop
  endfacet
  facet normal -0.930639 0.365938 0
    outer loop
      vertex 48.6111 13.0627 6
      vertex 48.3377 12.3674 4
      vertex 48.3377 12.3674 6
    endloop
  endfacet
  facet normal -0.836581 0.547843 0
    outer loop
      vertex 47.955 11.783 4
      vertex 48.3377 12.3674 6
      vertex 48.3377 12.3674 4
    endloop
  endfacet
  facet normal -0.836581 0.547843 0
    outer loop
      vertex 48.3377 12.3674 6
      vertex 47.955 11.783 4
      vertex 47.955 11.783 6
    endloop
  endfacet
  facet normal -0.691548 0.72233 0
    outer loop
      vertex 47.955 11.783 4
      vertex 47.4716 11.3202 6
      vertex 47.955 11.783 6
    endloop
  endfacet
  facet normal -0.691548 0.72233 0
    outer loop
      vertex 47.4716 11.3202 6
      vertex 47.955 11.783 4
      vertex 47.4716 11.3202 4
    endloop
  endfacet
  facet normal -0.498117 0.86711 0
    outer loop
      vertex 47.4716 11.3202 4
      vertex 46.8961 10.9896 6
      vertex 47.4716 11.3202 6
    endloop
  endfacet
  facet normal -0.498117 0.86711 0
    outer loop
      vertex 46.8961 10.9896 6
      vertex 47.4716 11.3202 4
      vertex 46.8961 10.9896 4
    endloop
  endfacet
  facet normal -0.28491 0.958554 0
    outer loop
      vertex 46.8961 10.9896 4
      vertex 46.2286 10.7912 6
      vertex 46.8961 10.9896 6
    endloop
  endfacet
  facet normal -0.28491 0.958554 0
    outer loop
      vertex 46.2286 10.7912 6
      vertex 46.8961 10.9896 4
      vertex 46.2286 10.7912 4
    endloop
  endfacet
  facet normal -0.0866919 0.996235 0
    outer loop
      vertex 46.2286 10.7912 4
      vertex 45.469 10.7251 6
      vertex 46.2286 10.7912 6
    endloop
  endfacet
  facet normal -0.0866919 0.996235 0
    outer loop
      vertex 45.469 10.7251 6
      vertex 46.2286 10.7912 4
      vertex 45.469 10.7251 4
    endloop
  endfacet
  facet normal 0.0918406 0.995774 -0
    outer loop
      vertex 45.469 10.7251 4
      vertex 44.7328 10.793 6
      vertex 45.469 10.7251 6
    endloop
  endfacet
  facet normal 0.0918406 0.995774 0
    outer loop
      vertex 44.7328 10.793 6
      vertex 45.469 10.7251 4
      vertex 44.7328 10.793 4
    endloop
  endfacet
  facet normal 0 -1 0
    outer loop
      vertex 12.2903 18.6104 4
      vertex 16.001 18.6104 6
      vertex 12.2903 18.6104 6
    endloop
  endfacet
  facet normal 0 -1 -0
    outer loop
      vertex 16.001 18.6104 6
      vertex 12.2903 18.6104 4
      vertex 16.001 18.6104 4
    endloop
  endfacet
  facet normal 1 -0 0
    outer loop
      vertex 16.001 18.6104 6
      vertex 16.001 20.4658 4
      vertex 16.001 20.4658 6
    endloop
  endfacet
  facet normal 1 0 0
    outer loop
      vertex 16.001 20.4658 4
      vertex 16.001 18.6104 6
      vertex 16.001 18.6104 4
    endloop
  endfacet
  facet normal 0 1 -0
    outer loop
      vertex 16.001 20.4658 4
      vertex 6.1872 20.4658 6
      vertex 16.001 20.4658 6
    endloop
  endfacet
  facet normal 0 1 0
    outer loop
      vertex 6.1872 20.4658 6
      vertex 16.001 20.4658 4
      vertex 6.1872 20.4658 4
    endloop
  endfacet
  facet normal -1 0 0
    outer loop
      vertex 6.1872 18.6104 4
      vertex 6.1872 20.4658 6
      vertex 6.1872 20.4658 4
    endloop
  endfacet
  facet normal -1 -0 0
    outer loop
      vertex 6.1872 20.4658 6
      vertex 6.1872 18.6104 4
      vertex 6.1872 18.6104 6
    endloop
  endfacet
  facet normal 0 -1 0
    outer loop
      vertex 6.1872 18.6104 4
      vertex 9.88968 18.6104 6
      vertex 6.1872 18.6104 6
    endloop
  endfacet
  facet normal 0 -1 -0
    outer loop
      vertex 9.88968 18.6104 6
      vertex 6.1872 18.6104 4
      vertex 9.88968 18.6104 4
    endloop
  endfacet
  facet normal -1 0 0
    outer loop
      vertex 9.88968 9 4
      vertex 9.88968 18.6104 6
      vertex 9.88968 18.6104 4
    endloop
  endfacet
  facet normal -1 -0 0
    outer loop
      vertex 9.88968 18.6104 6
      vertex 9.88968 9 4
      vertex 9.88968 9 6
    endloop
  endfacet
  facet normal 0 -1 0
    outer loop
      vertex 9.88968 9 4
      vertex 12.2903 9 6
      vertex 9.88968 9 6
    endloop
  endfacet
  facet normal 0 -1 -0
    outer loop
      vertex 12.2903 9 6
      vertex 9.88968 9 4
      vertex 12.2903 9 4
    endloop
  endfacet
  facet normal 1 -0 0
    outer loop
      vertex 12.2903 9 6
      vertex 12.2903 18.6104 4
      vertex 12.2903 18.6104 6
    endloop
  endfacet
  facet normal 1 0 0
    outer loop
      vertex 12.2903 18.6104 4
      vertex 12.2903 9 6
      vertex 12.2903 9 4
    endloop
  endfacet
  facet normal 0 -1 0
    outer loop
      vertex 18.7765 11.9296 4
      vertex 23.1463 11.9296 6
      vertex 18.7765 11.9296 6
    endloop
  endfacet
  facet normal 0 -1 -0
    outer loop
      vertex 23.1463 11.9296 6
      vertex 18.7765 11.9296 4
      vertex 23.1463 11.9296 4
    endloop
  endfacet
  facet normal -0.944666 -0.328034 0
    outer loop
      vertex 24.1636 9 4
      vertex 23.1463 11.9296 6
      vertex 23.1463 11.9296 4
    endloop
  endfacet
  facet normal -0.944666 -0.328034 0
    outer loop
      vertex 23.1463 11.9296 6
      vertex 24.1636 9 4
      vertex 24.1636 9 6
    endloop
  endfacet
  facet normal 0 -1 0
    outer loop
      vertex 24.1636 9 4
      vertex 26.5397 9 6
      vertex 24.1636 9 6
    endloop
  endfacet
  facet normal 0 -1 -0
    outer loop
      vertex 26.5397 9 6
      vertex 24.1636 9 4
      vertex 26.5397 9 4
    endloop
  endfacet
  facet normal 0.939872 0.341527 0
    outer loop
      vertex 26.5397 9 6
      vertex 22.3733 20.4658 4
      vertex 22.3733 20.4658 6
    endloop
  endfacet
  facet normal 0.939872 0.341527 0
    outer loop
      vertex 22.3733 20.4658 4
      vertex 26.5397 9 6
      vertex 26.5397 9 4
    endloop
  endfacet
  facet normal 0 1 -0
    outer loop
      vertex 22.3733 20.4658 4
      vertex 19.5414 20.4658 6
      vertex 22.3733 20.4658 6
    endloop
  endfacet
  facet normal 0 1 0
    outer loop
      vertex 19.5414 20.4658 6
      vertex 22.3733 20.4658 4
      vertex 19.5414 20.4658 4
    endloop
  endfacet
  facet normal -0.939442 0.342707 0
    outer loop
      vertex 15.3587 9 4
      vertex 19.5414 20.4658 6
      vertex 19.5414 20.4658 4
    endloop
  endfacet
  facet normal -0.939442 0.342707 0
    outer loop
      vertex 19.5414 20.4658 6
      vertex 15.3587 9 4
      vertex 15.3587 9 6
    endloop
  endfacet
  facet normal 0 -1 0
    outer loop
      vertex 15.3587 9 4
      vertex 17.7593 9 6
      vertex 15.3587 9 6
    endloop
  endfacet
  facet normal 0 -1 -0
    outer loop
      vertex 17.7593 9 6
      vertex 15.3587 9 4
      vertex 17.7593 9 4
    endloop
  endfacet
  facet normal 0.944676 -0.328005 0
    outer loop
      vertex 17.7593 9 6
      vertex 18.7765 11.9296 4
      vertex 18.7765 11.9296 6
    endloop
  endfacet
  facet normal 0.944676 -0.328005 0
    outer loop
      vertex 18.7765 11.9296 4
      vertex 17.7593 9 6
      vertex 17.7593 9 4
    endloop
  endfacet
  facet normal 0.945914 -0.324416 0
    outer loop
      vertex 19.3135 13.736 6
      vertex 19.8832 15.3971 4
      vertex 19.8832 15.3971 6
    endloop
  endfacet
  facet normal 0.945914 -0.324416 0
    outer loop
      vertex 19.8832 15.3971 4
      vertex 19.3135 13.736 6
      vertex 19.3135 13.736 4
    endloop
  endfacet
  facet normal 0.946423 -0.322929 0
    outer loop
      vertex 19.8832 15.3971 6
      vertex 20.3063 16.6371 4
      vertex 20.3063 16.6371 6
    endloop
  endfacet
  facet normal 0.946423 -0.322929 0
    outer loop
      vertex 20.3063 16.6371 4
      vertex 19.8832 15.3971 6
      vertex 19.8832 15.3971 4
    endloop
  endfacet
  facet normal 0.947368 -0.320147 0
    outer loop
      vertex 20.3063 16.6371 6
      vertex 20.583 17.4559 4
      vertex 20.583 17.4559 6
    endloop
  endfacet
  facet normal 0.947368 -0.320147 0
    outer loop
      vertex 20.583 17.4559 4
      vertex 20.3063 16.6371 6
      vertex 20.3063 16.6371 4
    endloop
  endfacet
  facet normal 0.950366 -0.311133 0
    outer loop
      vertex 20.583 17.4559 6
      vertex 20.7132 17.8536 4
      vertex 20.7132 17.8536 6
    endloop
  endfacet
  facet normal 0.950366 -0.311133 0
    outer loop
      vertex 20.7132 17.8536 4
      vertex 20.583 17.4559 6
      vertex 20.583 17.4559 4
    endloop
  endfacet
  facet normal 0.957435 -0.28865 0
    outer loop
      vertex 20.7132 17.8536 6
      vertex 20.7681 18.0357 4
      vertex 20.7681 18.0357 6
    endloop
  endfacet
  facet normal 0.957435 -0.28865 0
    outer loop
      vertex 20.7681 18.0357 4
      vertex 20.7132 17.8536 6
      vertex 20.7132 17.8536 4
    endloop
  endfacet
  facet normal 0.958849 -0.283917 0
    outer loop
      vertex 20.7681 18.0357 6
      vertex 20.819 18.2076 4
      vertex 20.819 18.2076 6
    endloop
  endfacet
  facet normal 0.958849 -0.283917 0
    outer loop
      vertex 20.819 18.2076 4
      vertex 20.7681 18.0357 6
      vertex 20.7681 18.0357 4
    endloop
  endfacet
  facet normal 0.960577 -0.278015 0
    outer loop
      vertex 20.819 18.2076 6
      vertex 20.8658 18.3693 4
      vertex 20.8658 18.3693 6
    endloop
  endfacet
  facet normal 0.960577 -0.278015 0
    outer loop
      vertex 20.8658 18.3693 4
      vertex 20.819 18.2076 6
      vertex 20.819 18.2076 4
    endloop
  endfacet
  facet normal 0.962382 -0.271701 0
    outer loop
      vertex 20.8658 18.3693 6
      vertex 20.9086 18.5209 4
      vertex 20.9086 18.5209 6
    endloop
  endfacet
  facet normal 0.962382 -0.271701 0
    outer loop
      vertex 20.9086 18.5209 4
      vertex 20.8658 18.3693 6
      vertex 20.8658 18.3693 4
    endloop
  endfacet
  facet normal 0.964962 -0.262388 0
    outer loop
      vertex 20.9086 18.5209 6
      vertex 20.9573 18.7 4
      vertex 20.9573 18.7 6
    endloop
  endfacet
  facet normal 0.964962 -0.262388 0
    outer loop
      vertex 20.9573 18.7 4
      vertex 20.9086 18.5209 6
      vertex 20.9086 18.5209 4
    endloop
  endfacet
  facet normal -0.956637 -0.291284 0
    outer loop
      vertex 21.1283 18.1384 4
      vertex 20.9573 18.7 6
      vertex 20.9573 18.7 4
    endloop
  endfacet
  facet normal -0.956637 -0.291284 0
    outer loop
      vertex 20.9573 18.7 6
      vertex 21.1283 18.1384 4
      vertex 21.1283 18.1384 6
    endloop
  endfacet
  facet normal -0.953505 -0.301379 0
    outer loop
      vertex 21.4781 17.0317 4
      vertex 21.1283 18.1384 6
      vertex 21.1283 18.1384 4
    endloop
  endfacet
  facet normal -0.953505 -0.301379 0
    outer loop
      vertex 21.1283 18.1384 6
      vertex 21.4781 17.0317 4
      vertex 21.4781 17.0317 6
    endloop
  endfacet
  facet normal -0.945845 -0.324619 0
    outer loop
      vertex 22.6092 13.736 4
      vertex 21.4781 17.0317 6
      vertex 21.4781 17.0317 4
    endloop
  endfacet
  facet normal -0.945845 -0.324619 0
    outer loop
      vertex 21.4781 17.0317 6
      vertex 22.6092 13.736 4
      vertex 22.6092 13.736 6
    endloop
  endfacet
  facet normal 0 1 -0
    outer loop
      vertex 22.6092 13.736 4
      vertex 19.3135 13.736 6
      vertex 22.6092 13.736 6
    endloop
  endfacet
  facet normal 0 1 0
    outer loop
      vertex 19.3135 13.736 6
      vertex 22.6092 13.736 4
      vertex 19.3135 13.736 4
    endloop
  endfacet
  facet normal 0 -1 0
    outer loop
      vertex 30.4952 13.3536 4
      vertex 33.3108 13.3536 6
      vertex 30.4952 13.3536 6
    endloop
  endfacet
  facet normal 0 -1 -0
    outer loop
      vertex 33.3108 13.3536 6
      vertex 30.4952 13.3536 4
      vertex 33.3108 13.3536 4
    endloop
  endfacet
  facet normal -0.853241 -0.521517 0
    outer loop
      vertex 35.9718 9 4
      vertex 33.3108 13.3536 6
      vertex 33.3108 13.3536 4
    endloop
  endfacet
  facet normal -0.853241 -0.521517 0
    outer loop
      vertex 33.3108 13.3536 6
      vertex 35.9718 9 4
      vertex 35.9718 9 6
    endloop
  endfacet
  facet normal 0 -1 0
    outer loop
      vertex 35.9718 9 4
      vertex 38.6735 9 6
      vertex 35.9718 9 6
    endloop
  endfacet
  facet normal 0 -1 -0
    outer loop
      vertex 38.6735 9 6
      vertex 35.9718 9 4
      vertex 38.6735 9 4
    endloop
  endfacet
  facet normal 0.840893 0.541202 0
    outer loop
      vertex 38.6735 9 6
      vertex 35.573 13.8174 4
      vertex 35.573 13.8174 6
    endloop
  endfacet
  facet normal 0.840893 0.541202 0
    outer loop
      vertex 35.573 13.8174 4
      vertex 38.6735 9 6
      vertex 38.6735 9 4
    endloop
  endfacet
  facet normal 0.303353 -0.952878 0
    outer loop
      vertex 35.573 13.8174 4
      vertex 36.1249 13.9931 6
      vertex 35.573 13.8174 6
    endloop
  endfacet
  facet normal 0.303353 -0.952878 0
    outer loop
      vertex 36.1249 13.9931 6
      vertex 35.573 13.8174 4
      vertex 36.1249 13.9931 4
    endloop
  endfacet
  facet normal 0.453942 -0.891031 0
    outer loop
      vertex 36.1249 13.9931 4
      vertex 36.6166 14.2436 6
      vertex 36.1249 13.9931 6
    endloop
  endfacet
  facet normal 0.453942 -0.891031 0
    outer loop
      vertex 36.6166 14.2436 6
      vertex 36.1249 13.9931 4
      vertex 36.6166 14.2436 4
    endloop
  endfacet
  facet normal 0.601597 -0.7988 0
    outer loop
      vertex 36.6166 14.2436 4
      vertex 37.0484 14.5688 6
      vertex 36.6166 14.2436 6
    endloop
  endfacet
  facet normal 0.601597 -0.7988 0
    outer loop
      vertex 37.0484 14.5688 6
      vertex 36.6166 14.2436 4
      vertex 37.0484 14.5688 4
    endloop
  endfacet
  facet normal 0.732454 -0.680816 0
    outer loop
      vertex 37.0484 14.5688 6
      vertex 37.4202 14.9688 4
      vertex 37.4202 14.9688 6
    endloop
  endfacet
  facet normal 0.732454 -0.680816 0
    outer loop
      vertex 37.4202 14.9688 4
      vertex 37.0484 14.5688 6
      vertex 37.0484 14.5688 4
    endloop
  endfacet
  facet normal 0.837272 -0.546786 0
    outer loop
      vertex 37.4202 14.9688 6
      vertex 37.7193 15.4268 4
      vertex 37.7193 15.4268 6
    endloop
  endfacet
  facet normal 0.837272 -0.546786 0
    outer loop
      vertex 37.7193 15.4268 4
      vertex 37.4202 14.9688 6
      vertex 37.4202 14.9688 4
    endloop
  endfacet
  facet normal 0.919373 -0.393386 0
    outer loop
      vertex 37.7193 15.4268 6
      vertex 37.9329 15.926 4
      vertex 37.9329 15.926 6
    endloop
  endfacet
  facet normal 0.919373 -0.393386 0
    outer loop
      vertex 37.9329 15.926 4
      vertex 37.7193 15.4268 6
      vertex 37.7193 15.4268 4
    endloop
  endfacet
  facet normal 0.972995 -0.230825 0
    outer loop
      vertex 37.9329 15.926 6
      vertex 38.0611 16.4664 4
      vertex 38.0611 16.4664 6
    endloop
  endfacet
  facet normal 0.972995 -0.230825 0
    outer loop
      vertex 38.0611 16.4664 4
      vertex 37.9329 15.926 6
      vertex 37.9329 15.926 4
    endloop
  endfacet
  facet normal 0.997316 -0.0732211 0
    outer loop
      vertex 38.0611 16.4664 6
      vertex 38.1038 17.048 4
      vertex 38.1038 17.048 6
    endloop
  endfacet
  facet normal 0.997316 -0.0732211 0
    outer loop
      vertex 38.1038 17.048 4
      vertex 38.0611 16.4664 6
      vertex 38.0611 16.4664 4
    endloop
  endfacet
  facet normal 0.996021 0.0891157 0
    outer loop
      vertex 38.1038 17.048 6
      vertex 38.0342 17.8259 4
      vertex 38.0342 17.8259 6
    endloop
  endfacet
  facet normal 0.996021 0.0891157 0
    outer loop
      vertex 38.0342 17.8259 4
      vertex 38.1038 17.048 6
      vertex 38.1038 17.048 4
    endloop
  endfacet
  facet normal 0.956048 0.293209 0
    outer loop
      vertex 38.0342 17.8259 6
      vertex 37.8251 18.5077 4
      vertex 37.8251 18.5077 6
    endloop
  endfacet
  facet normal 0.956048 0.293209 0
    outer loop
      vertex 37.8251 18.5077 4
      vertex 38.0342 17.8259 6
      vertex 38.0342 17.8259 4
    endloop
  endfacet
  facet normal 0.859403 0.511298 0
    outer loop
      vertex 37.8251 18.5077 6
      vertex 37.4767 19.0933 4
      vertex 37.4767 19.0933 6
    endloop
  endfacet
  facet normal 0.859403 0.511298 0
    outer loop
      vertex 37.4767 19.0933 4
      vertex 37.8251 18.5077 6
      vertex 37.8251 18.5077 4
    endloop
  endfacet
  facet normal 0.708336 0.705876 0
    outer loop
      vertex 37.4767 19.0933 6
      vertex 36.9889 19.5828 4
      vertex 36.9889 19.5828 6
    endloop
  endfacet
  facet normal 0.708336 0.705876 0
    outer loop
      vertex 36.9889 19.5828 4
      vertex 37.4767 19.0933 6
      vertex 37.4767 19.0933 4
    endloop
  endfacet
  facet normal 0.531346 0.847155 -0
    outer loop
      vertex 36.9889 19.5828 4
      vertex 36.373 19.9691 6
      vertex 36.9889 19.5828 6
    endloop
  endfacet
  facet normal 0.531346 0.847155 0
    outer loop
      vertex 36.373 19.9691 6
      vertex 36.9889 19.5828 4
      vertex 36.373 19.9691 4
    endloop
  endfacet
  facet normal 0.352313 0.935882 -0
    outer loop
      vertex 36.373 19.9691 4
      vertex 35.6401 20.245 6
      vertex 36.373 19.9691 6
    endloop
  endfacet
  facet normal 0.352313 0.935882 0
    outer loop
      vertex 35.6401 20.245 6
      vertex 36.373 19.9691 4
      vertex 35.6401 20.245 4
    endloop
  endfacet
  facet normal 0.191272 0.981537 -0
    outer loop
      vertex 35.6401 20.245 4
      vertex 34.7903 20.4106 6
      vertex 35.6401 20.245 6
    endloop
  endfacet
  facet normal 0.191272 0.981537 0
    outer loop
      vertex 34.7903 20.4106 6
      vertex 35.6401 20.245 4
      vertex 34.7903 20.4106 4
    endloop
  endfacet
  facet normal 0.0569969 0.998374 -0
    outer loop
      vertex 34.7903 20.4106 4
      vertex 33.8234 20.4658 6
      vertex 34.7903 20.4106 6
    endloop
  endfacet
  facet normal 0.0569969 0.998374 0
    outer loop
      vertex 33.8234 20.4658 6
      vertex 34.7903 20.4106 4
      vertex 33.8234 20.4658 4
    endloop
  endfacet
  facet normal 0 1 -0
    outer loop
      vertex 33.8234 20.4658 4
      vertex 28.0946 20.4658 6
      vertex 33.8234 20.4658 6
    endloop
  endfacet
  facet normal 0 1 0
    outer loop
      vertex 28.0946 20.4658 6
      vertex 33.8234 20.4658 4
      vertex 28.0946 20.4658 4
    endloop
  endfacet
  facet normal -1 0 0
    outer loop
      vertex 28.0946 9 4
      vertex 28.0946 20.4658 6
      vertex 28.0946 20.4658 4
    endloop
  endfacet
  facet normal -1 -0 0
    outer loop
      vertex 28.0946 20.4658 6
      vertex 28.0946 9 4
      vertex 28.0946 9 6
    endloop
  endfacet
  facet normal 0 -1 0
    outer loop
      vertex 28.0946 9 4
      vertex 30.4952 9 6
      vertex 28.0946 9 6
    endloop
  endfacet
  facet normal 0 -1 -0
    outer loop
      vertex 30.4952 9 6
      vertex 28.0946 9 4
      vertex 30.4952 9 4
    endloop
  endfacet
  facet normal 1 -0 0
    outer loop
      vertex 30.4952 9 6
      vertex 30.4952 13.3536 4
      vertex 30.4952 13.3536 6
    endloop
  endfacet
  facet normal 1 0 0
    outer loop
      vertex 30.4952 13.3536 4
      vertex 30.4952 9 6
      vertex 30.4952 9 4
    endloop
  endfacet
  facet normal 1 -0 0
    outer loop
      vertex 30.4952 15.2171 6
      vertex 30.4952 18.6023 4
      vertex 30.4952 18.6023 6
    endloop
  endfacet
  facet normal 1 0 0
    outer loop
      vertex 30.4952 18.6023 4
      vertex 30.4952 15.2171 6
      vertex 30.4952 15.2171 4
    endloop
  endfacet
  facet normal 0 -1 0
    outer loop
      vertex 30.4952 18.6023 4
      vertex 33.5712 18.6023 6
      vertex 30.4952 18.6023 6
    endloop
  endfacet
  facet normal 0 -1 -0
    outer loop
      vertex 33.5712 18.6023 6
      vertex 30.4952 18.6023 4
      vertex 33.5712 18.6023 4
    endloop
  endfacet
  facet normal -0.110915 -0.99383 0
    outer loop
      vertex 33.5712 18.6023 4
      vertex 34.4968 18.499 6
      vertex 33.5712 18.6023 6
    endloop
  endfacet
  facet normal -0.110915 -0.99383 -0
    outer loop
      vertex 34.4968 18.499 6
      vertex 33.5712 18.6023 4
      vertex 34.4968 18.499 4
    endloop
  endfacet
  facet normal -0.424167 -0.905584 0
    outer loop
      vertex 34.4968 18.499 4
      vertex 35.158 18.1893 6
      vertex 34.4968 18.499 6
    endloop
  endfacet
  facet normal -0.424167 -0.905584 -0
    outer loop
      vertex 35.158 18.1893 6
      vertex 34.4968 18.499 4
      vertex 35.158 18.1893 4
    endloop
  endfacet
  facet normal -0.792904 -0.609347 0
    outer loop
      vertex 35.5547 17.6731 4
      vertex 35.158 18.1893 6
      vertex 35.158 18.1893 4
    endloop
  endfacet
  facet normal -0.792904 -0.609347 0
    outer loop
      vertex 35.158 18.1893 6
      vertex 35.5547 17.6731 4
      vertex 35.5547 17.6731 6
    endloop
  endfacet
  facet normal -0.983678 -0.179939 0
    outer loop
      vertex 35.6869 16.9504 4
      vertex 35.5547 17.6731 6
      vertex 35.5547 17.6731 4
    endloop
  endfacet
  facet normal -0.983678 -0.179939 0
    outer loop
      vertex 35.5547 17.6731 6
      vertex 35.6869 16.9504 4
      vertex 35.6869 16.9504 6
    endloop
  endfacet
  facet normal -0.996512 0.0834492 0
    outer loop
      vertex 35.6544 16.5623 4
      vertex 35.6869 16.9504 6
      vertex 35.6869 16.9504 4
    endloop
  endfacet
  facet normal -0.996512 0.0834492 0
    outer loop
      vertex 35.6869 16.9504 6
      vertex 35.6544 16.5623 4
      vertex 35.6544 16.5623 6
    endloop
  endfacet
  facet normal -0.961598 0.274461 0
    outer loop
      vertex 35.5567 16.22 4
      vertex 35.6544 16.5623 6
      vertex 35.6544 16.5623 4
    endloop
  endfacet
  facet normal -0.961598 0.274461 0
    outer loop
      vertex 35.6544 16.5623 6
      vertex 35.5567 16.22 4
      vertex 35.5567 16.22 6
    endloop
  endfacet
  facet normal -0.876684 0.481067 0
    outer loop
      vertex 35.394 15.9235 4
      vertex 35.5567 16.22 6
      vertex 35.5567 16.22 4
    endloop
  endfacet
  facet normal -0.876684 0.481067 0
    outer loop
      vertex 35.5567 16.22 6
      vertex 35.394 15.9235 4
      vertex 35.394 15.9235 6
    endloop
  endfacet
  facet normal -0.740087 0.672511 0
    outer loop
      vertex 35.1661 15.6727 4
      vertex 35.394 15.9235 6
      vertex 35.394 15.9235 4
    endloop
  endfacet
  facet normal -0.740087 0.672511 0
    outer loop
      vertex 35.394 15.9235 6
      vertex 35.1661 15.6727 4
      vertex 35.1661 15.6727 6
    endloop
  endfacet
  facet normal -0.565192 0.824959 0
    outer loop
      vertex 35.1661 15.6727 4
      vertex 34.8752 15.4734 6
      vertex 35.1661 15.6727 6
    endloop
  endfacet
  facet normal -0.565192 0.824959 0
    outer loop
      vertex 34.8752 15.4734 6
      vertex 35.1661 15.6727 4
      vertex 34.8752 15.4734 4
    endloop
  endfacet
  facet normal -0.375112 0.92698 0
    outer loop
      vertex 34.8752 15.4734 4
      vertex 34.5233 15.331 6
      vertex 34.8752 15.4734 6
    endloop
  endfacet
  facet normal -0.375112 0.92698 0
    outer loop
      vertex 34.5233 15.331 6
      vertex 34.8752 15.4734 4
      vertex 34.5233 15.331 4
    endloop
  endfacet
  facet normal -0.202496 0.979283 0
    outer loop
      vertex 34.5233 15.331 4
      vertex 34.1103 15.2456 6
      vertex 34.5233 15.331 6
    endloop
  endfacet
  facet normal -0.202496 0.979283 0
    outer loop
      vertex 34.1103 15.2456 6
      vertex 34.5233 15.331 4
      vertex 34.1103 15.2456 4
    endloop
  endfacet
  facet normal -0.0600308 0.998197 0
    outer loop
      vertex 34.1103 15.2456 4
      vertex 33.6364 15.2171 6
      vertex 34.1103 15.2456 6
    endloop
  endfacet
  facet normal -0.0600308 0.998197 0
    outer loop
      vertex 33.6364 15.2171 6
      vertex 34.1103 15.2456 4
      vertex 33.6364 15.2171 4
    endloop
  endfacet
  facet normal 0 1 -0
    outer loop
      vertex 33.6364 15.2171 4
      vertex 30.4952 15.2171 6
      vertex 33.6364 15.2171 6
    endloop
  endfacet
  facet normal 0 1 0
    outer loop
      vertex 30.4952 15.2171 6
      vertex 33.6364 15.2171 4
      vertex 30.4952 15.2171 4
    endloop
  endfacet
  facet normal 0 0 1
    outer loop
      vertex 51.2791 14.7858 6
      vertex 48.7749 15.6634 6
      vertex 48.8298 14.7858 6
    endloop
  endfacet
  facet normal 0 0 1
    outer loop
      vertex 49.7452 19.0742 6
      vertex 48.6101 16.4407 6
      vertex 48.7749 15.6634 6
    endloop
  endfacet
  facet normal 0 0 1
    outer loop
      vertex 49.7452 19.0742 6
      vertex 48.3354 17.1179 6
      vertex 48.6101 16.4407 6
    endloop
  endfacet
  facet normal 0 0 1
    outer loop
      vertex 49.7452 19.0742 6
      vertex 47.9509 17.6948 6
      vertex 48.3354 17.1179 6
    endloop
  endfacet
  facet normal 0 0 1
    outer loop
      vertex 47.4672 18.1559 6
      vertex 48.9037 19.7578 6
      vertex 47.9133 20.246 6
    endloop
  endfacet
  facet normal 0 0 1
    outer loop
      vertex 48.9037 19.7578 6
      vertex 47.4672 18.1559 6
      vertex 47.9509 17.6948 6
    endloop
  endfacet
  facet normal 0 0 1
    outer loop
      vertex 47.9133 20.246 6
      vertex 46.8951 18.4852 6
      vertex 47.4672 18.1559 6
    endloop
  endfacet
  facet normal 0 0 1
    outer loop
      vertex 46.7738 20.539 6
      vertex 46.8951 18.4852 6
      vertex 47.9133 20.246 6
    endloop
  endfacet
  facet normal 0 0 1
    outer loop
      vertex 46.7738 20.539 6
      vertex 46.2344 18.6828 6
      vertex 46.8951 18.4852 6
    endloop
  endfacet
  facet normal 0 0 1
    outer loop
      vertex 45.4853 20.6366 6
      vertex 46.2344 18.6828 6
      vertex 46.7738 20.539 6
    endloop
  endfacet
  facet normal 0 0 1
    outer loop
      vertex 45.4853 20.6366 6
      vertex 45.4853 18.7487 6
      vertex 46.2344 18.6828 6
    endloop
  endfacet
  facet normal 0 0 1
    outer loop
      vertex 45.4853 20.6366 6
      vertex 44.7254 18.6833 6
      vertex 45.4853 18.7487 6
    endloop
  endfacet
  facet normal -0 0 1
    outer loop
      vertex 44.197 20.54 6
      vertex 44.7254 18.6833 6
      vertex 45.4853 20.6366 6
    endloop
  endfacet
  facet normal 0 0 1
    outer loop
      vertex 44.197 20.54 6
      vertex 44.0571 18.4873 6
      vertex 44.7254 18.6833 6
    endloop
  endfacet
  facet normal -0 0 1
    outer loop
      vertex 43.0583 20.2501 6
      vertex 44.0571 18.4873 6
      vertex 44.197 20.54 6
    endloop
  endfacet
  facet normal 0 0 1
    outer loop
      vertex 44.0571 18.4873 6
      vertex 43.0583 20.2501 6
      vertex 43.4804 18.1605 6
    endloop
  endfacet
  facet normal -0 0 1
    outer loop
      vertex 42.0691 19.7669 6
      vertex 43.4804 18.1605 6
      vertex 43.0583 20.2501 6
    endloop
  endfacet
  facet normal 0 0 1
    outer loop
      vertex 43.4804 18.1605 6
      vertex 42.0691 19.7669 6
      vertex 42.9952 17.703 6
    endloop
  endfacet
  facet normal -0 0 1
    outer loop
      vertex 41.2294 19.0904 6
      vertex 42.9952 17.703 6
      vertex 42.0691 19.7669 6
    endloop
  endfacet
  facet normal 0 0 1
    outer loop
      vertex 42.9952 17.703 6
      vertex 41.2294 19.0904 6
      vertex 42.6107 17.1286 6
    endloop
  endfacet
  facet normal -0 0 1
    outer loop
      vertex 40.56 18.2416 6
      vertex 42.6107 17.1286 6
      vertex 41.2294 19.0904 6
    endloop
  endfacet
  facet normal 0 0 1
    outer loop
      vertex 42.6107 17.1286 6
      vertex 40.56 18.2416 6
      vertex 42.3361 16.4509 6
    endloop
  endfacet
  facet normal -0 0 1
    outer loop
      vertex 40.0819 17.2412 6
      vertex 42.3361 16.4509 6
      vertex 40.56 18.2416 6
    endloop
  endfacet
  facet normal 0 -0 1
    outer loop
      vertex 39.7954 13.4759 6
      vertex 42.1164 14.7858 6
      vertex 39.6995 14.7858 6
    endloop
  endfacet
  facet normal 0 0 1
    outer loop
      vertex 39.7951 16.0893 6
      vertex 42.3361 16.4509 6
      vertex 40.0819 17.2412 6
    endloop
  endfacet
  facet normal 0 -0 1
    outer loop
      vertex 40.083 12.313 6
      vertex 42.1164 14.7858 6
      vertex 39.7954 13.4759 6
    endloop
  endfacet
  facet normal 0 0 1
    outer loop
      vertex 42.3361 16.4509 6
      vertex 39.7951 16.0893 6
      vertex 42.1713 15.67 6
    endloop
  endfacet
  facet normal 0 -0 1
    outer loop
      vertex 40.5623 11.297 6
      vertex 42.1164 14.7858 6
      vertex 40.083 12.313 6
    endloop
  endfacet
  facet normal 0 0 1
    outer loop
      vertex 39.6995 14.7858 6
      vertex 42.1713 15.67 6
      vertex 39.7951 16.0893 6
    endloop
  endfacet
  facet normal 0 0 1
    outer loop
      vertex 42.1164 14.7858 6
      vertex 41.2334 10.4281 6
      vertex 42.0734 9.73213 6
    endloop
  endfacet
  facet normal 0 0 1
    outer loop
      vertex 42.1713 15.67 6
      vertex 39.6995 14.7858 6
      vertex 42.1164 14.7858 6
    endloop
  endfacet
  facet normal 0 0 1
    outer loop
      vertex 42.1164 14.7858 6
      vertex 40.5623 11.297 6
      vertex 41.2334 10.4281 6
    endloop
  endfacet
  facet normal -0 0 1
    outer loop
      vertex 48.7749 15.6634 6
      vertex 51.2791 14.7858 6
      vertex 51.1832 16.0761 6
    endloop
  endfacet
  facet normal 0 0 1
    outer loop
      vertex 51.2791 14.7858 6
      vertex 48.8298 14.7858 6
      vertex 51.2349 13.9176 6
    endloop
  endfacet
  facet normal 0 0 1
    outer loop
      vertex 48.7749 15.6634 6
      vertex 51.1832 16.0761 6
      vertex 50.8956 17.2209 6
    endloop
  endfacet
  facet normal 0 0 1
    outer loop
      vertex 48.7751 13.8688 6
      vertex 51.2349 13.9176 6
      vertex 48.8298 14.7858 6
    endloop
  endfacet
  facet normal 0 0 1
    outer loop
      vertex 51.2349 13.9176 6
      vertex 48.7751 13.8688 6
      vertex 51.1021 13.1033 6
    endloop
  endfacet
  facet normal 0 0 1
    outer loop
      vertex 48.7749 15.6634 6
      vertex 50.8956 17.2209 6
      vertex 50.4163 18.2203 6
    endloop
  endfacet
  facet normal 0 0 1
    outer loop
      vertex 48.6111 13.0627 6
      vertex 51.1021 13.1033 6
      vertex 48.7751 13.8688 6
    endloop
  endfacet
  facet normal 0 0 1
    outer loop
      vertex 48.7749 15.6634 6
      vertex 50.4163 18.2203 6
      vertex 49.7452 19.0742 6
    endloop
  endfacet
  facet normal 0 0 1
    outer loop
      vertex 51.1021 13.1033 6
      vertex 48.6111 13.0627 6
      vertex 50.8809 12.343 6
    endloop
  endfacet
  facet normal 0 0 1
    outer loop
      vertex 50.8809 12.343 6
      vertex 48.6111 13.0627 6
      vertex 50.5711 11.6365 6
    endloop
  endfacet
  facet normal 0 0 1
    outer loop
      vertex 47.9509 17.6948 6
      vertex 49.7452 19.0742 6
      vertex 48.9037 19.7578 6
    endloop
  endfacet
  facet normal -0 0 1
    outer loop
      vertex 48.3377 12.3674 6
      vertex 50.5711 11.6365 6
      vertex 48.6111 13.0627 6
    endloop
  endfacet
  facet normal 0 0 1
    outer loop
      vertex 50.5711 11.6365 6
      vertex 48.3377 12.3674 6
      vertex 50.179 10.997 6
    endloop
  endfacet
  facet normal -0 0 1
    outer loop
      vertex 47.955 11.783 6
      vertex 50.179 10.997 6
      vertex 48.3377 12.3674 6
    endloop
  endfacet
  facet normal 0 0 1
    outer loop
      vertex 50.179 10.997 6
      vertex 47.955 11.783 6
      vertex 49.7106 10.4373 6
    endloop
  endfacet
  facet normal 0 0 1
    outer loop
      vertex 49.7106 10.4373 6
      vertex 47.955 11.783 6
      vertex 49.1659 9.95743 6
    endloop
  endfacet
  facet normal -0 0 1
    outer loop
      vertex 47.4716 11.3202 6
      vertex 49.1659 9.95743 6
      vertex 47.955 11.783 6
    endloop
  endfacet
  facet normal 0 0 1
    outer loop
      vertex 49.1659 9.95743 6
      vertex 47.4716 11.3202 6
      vertex 48.5449 9.5574 6
    endloop
  endfacet
  facet normal 0 0 1
    outer loop
      vertex 48.5449 9.5574 6
      vertex 47.4716 11.3202 6
      vertex 47.8583 9.24235 6
    endloop
  endfacet
  facet normal -0 0 1
    outer loop
      vertex 46.8961 10.9896 6
      vertex 47.8583 9.24235 6
      vertex 47.4716 11.3202 6
    endloop
  endfacet
  facet normal 0 0 1
    outer loop
      vertex 47.8583 9.24235 6
      vertex 46.8961 10.9896 6
      vertex 47.1168 9.01731 6
    endloop
  endfacet
  facet normal -0 0 1
    outer loop
      vertex 46.2286 10.7912 6
      vertex 47.1168 9.01731 6
      vertex 46.8961 10.9896 6
    endloop
  endfacet
  facet normal 0 0 1
    outer loop
      vertex 47.1168 9.01731 6
      vertex 46.2286 10.7912 6
      vertex 46.3204 8.88229 6
    endloop
  endfacet
  facet normal -0 0 1
    outer loop
      vertex 45.469 10.7251 6
      vertex 46.3204 8.88229 6
      vertex 46.2286 10.7912 6
    endloop
  endfacet
  facet normal 0 0 1
    outer loop
      vertex 45.469 10.7251 6
      vertex 45.469 8.83728 6
      vertex 46.3204 8.88229 6
    endloop
  endfacet
  facet normal 0 0 1
    outer loop
      vertex 44.7328 10.793 6
      vertex 45.469 8.83728 6
      vertex 45.469 10.7251 6
    endloop
  endfacet
  facet normal 0 0 1
    outer loop
      vertex 44.7328 10.793 6
      vertex 44.1912 8.93671 6
      vertex 45.469 8.83728 6
    endloop
  endfacet
  facet normal 0 0 1
    outer loop
      vertex 44.0785 10.9967 6
      vertex 44.1912 8.93671 6
      vertex 44.7328 10.793 6
    endloop
  endfacet
  facet normal 0 0 1
    outer loop
      vertex 43.0593 9.23499 6
      vertex 44.0785 10.9967 6
      vertex 43.5061 11.3362 6
    endloop
  endfacet
  facet normal 0 0 1
    outer loop
      vertex 44.0785 10.9967 6
      vertex 43.0593 9.23499 6
      vertex 44.1912 8.93671 6
    endloop
  endfacet
  facet normal 0 0 1
    outer loop
      vertex 42.0734 9.73213 6
      vertex 43.5061 11.3362 6
      vertex 43.0156 11.8115 6
    endloop
  endfacet
  facet normal 0 0 1
    outer loop
      vertex 42.0734 9.73213 6
      vertex 43.0156 11.8115 6
      vertex 42.6222 12.4048 6
    endloop
  endfacet
  facet normal 0 0 1
    outer loop
      vertex 42.0734 9.73213 6
      vertex 42.6222 12.4048 6
      vertex 42.3412 13.0982 6
    endloop
  endfacet
  facet normal 0 0 1
    outer loop
      vertex 42.0734 9.73213 6
      vertex 42.3412 13.0982 6
      vertex 42.1726 13.8919 6
    endloop
  endfacet
  facet normal 0 0 1
    outer loop
      vertex 43.5061 11.3362 6
      vertex 42.0734 9.73213 6
      vertex 43.0593 9.23499 6
    endloop
  endfacet
  facet normal 0 0 1
    outer loop
      vertex 42.0734 9.73213 6
      vertex 42.1726 13.8919 6
      vertex 42.1164 14.7858 6
    endloop
  endfacet
  facet normal 0 0 1
    outer loop
      vertex 16.001 20.4658 6
      vertex 12.2903 18.6104 6
      vertex 16.001 18.6104 6
    endloop
  endfacet
  facet normal 0 0 1
    outer loop
      vertex 12.2903 18.6104 6
      vertex 9.88968 18.6104 6
      vertex 12.2903 9 6
    endloop
  endfacet
  facet normal 0 0 1
    outer loop
      vertex 16.001 20.4658 6
      vertex 9.88968 18.6104 6
      vertex 12.2903 18.6104 6
    endloop
  endfacet
  facet normal -0 0 1
    outer loop
      vertex 6.1872 20.4658 6
      vertex 9.88968 18.6104 6
      vertex 16.001 20.4658 6
    endloop
  endfacet
  facet normal 0 0 1
    outer loop
      vertex 9.88968 18.6104 6
      vertex 6.1872 20.4658 6
      vertex 6.1872 18.6104 6
    endloop
  endfacet
  facet normal 0 0 1
    outer loop
      vertex 12.2903 9 6
      vertex 9.88968 18.6104 6
      vertex 9.88968 9 6
    endloop
  endfacet
  facet normal 0 0 1
    outer loop
      vertex 26.5397 9 6
      vertex 23.1463 11.9296 6
      vertex 24.1636 9 6
    endloop
  endfacet
  facet normal 0 0 1
    outer loop
      vertex 26.5397 9 6
      vertex 22.6092 13.736 6
      vertex 23.1463 11.9296 6
    endloop
  endfacet
  facet normal 0 0 1
    outer loop
      vertex 22.3733 20.4658 6
      vertex 22.6092 13.736 6
      vertex 26.5397 9 6
    endloop
  endfacet
  facet normal 0 0 1
    outer loop
      vertex 22.3733 20.4658 6
      vertex 21.4781 17.0317 6
      vertex 22.6092 13.736 6
    endloop
  endfacet
  facet normal 0 0 1
    outer loop
      vertex 22.3733 20.4658 6
      vertex 21.1283 18.1384 6
      vertex 21.4781 17.0317 6
    endloop
  endfacet
  facet normal 0 0 1
    outer loop
      vertex 22.3733 20.4658 6
      vertex 20.9573 18.7 6
      vertex 21.1283 18.1384 6
    endloop
  endfacet
  facet normal 0 0 1
    outer loop
      vertex 19.5414 20.4658 6
      vertex 20.9086 18.5209 6
      vertex 20.9573 18.7 6
    endloop
  endfacet
  facet normal 0 0 1
    outer loop
      vertex 20.9086 18.5209 6
      vertex 19.5414 20.4658 6
      vertex 20.8658 18.3693 6
    endloop
  endfacet
  facet normal 0 0 1
    outer loop
      vertex 20.8658 18.3693 6
      vertex 19.5414 20.4658 6
      vertex 20.819 18.2076 6
    endloop
  endfacet
  facet normal 0 0 1
    outer loop
      vertex 20.819 18.2076 6
      vertex 19.5414 20.4658 6
      vertex 20.7681 18.0357 6
    endloop
  endfacet
  facet normal 0 0 1
    outer loop
      vertex 20.7681 18.0357 6
      vertex 19.5414 20.4658 6
      vertex 20.7132 17.8536 6
    endloop
  endfacet
  facet normal 0 0 1
    outer loop
      vertex 20.7132 17.8536 6
      vertex 19.5414 20.4658 6
      vertex 20.583 17.4559 6
    endloop
  endfacet
  facet normal 0 0 1
    outer loop
      vertex 20.583 17.4559 6
      vertex 19.5414 20.4658 6
      vertex 20.3063 16.6371 6
    endloop
  endfacet
  facet normal -0 0 1
    outer loop
      vertex 19.5414 20.4658 6
      vertex 20.9573 18.7 6
      vertex 22.3733 20.4658 6
    endloop
  endfacet
  facet normal 0 0 1
    outer loop
      vertex 20.3063 16.6371 6
      vertex 19.5414 20.4658 6
      vertex 19.8832 15.3971 6
    endloop
  endfacet
  facet normal 0 0 1
    outer loop
      vertex 19.5414 20.4658 6
      vertex 19.3135 13.736 6
      vertex 19.8832 15.3971 6
    endloop
  endfacet
  facet normal 0 0 1
    outer loop
      vertex 15.3587 9 6
      vertex 19.3135 13.736 6
      vertex 19.5414 20.4658 6
    endloop
  endfacet
  facet normal 0 0 1
    outer loop
      vertex 19.3135 13.736 6
      vertex 15.3587 9 6
      vertex 18.7765 11.9296 6
    endloop
  endfacet
  facet normal 0 0 1
    outer loop
      vertex 18.7765 11.9296 6
      vertex 15.3587 9 6
      vertex 17.7593 9 6
    endloop
  endfacet
  facet normal -0 0 1
    outer loop
      vertex 19.3135 13.736 6
      vertex 23.1463 11.9296 6
      vertex 22.6092 13.736 6
    endloop
  endfacet
  facet normal 0 0 1
    outer loop
      vertex 23.1463 11.9296 6
      vertex 19.3135 13.736 6
      vertex 18.7765 11.9296 6
    endloop
  endfacet
  facet normal 0 0 1
    outer loop
      vertex 35.6869 16.9504 6
      vertex 38.1038 17.048 6
      vertex 38.0342 17.8259 6
    endloop
  endfacet
  facet normal 0 0 1
    outer loop
      vertex 38.1038 17.048 6
      vertex 35.6869 16.9504 6
      vertex 38.0611 16.4664 6
    endloop
  endfacet
  facet normal 0 0 1
    outer loop
      vertex 35.5547 17.6731 6
      vertex 38.0342 17.8259 6
      vertex 37.8251 18.5077 6
    endloop
  endfacet
  facet normal -0 0 1
    outer loop
      vertex 35.6544 16.5623 6
      vertex 38.0611 16.4664 6
      vertex 35.6869 16.9504 6
    endloop
  endfacet
  facet normal 0 0 1
    outer loop
      vertex 35.5547 17.6731 6
      vertex 37.8251 18.5077 6
      vertex 37.4767 19.0933 6
    endloop
  endfacet
  facet normal 0 0 1
    outer loop
      vertex 38.0611 16.4664 6
      vertex 35.6544 16.5623 6
      vertex 37.9329 15.926 6
    endloop
  endfacet
  facet normal 0 0 1
    outer loop
      vertex 37.9329 15.926 6
      vertex 35.6544 16.5623 6
      vertex 37.7193 15.4268 6
    endloop
  endfacet
  facet normal 0 0 1
    outer loop
      vertex 35.5547 17.6731 6
      vertex 37.4767 19.0933 6
      vertex 36.9889 19.5828 6
    endloop
  endfacet
  facet normal -0 0 1
    outer loop
      vertex 35.5567 16.22 6
      vertex 37.7193 15.4268 6
      vertex 35.6544 16.5623 6
    endloop
  endfacet
  facet normal 0 0 1
    outer loop
      vertex 35.158 18.1893 6
      vertex 36.9889 19.5828 6
      vertex 36.373 19.9691 6
    endloop
  endfacet
  facet normal 0 0 1
    outer loop
      vertex 37.7193 15.4268 6
      vertex 35.5567 16.22 6
      vertex 37.4202 14.9688 6
    endloop
  endfacet
  facet normal -0 0 1
    outer loop
      vertex 35.394 15.9235 6
      vertex 37.4202 14.9688 6
      vertex 35.5567 16.22 6
    endloop
  endfacet
  facet normal 0 0 1
    outer loop
      vertex 35.158 18.1893 6
      vertex 36.373 19.9691 6
      vertex 35.6401 20.245 6
    endloop
  endfacet
  facet normal 0 0 1
    outer loop
      vertex 38.0342 17.8259 6
      vertex 35.5547 17.6731 6
      vertex 35.6869 16.9504 6
    endloop
  endfacet
  facet normal 0 0 1
    outer loop
      vertex 36.9889 19.5828 6
      vertex 35.158 18.1893 6
      vertex 35.5547 17.6731 6
    endloop
  endfacet
  facet normal 0 0 1
    outer loop
      vertex 34.4968 18.499 6
      vertex 35.6401 20.245 6
      vertex 34.7903 20.4106 6
    endloop
  endfacet
  facet normal 0 0 1
    outer loop
      vertex 35.6401 20.245 6
      vertex 34.4968 18.499 6
      vertex 35.158 18.1893 6
    endloop
  endfacet
  facet normal 0 0 1
    outer loop
      vertex 33.8234 20.4658 6
      vertex 34.4968 18.499 6
      vertex 34.7903 20.4106 6
    endloop
  endfacet
  facet normal 0 0 1
    outer loop
      vertex 33.8234 20.4658 6
      vertex 33.5712 18.6023 6
      vertex 34.4968 18.499 6
    endloop
  endfacet
  facet normal 0 0 1
    outer loop
      vertex 33.8234 20.4658 6
      vertex 30.4952 18.6023 6
      vertex 33.5712 18.6023 6
    endloop
  endfacet
  facet normal 0 0 1
    outer loop
      vertex 28.0946 20.4658 6
      vertex 30.4952 15.2171 6
      vertex 30.4952 18.6023 6
    endloop
  endfacet
  facet normal 0 0 1
    outer loop
      vertex 28.0946 9 6
      vertex 30.4952 15.2171 6
      vertex 28.0946 20.4658 6
    endloop
  endfacet
  facet normal -0 0 1
    outer loop
      vertex 28.0946 20.4658 6
      vertex 30.4952 18.6023 6
      vertex 33.8234 20.4658 6
    endloop
  endfacet
  facet normal 0 0 1
    outer loop
      vertex 30.4952 15.2171 6
      vertex 28.0946 9 6
      vertex 30.4952 13.3536 6
    endloop
  endfacet
  facet normal 0 0 1
    outer loop
      vertex 30.4952 13.3536 6
      vertex 28.0946 9 6
      vertex 30.4952 9 6
    endloop
  endfacet
  facet normal 0 0 1
    outer loop
      vertex 37.4202 14.9688 6
      vertex 35.394 15.9235 6
      vertex 37.0484 14.5688 6
    endloop
  endfacet
  facet normal 0 0 1
    outer loop
      vertex 37.0484 14.5688 6
      vertex 35.394 15.9235 6
      vertex 36.6166 14.2436 6
    endloop
  endfacet
  facet normal -0 0 1
    outer loop
      vertex 35.1661 15.6727 6
      vertex 36.6166 14.2436 6
      vertex 35.394 15.9235 6
    endloop
  endfacet
  facet normal 0 0 1
    outer loop
      vertex 35.573 13.8174 6
      vertex 35.9718 9 6
      vertex 38.6735 9 6
    endloop
  endfacet
  facet normal 0 0 1
    outer loop
      vertex 36.6166 14.2436 6
      vertex 35.1661 15.6727 6
      vertex 36.1249 13.9931 6
    endloop
  endfacet
  facet normal 0 0 1
    outer loop
      vertex 36.1249 13.9931 6
      vertex 35.1661 15.6727 6
      vertex 35.573 13.8174 6
    endloop
  endfacet
  facet normal -0 0 1
    outer loop
      vertex 34.8752 15.4734 6
      vertex 35.573 13.8174 6
      vertex 35.1661 15.6727 6
    endloop
  endfacet
  facet normal -0 0 1
    outer loop
      vertex 34.5233 15.331 6
      vertex 35.573 13.8174 6
      vertex 34.8752 15.4734 6
    endloop
  endfacet
  facet normal -0 0 1
    outer loop
      vertex 34.1103 15.2456 6
      vertex 35.573 13.8174 6
      vertex 34.5233 15.331 6
    endloop
  endfacet
  facet normal 0 0 1
    outer loop
      vertex 35.573 13.8174 6
      vertex 34.1103 15.2456 6
      vertex 33.3108 13.3536 6
    endloop
  endfacet
  facet normal 0 0 1
    outer loop
      vertex 33.3108 13.3536 6
      vertex 34.1103 15.2456 6
      vertex 33.6364 15.2171 6
    endloop
  endfacet
  facet normal 0 0 1
    outer loop
      vertex 35.573 13.8174 6
      vertex 33.3108 13.3536 6
      vertex 35.9718 9 6
    endloop
  endfacet
  facet normal -0 0 1
    outer loop
      vertex 30.4952 15.2171 6
      vertex 33.3108 13.3536 6
      vertex 33.6364 15.2171 6
    endloop
  endfacet
  facet normal 0 0 1
    outer loop
      vertex 33.3108 13.3536 6
      vertex 30.4952 15.2171 6
      vertex 30.4952 13.3536 6
    endloop
  endfacet
endsolid OpenSCAD_Model
