solid OpenSCAD_Model
  facet normal 0 -1 0
    outer loop
      vertex -17.5 -30.3109 0
      vertex 17.5 -30.3109 95
      vertex -17.5 -30.3109 95
    endloop
  endfacet
  facet normal 0 -1 -0
    outer loop
      vertex 17.5 -30.3109 95
      vertex -17.5 -30.3109 0
      vertex 17.5 -30.3109 0
    endloop
  endfacet
  facet normal 0.866025 -0.5 0
    outer loop
      vertex 17.5 -30.3109 95
      vertex 35 0 0
      vertex 35 0 95
    endloop
  endfacet
  facet normal 0.866025 -0.5 0
    outer loop
      vertex 35 0 0
      vertex 17.5 -30.3109 95
      vertex 17.5 -30.3109 0
    endloop
  endfacet
  facet normal 0 1 -0
    outer loop
      vertex 17.5 30.3109 0
      vertex -17.5 30.3109 95
      vertex 17.5 30.3109 95
    endloop
  endfacet
  facet normal 0 1 0
    outer loop
      vertex -17.5 30.3109 95
      vertex 17.5 30.3109 0
      vertex -17.5 30.3109 0
    endloop
  endfacet
  facet normal 0.866025 0.5 0
    outer loop
      vertex 35 0 95
      vertex 17.5 30.3109 0
      vertex 17.5 30.3109 95
    endloop
  endfacet
  facet normal 0.866025 0.5 0
    outer loop
      vertex 17.5 30.3109 0
      vertex 35 0 95
      vertex 35 0 0
    endloop
  endfacet
  facet normal -0.866025 0.5 0
    outer loop
      vertex -35 0 0
      vertex -17.5 30.3109 95
      vertex -17.5 30.3109 0
    endloop
  endfacet
  facet normal -0.866025 0.5 0
    outer loop
      vertex -17.5 30.3109 95
      vertex -35 0 0
      vertex -35 0 95
    endloop
  endfacet
  facet normal -0.866025 -0.5 0
    outer loop
      vertex -17.5 -30.3109 0
      vertex -35 0 95
      vertex -35 0 0
    endloop
  endfacet
  facet normal -0.866025 -0.5 0
    outer loop
      vertex -35 0 95
      vertex -17.5 -30.3109 0
      vertex -17.5 -30.3109 95
    endloop
  endfacet
  facet normal 0 0 1
    outer loop
      vertex 17.5 30.3109 95
      vertex 31 0 95
      vertex 35 0 95
    endloop
  endfacet
  facet normal 0 0 1
    outer loop
      vertex 17.5 30.3109 95
      vertex 15.5 26.8468 95
      vertex 31 0 95
    endloop
  endfacet
  facet normal 0 0 1
    outer loop
      vertex 17.5 30.3109 95
      vertex -15.5 26.8468 95
      vertex 15.5 26.8468 95
    endloop
  endfacet
  facet normal -0 0 1
    outer loop
      vertex -17.5 30.3109 95
      vertex -15.5 26.8468 95
      vertex 17.5 30.3109 95
    endloop
  endfacet
  facet normal 0 0 1
    outer loop
      vertex -17.5 30.3109 95
      vertex -31 0 95
      vertex -15.5 26.8468 95
    endloop
  endfacet
  facet normal 0 -0 1
    outer loop
      vertex -31 0 95
      vertex -17.5 30.3109 95
      vertex -35 0 95
    endloop
  endfacet
  facet normal -0 0 1
    outer loop
      vertex 31 0 95
      vertex 17.5 -30.3109 95
      vertex 35 0 95
    endloop
  endfacet
  facet normal -0 0 1
    outer loop
      vertex 15.5 -26.8468 95
      vertex 17.5 -30.3109 95
      vertex 31 0 95
    endloop
  endfacet
  facet normal -0 0 1
    outer loop
      vertex -15.5 -26.8468 95
      vertex 17.5 -30.3109 95
      vertex 15.5 -26.8468 95
    endloop
  endfacet
  facet normal 0 0 1
    outer loop
      vertex -15.5 -26.8468 95
      vertex -17.5 -30.3109 95
      vertex 17.5 -30.3109 95
    endloop
  endfacet
  facet normal 0 0 1
    outer loop
      vertex -31 0 95
      vertex -17.5 -30.3109 95
      vertex -15.5 -26.8468 95
    endloop
  endfacet
  facet normal 0 0 1
    outer loop
      vertex -17.5 -30.3109 95
      vertex -31 0 95
      vertex -35 0 95
    endloop
  endfacet
  facet normal 0 0 -1
    outer loop
      vertex 17.5 -30.3109 0
      vertex 17.5 30.3109 0
      vertex 35 0 0
    endloop
  endfacet
  facet normal 0 0 -1
    outer loop
      vertex -17.5 -30.3109 0
      vertex 17.5 30.3109 0
      vertex 17.5 -30.3109 0
    endloop
  endfacet
  facet normal 0 0 -1
    outer loop
      vertex -17.5 -30.3109 0
      vertex -17.5 30.3109 0
      vertex 17.5 30.3109 0
    endloop
  endfacet
  facet normal 0 -0 -1
    outer loop
      vertex -17.5 30.3109 0
      vertex -17.5 -30.3109 0
      vertex -35 0 0
    endloop
  endfacet
  facet normal 0 1 -0
    outer loop
      vertex 15.5 -26.8468 5
      vertex -15.5 -26.8468 95
      vertex 15.5 -26.8468 95
    endloop
  endfacet
  facet normal 0 1 0
    outer loop
      vertex -15.5 -26.8468 95
      vertex 15.5 -26.8468 5
      vertex -15.5 -26.8468 5
    endloop
  endfacet
  facet normal -0.866026 0.5 0
    outer loop
      vertex 15.5 -26.8468 5
      vertex 31 0 95
      vertex 31 0 5
    endloop
  endfacet
  facet normal -0.866026 0.5 0
    outer loop
      vertex 31 0 95
      vertex 15.5 -26.8468 5
      vertex 15.5 -26.8468 95
    endloop
  endfacet
  facet normal 0 -1 0
    outer loop
      vertex -15.5 26.8468 5
      vertex 15.5 26.8468 95
      vertex -15.5 26.8468 95
    endloop
  endfacet
  facet normal 0 -1 -0
    outer loop
      vertex 15.5 26.8468 95
      vertex -15.5 26.8468 5
      vertex 15.5 26.8468 5
    endloop
  endfacet
  facet normal -0.866026 -0.5 0
    outer loop
      vertex 31 0 5
      vertex 15.5 26.8468 95
      vertex 15.5 26.8468 5
    endloop
  endfacet
  facet normal -0.866026 -0.5 0
    outer loop
      vertex 15.5 26.8468 95
      vertex 31 0 5
      vertex 31 0 95
    endloop
  endfacet
  facet normal 0.866026 -0.5 0
    outer loop
      vertex -31 0 95
      vertex -15.5 26.8468 5
      vertex -15.5 26.8468 95
    endloop
  endfacet
  facet normal 0.866026 -0.5 0
    outer loop
      vertex -15.5 26.8468 5
      vertex -31 0 95
      vertex -31 0 5
    endloop
  endfacet
  facet normal 0.866026 0.5 0
    outer loop
      vertex -15.5 -26.8468 95
      vertex -31 0 5
      vertex -31 0 95
    endloop
  endfacet
  facet normal 0.866026 0.5 0
    outer loop
      vertex -31 0 5
      vertex -15.5 -26.8468 95
      vertex -15.5 -26.8468 5
    endloop
  endfacet
  facet normal 0 0 1
    outer loop
      vertex 15.5 26.8468 5
      vertex 15.5 -26.8468 5
      vertex 31 0 5
    endloop
  endfacet
  facet normal -0 0 1
    outer loop
      vertex -15.5 26.8468 5
      vertex 15.5 -26.8468 5
      vertex 15.5 26.8468 5
    endloop
  endfacet
  facet normal 0 0 1
    outer loop
      vertex -15.5 26.8468 5
      vertex -15.5 -26.8468 5
      vertex 15.5 -26.8468 5
    endloop
  endfacet
  facet normal 0 -0 1
    outer loop
      vertex -15.5 -26.8468 5
      vertex -15.5 26.8468 5
      vertex -31 0 5
    endloop
  endfacet
endsolid OpenSCAD_Model
