solid OpenSCAD_Model
  facet normal 0.965904 -0.258899 0
    outer loop
      vertex 59.7063 4.1459 4
      vertex 59.8689 4.75253 0
      vertex 59.8689 4.75253 4
    endloop
  endfacet
  facet normal 0.965904 -0.258899 0
    outer loop
      vertex 59.8689 4.75253 0
      vertex 59.7063 4.1459 4
      vertex 59.7063 4.1459 0
    endloop
  endfacet
  facet normal 0 1 -0
    outer loop
      vertex 54 24 0
      vertex 6 24 4
      vertex 54 24 4
    endloop
  endfacet
  facet normal 0 1 0
    outer loop
      vertex 6 24 4
      vertex 54 24 0
      vertex 6 24 0
    endloop
  endfacet
  facet normal 0.933612 0.358285 0
    outer loop
      vertex 59.7063 19.8541 4
      vertex 59.4813 20.4404 0
      vertex 59.4813 20.4404 4
    endloop
  endfacet
  facet normal 0.933612 0.358285 0
    outer loop
      vertex 59.4813 20.4404 0
      vertex 59.7063 19.8541 4
      vertex 59.7063 19.8541 0
    endloop
  endfacet
  facet normal 0.0523332 -0.99863 0
    outer loop
      vertex 54 0 0
      vertex 54.6272 0.0328684 4
      vertex 54 0 4
    endloop
  endfacet
  facet normal 0.0523332 -0.99863 0
    outer loop
      vertex 54.6272 0.0328684 4
      vertex 54 0 0
      vertex 54.6272 0.0328684 0
    endloop
  endfacet
  facet normal 0.838634 -0.544696 0
    outer loop
      vertex 58.8541 2.47329 4
      vertex 59.1962 3 0
      vertex 59.1962 3 4
    endloop
  endfacet
  facet normal 0.838634 -0.544696 0
    outer loop
      vertex 59.1962 3 0
      vertex 58.8541 2.47329 4
      vertex 58.8541 2.47329 0
    endloop
  endfacet
  facet normal -0.838668 -0.544643 0
    outer loop
      vertex 1.1459 2.47329 0
      vertex 0.803847 3 4
      vertex 0.803847 3 0
    endloop
  endfacet
  facet normal -0.838668 -0.544643 0
    outer loop
      vertex 0.803847 3 4
      vertex 1.1459 2.47329 0
      vertex 1.1459 2.47329 4
    endloop
  endfacet
  facet normal -0.0523357 -0.99863 0
    outer loop
      vertex 5.37283 0.0328684 0
      vertex 6 0 4
      vertex 5.37283 0.0328684 4
    endloop
  endfacet
  facet normal -0.0523357 -0.99863 -0
    outer loop
      vertex 6 0 4
      vertex 5.37283 0.0328684 0
      vertex 6 0 0
    endloop
  endfacet
  facet normal 0.629296 -0.777166 0
    outer loop
      vertex 57.5267 1.1459 0
      vertex 58.0148 1.54113 4
      vertex 57.5267 1.1459 4
    endloop
  endfacet
  facet normal 0.629296 -0.777166 0
    outer loop
      vertex 58.0148 1.54113 4
      vertex 57.5267 1.1459 0
      vertex 58.0148 1.54113 0
    endloop
  endfacet
  facet normal 0.707107 0.707107 -0
    outer loop
      vertex 58.4589 22.0148 0
      vertex 58.0148 22.4589 4
      vertex 58.4589 22.0148 4
    endloop
  endfacet
  facet normal 0.707107 0.707107 0
    outer loop
      vertex 58.0148 22.4589 4
      vertex 58.4589 22.0148 0
      vertex 58.0148 22.4589 0
    endloop
  endfacet
  facet normal 0.891026 0.453952 0
    outer loop
      vertex 59.4813 20.4404 4
      vertex 59.1962 21 0
      vertex 59.1962 21 4
    endloop
  endfacet
  facet normal 0.891026 0.453952 0
    outer loop
      vertex 59.1962 21 0
      vertex 59.4813 20.4404 4
      vertex 59.4813 20.4404 0
    endloop
  endfacet
  facet normal 0.965901 0.258911 0
    outer loop
      vertex 59.8689 19.2475 4
      vertex 59.7063 19.8541 0
      vertex 59.7063 19.8541 4
    endloop
  endfacet
  facet normal 0.965901 0.258911 0
    outer loop
      vertex 59.7063 19.8541 0
      vertex 59.8689 19.2475 4
      vertex 59.8689 19.2475 0
    endloop
  endfacet
  facet normal -0.99863 -0.0523357 0
    outer loop
      vertex 0.0328684 5.37283 0
      vertex 0 6 4
      vertex 0 6 0
    endloop
  endfacet
  facet normal -0.99863 -0.0523357 0
    outer loop
      vertex 0 6 4
      vertex 0.0328684 5.37283 0
      vertex 0.0328684 5.37283 4
    endloop
  endfacet
  facet normal 0.453979 -0.891013 0
    outer loop
      vertex 56.4404 0.518726 0
      vertex 57 0.803847 4
      vertex 56.4404 0.518726 4
    endloop
  endfacet
  facet normal 0.453979 -0.891013 0
    outer loop
      vertex 57 0.803847 4
      vertex 56.4404 0.518726 0
      vertex 57 0.803847 0
    endloop
  endfacet
  facet normal -0.258899 0.965904 0
    outer loop
      vertex 4.75253 23.8689 0
      vertex 4.1459 23.7063 4
      vertex 4.75253 23.8689 4
    endloop
  endfacet
  facet normal -0.258899 0.965904 0
    outer loop
      vertex 4.1459 23.7063 4
      vertex 4.75253 23.8689 0
      vertex 4.1459 23.7063 0
    endloop
  endfacet
  facet normal 0.933616 -0.358275 0
    outer loop
      vertex 59.4813 3.55958 4
      vertex 59.7063 4.1459 0
      vertex 59.7063 4.1459 4
    endloop
  endfacet
  facet normal 0.933616 -0.358275 0
    outer loop
      vertex 59.7063 4.1459 0
      vertex 59.4813 3.55958 4
      vertex 59.4813 3.55958 0
    endloop
  endfacet
  facet normal -0.965923 0.258831 0
    outer loop
      vertex 0.131114 19.2475 0
      vertex 0.29366 19.8541 4
      vertex 0.29366 19.8541 0
    endloop
  endfacet
  facet normal -0.965923 0.258831 0
    outer loop
      vertex 0.29366 19.8541 4
      vertex 0.131114 19.2475 0
      vertex 0.131114 19.2475 4
    endloop
  endfacet
  facet normal -0.544643 -0.838668 0
    outer loop
      vertex 2.47329 1.1459 0
      vertex 3 0.803847 4
      vertex 2.47329 1.1459 4
    endloop
  endfacet
  facet normal -0.544643 -0.838668 -0
    outer loop
      vertex 3 0.803847 4
      vertex 2.47329 1.1459 0
      vertex 3 0.803847 0
    endloop
  endfacet
  facet normal -0.453965 0.89102 0
    outer loop
      vertex 3.55958 23.4813 0
      vertex 3 23.1962 4
      vertex 3.55958 23.4813 4
    endloop
  endfacet
  facet normal -0.453965 0.89102 0
    outer loop
      vertex 3 23.1962 4
      vertex 3.55958 23.4813 0
      vertex 3 23.1962 0
    endloop
  endfacet
  facet normal -0.987688 0.156434 0
    outer loop
      vertex 0.0328684 18.6272 0
      vertex 0.131114 19.2475 4
      vertex 0.131114 19.2475 0
    endloop
  endfacet
  facet normal -0.987688 0.156434 0
    outer loop
      vertex 0.131114 19.2475 4
      vertex 0.0328684 18.6272 0
      vertex 0.0328684 18.6272 4
    endloop
  endfacet
  facet normal 0.258911 0.965901 -0
    outer loop
      vertex 55.8541 23.7063 0
      vertex 55.2475 23.8689 4
      vertex 55.8541 23.7063 4
    endloop
  endfacet
  facet normal 0.258911 0.965901 0
    outer loop
      vertex 55.2475 23.8689 4
      vertex 55.8541 23.7063 0
      vertex 55.2475 23.8689 0
    endloop
  endfacet
  facet normal -0.987688 -0.156434 0
    outer loop
      vertex 0.131114 4.75253 0
      vertex 0.0328684 5.37283 4
      vertex 0.0328684 5.37283 0
    endloop
  endfacet
  facet normal -0.987688 -0.156434 0
    outer loop
      vertex 0.0328684 5.37283 4
      vertex 0.131114 4.75253 0
      vertex 0.131114 4.75253 4
    endloop
  endfacet
  facet normal -0.453991 -0.891006 0
    outer loop
      vertex 3 0.803847 0
      vertex 3.55958 0.518726 4
      vertex 3 0.803847 4
    endloop
  endfacet
  facet normal -0.453991 -0.891006 -0
    outer loop
      vertex 3.55958 0.518726 4
      vertex 3 0.803847 0
      vertex 3.55958 0.518726 0
    endloop
  endfacet
  facet normal -0.156363 0.9877 0
    outer loop
      vertex 5.37283 23.9671 0
      vertex 4.75253 23.8689 4
      vertex 5.37283 23.9671 4
    endloop
  endfacet
  facet normal -0.156363 0.9877 0
    outer loop
      vertex 4.75253 23.8689 4
      vertex 5.37283 23.9671 0
      vertex 4.75253 23.8689 0
    endloop
  endfacet
  facet normal -0.707107 -0.707107 0
    outer loop
      vertex 1.98522 1.54113 0
      vertex 1.54113 1.98522 4
      vertex 1.54113 1.98522 0
    endloop
  endfacet
  facet normal -0.707107 -0.707107 0
    outer loop
      vertex 1.54113 1.98522 4
      vertex 1.98522 1.54113 0
      vertex 1.98522 1.54113 4
    endloop
  endfacet
  facet normal -0.358275 0.933616 0
    outer loop
      vertex 4.1459 23.7063 0
      vertex 3.55958 23.4813 4
      vertex 4.1459 23.7063 4
    endloop
  endfacet
  facet normal -0.358275 0.933616 0
    outer loop
      vertex 3.55958 23.4813 4
      vertex 4.1459 23.7063 0
      vertex 3.55958 23.4813 0
    endloop
  endfacet
  facet normal 0.998627 0.0523833 0
    outer loop
      vertex 60 18 4
      vertex 59.9671 18.6272 0
      vertex 59.9671 18.6272 4
    endloop
  endfacet
  facet normal 0.998627 0.0523833 0
    outer loop
      vertex 59.9671 18.6272 0
      vertex 60 18 4
      vertex 60 18 0
    endloop
  endfacet
  facet normal 0 -1 0
    outer loop
      vertex 6 0 0
      vertex 54 0 4
      vertex 6 0 4
    endloop
  endfacet
  facet normal 0 -1 -0
    outer loop
      vertex 54 0 4
      vertex 6 0 0
      vertex 54 0 0
    endloop
  endfacet
  facet normal -0.544696 0.838634 0
    outer loop
      vertex 3 23.1962 0
      vertex 2.47329 22.8541 4
      vertex 3 23.1962 4
    endloop
  endfacet
  facet normal -0.544696 0.838634 0
    outer loop
      vertex 2.47329 22.8541 4
      vertex 3 23.1962 0
      vertex 2.47329 22.8541 0
    endloop
  endfacet
  facet normal -0.933581 -0.358366 0
    outer loop
      vertex 0.518726 3.55958 0
      vertex 0.29366 4.1459 4
      vertex 0.29366 4.1459 0
    endloop
  endfacet
  facet normal -0.933581 -0.358366 0
    outer loop
      vertex 0.29366 4.1459 4
      vertex 0.518726 3.55958 0
      vertex 0.518726 3.55958 4
    endloop
  endfacet
  facet normal -0.965926 -0.258819 0
    outer loop
      vertex 0.29366 4.1459 0
      vertex 0.131114 4.75253 4
      vertex 0.131114 4.75253 0
    endloop
  endfacet
  facet normal -0.965926 -0.258819 0
    outer loop
      vertex 0.131114 4.75253 4
      vertex 0.29366 4.1459 0
      vertex 0.29366 4.1459 4
    endloop
  endfacet
  facet normal -0.629319 -0.777147 0
    outer loop
      vertex 1.98522 1.54113 0
      vertex 2.47329 1.1459 4
      vertex 1.98522 1.54113 4
    endloop
  endfacet
  facet normal -0.629319 -0.777147 -0
    outer loop
      vertex 2.47329 1.1459 4
      vertex 1.98522 1.54113 0
      vertex 2.47329 1.1459 0
    endloop
  endfacet
  facet normal 0.9877 -0.156363 0
    outer loop
      vertex 59.8689 4.75253 4
      vertex 59.9671 5.37283 0
      vertex 59.9671 5.37283 4
    endloop
  endfacet
  facet normal 0.9877 -0.156363 0
    outer loop
      vertex 59.9671 5.37283 0
      vertex 59.8689 4.75253 4
      vertex 59.8689 4.75253 0
    endloop
  endfacet
  facet normal 0.998627 -0.0523858 0
    outer loop
      vertex 59.9671 5.37283 4
      vertex 60 6 0
      vertex 60 6 4
    endloop
  endfacet
  facet normal 0.998627 -0.0523858 0
    outer loop
      vertex 60 6 0
      vertex 59.9671 5.37283 4
      vertex 59.9671 5.37283 0
    endloop
  endfacet
  facet normal -0.0523858 0.998627 0
    outer loop
      vertex 6 24 0
      vertex 5.37283 23.9671 4
      vertex 6 24 4
    endloop
  endfacet
  facet normal -0.0523858 0.998627 0
    outer loop
      vertex 5.37283 23.9671 4
      vertex 6 24 0
      vertex 5.37283 23.9671 0
    endloop
  endfacet
  facet normal 0.358377 -0.933577 0
    outer loop
      vertex 55.8541 0.29366 0
      vertex 56.4404 0.518726 4
      vertex 55.8541 0.29366 4
    endloop
  endfacet
  facet normal 0.358377 -0.933577 0
    outer loop
      vertex 56.4404 0.518726 4
      vertex 55.8541 0.29366 0
      vertex 56.4404 0.518726 0
    endloop
  endfacet
  facet normal 1 -0 0
    outer loop
      vertex 60 6 4
      vertex 60 18 0
      vertex 60 18 4
    endloop
  endfacet
  facet normal 1 0 0
    outer loop
      vertex 60 18 0
      vertex 60 6 4
      vertex 60 6 0
    endloop
  endfacet
  facet normal -0.891013 0.453979 0
    outer loop
      vertex 0.518726 20.4404 0
      vertex 0.803847 21 4
      vertex 0.803847 21 0
    endloop
  endfacet
  facet normal -0.891013 0.453979 0
    outer loop
      vertex 0.803847 21 4
      vertex 0.518726 20.4404 0
      vertex 0.518726 20.4404 4
    endloop
  endfacet
  facet normal -0.258819 -0.965926 0
    outer loop
      vertex 4.1459 0.29366 0
      vertex 4.75253 0.131114 4
      vertex 4.1459 0.29366 4
    endloop
  endfacet
  facet normal -0.258819 -0.965926 -0
    outer loop
      vertex 4.75253 0.131114 4
      vertex 4.1459 0.29366 0
      vertex 4.75253 0.131114 0
    endloop
  endfacet
  facet normal -0.156434 -0.987688 0
    outer loop
      vertex 4.75253 0.131114 0
      vertex 5.37283 0.0328684 4
      vertex 4.75253 0.131114 4
    endloop
  endfacet
  facet normal -0.156434 -0.987688 -0
    outer loop
      vertex 5.37283 0.0328684 4
      vertex 4.75253 0.131114 0
      vertex 5.37283 0.0328684 0
    endloop
  endfacet
  facet normal -0.777147 -0.629319 0
    outer loop
      vertex 1.54113 1.98522 0
      vertex 1.1459 2.47329 4
      vertex 1.1459 2.47329 0
    endloop
  endfacet
  facet normal -0.777147 -0.629319 0
    outer loop
      vertex 1.1459 2.47329 4
      vertex 1.54113 1.98522 0
      vertex 1.54113 1.98522 4
    endloop
  endfacet
  facet normal 0.89102 -0.453965 0
    outer loop
      vertex 59.1962 3 4
      vertex 59.4813 3.55958 0
      vertex 59.4813 3.55958 4
    endloop
  endfacet
  facet normal 0.89102 -0.453965 0
    outer loop
      vertex 59.4813 3.55958 0
      vertex 59.1962 3 4
      vertex 59.1962 3 0
    endloop
  endfacet
  facet normal 0.54465 -0.838663 0
    outer loop
      vertex 57 0.803847 0
      vertex 57.5267 1.1459 4
      vertex 57 0.803847 4
    endloop
  endfacet
  facet normal 0.54465 -0.838663 0
    outer loop
      vertex 57.5267 1.1459 4
      vertex 57 0.803847 0
      vertex 57.5267 1.1459 0
    endloop
  endfacet
  facet normal -1 0 0
    outer loop
      vertex 0 6 0
      vertex 0 18 4
      vertex 0 18 0
    endloop
  endfacet
  facet normal -1 -0 0
    outer loop
      vertex 0 18 4
      vertex 0 6 0
      vertex 0 6 4
    endloop
  endfacet
  facet normal 0.156434 -0.987688 0
    outer loop
      vertex 54.6272 0.0328684 0
      vertex 55.2475 0.131114 4
      vertex 54.6272 0.0328684 4
    endloop
  endfacet
  facet normal 0.156434 -0.987688 0
    outer loop
      vertex 55.2475 0.131114 4
      vertex 54.6272 0.0328684 0
      vertex 55.2475 0.131114 0
    endloop
  endfacet
  facet normal 0.0523833 0.998627 -0
    outer loop
      vertex 54.6272 23.9671 0
      vertex 54 24 4
      vertex 54.6272 23.9671 4
    endloop
  endfacet
  facet normal 0.0523833 0.998627 0
    outer loop
      vertex 54 24 4
      vertex 54.6272 23.9671 0
      vertex 54 24 0
    endloop
  endfacet
  facet normal -0.838663 0.54465 0
    outer loop
      vertex 0.803847 21 0
      vertex 1.1459 21.5267 4
      vertex 1.1459 21.5267 0
    endloop
  endfacet
  facet normal -0.838663 0.54465 0
    outer loop
      vertex 1.1459 21.5267 4
      vertex 0.803847 21 0
      vertex 0.803847 21 4
    endloop
  endfacet
  facet normal 0.77717 -0.62929 0
    outer loop
      vertex 58.4589 1.98522 4
      vertex 58.8541 2.47329 0
      vertex 58.8541 2.47329 4
    endloop
  endfacet
  facet normal 0.77717 -0.62929 0
    outer loop
      vertex 58.8541 2.47329 0
      vertex 58.4589 1.98522 4
      vertex 58.4589 1.98522 0
    endloop
  endfacet
  facet normal -0.62929 0.77717 0
    outer loop
      vertex 2.47329 22.8541 0
      vertex 1.98522 22.4589 4
      vertex 2.47329 22.8541 4
    endloop
  endfacet
  facet normal -0.62929 0.77717 0
    outer loop
      vertex 1.98522 22.4589 4
      vertex 2.47329 22.8541 0
      vertex 1.98522 22.4589 0
    endloop
  endfacet
  facet normal 0.777189 0.629267 0
    outer loop
      vertex 58.8541 21.5267 4
      vertex 58.4589 22.0148 0
      vertex 58.4589 22.0148 4
    endloop
  endfacet
  facet normal 0.777189 0.629267 0
    outer loop
      vertex 58.4589 22.0148 0
      vertex 58.8541 21.5267 4
      vertex 58.8541 21.5267 0
    endloop
  endfacet
  facet normal 0.358285 0.933612 -0
    outer loop
      vertex 56.4404 23.4813 0
      vertex 55.8541 23.7063 4
      vertex 56.4404 23.4813 4
    endloop
  endfacet
  facet normal 0.358285 0.933612 0
    outer loop
      vertex 55.8541 23.7063 4
      vertex 56.4404 23.4813 0
      vertex 55.8541 23.7063 0
    endloop
  endfacet
  facet normal 0.258831 -0.965923 0
    outer loop
      vertex 55.2475 0.131114 0
      vertex 55.8541 0.29366 4
      vertex 55.2475 0.131114 4
    endloop
  endfacet
  facet normal 0.258831 -0.965923 0
    outer loop
      vertex 55.8541 0.29366 4
      vertex 55.2475 0.131114 0
      vertex 55.8541 0.29366 0
    endloop
  endfacet
  facet normal -0.891006 -0.453991 0
    outer loop
      vertex 0.803847 3 0
      vertex 0.518726 3.55958 4
      vertex 0.518726 3.55958 0
    endloop
  endfacet
  facet normal -0.891006 -0.453991 0
    outer loop
      vertex 0.518726 3.55958 4
      vertex 0.803847 3 0
      vertex 0.803847 3 4
    endloop
  endfacet
  facet normal 0.707099 -0.707115 0
    outer loop
      vertex 58.0148 1.54113 0
      vertex 58.4589 1.98522 4
      vertex 58.0148 1.54113 4
    endloop
  endfacet
  facet normal 0.707099 -0.707115 0
    outer loop
      vertex 58.4589 1.98522 4
      vertex 58.0148 1.54113 0
      vertex 58.4589 1.98522 0
    endloop
  endfacet
  facet normal -0.99863 0.0523332 0
    outer loop
      vertex 0 18 0
      vertex 0.0328684 18.6272 4
      vertex 0.0328684 18.6272 0
    endloop
  endfacet
  facet normal -0.99863 0.0523332 0
    outer loop
      vertex 0.0328684 18.6272 4
      vertex 0 18 0
      vertex 0 18 4
    endloop
  endfacet
  facet normal -0.358366 -0.933581 0
    outer loop
      vertex 3.55958 0.518726 0
      vertex 4.1459 0.29366 4
      vertex 3.55958 0.518726 4
    endloop
  endfacet
  facet normal -0.358366 -0.933581 -0
    outer loop
      vertex 4.1459 0.29366 4
      vertex 3.55958 0.518726 0
      vertex 4.1459 0.29366 0
    endloop
  endfacet
  facet normal -0.933577 0.358377 0
    outer loop
      vertex 0.29366 19.8541 0
      vertex 0.518726 20.4404 4
      vertex 0.518726 20.4404 0
    endloop
  endfacet
  facet normal -0.933577 0.358377 0
    outer loop
      vertex 0.518726 20.4404 4
      vertex 0.29366 19.8541 0
      vertex 0.29366 19.8541 4
    endloop
  endfacet
  facet normal 0.838629 0.544703 0
    outer loop
      vertex 59.1962 21 4
      vertex 58.8541 21.5267 0
      vertex 58.8541 21.5267 4
    endloop
  endfacet
  facet normal 0.838629 0.544703 0
    outer loop
      vertex 58.8541 21.5267 0
      vertex 59.1962 21 4
      vertex 59.1962 21 0
    endloop
  endfacet
  facet normal 0.9877 0.156363 0
    outer loop
      vertex 59.9671 18.6272 4
      vertex 59.8689 19.2475 0
      vertex 59.8689 19.2475 4
    endloop
  endfacet
  facet normal 0.9877 0.156363 0
    outer loop
      vertex 59.8689 19.2475 0
      vertex 59.9671 18.6272 4
      vertex 59.9671 18.6272 0
    endloop
  endfacet
  facet normal -0.777166 0.629296 0
    outer loop
      vertex 1.1459 21.5267 0
      vertex 1.54113 22.0148 4
      vertex 1.54113 22.0148 0
    endloop
  endfacet
  facet normal -0.777166 0.629296 0
    outer loop
      vertex 1.54113 22.0148 4
      vertex 1.1459 21.5267 0
      vertex 1.1459 21.5267 4
    endloop
  endfacet
  facet normal 0.453952 0.891026 -0
    outer loop
      vertex 57 23.1962 0
      vertex 56.4404 23.4813 4
      vertex 57 23.1962 4
    endloop
  endfacet
  facet normal 0.453952 0.891026 0
    outer loop
      vertex 56.4404 23.4813 4
      vertex 57 23.1962 0
      vertex 56.4404 23.4813 0
    endloop
  endfacet
  facet normal -0.707115 0.707099 0
    outer loop
      vertex 1.54113 22.0148 0
      vertex 1.98522 22.4589 4
      vertex 1.98522 22.4589 0
    endloop
  endfacet
  facet normal -0.707115 0.707099 0
    outer loop
      vertex 1.98522 22.4589 4
      vertex 1.54113 22.0148 0
      vertex 1.54113 22.0148 4
    endloop
  endfacet
  facet normal 0.156363 0.9877 -0
    outer loop
      vertex 55.2475 23.8689 0
      vertex 54.6272 23.9671 4
      vertex 55.2475 23.8689 4
    endloop
  endfacet
  facet normal 0.156363 0.9877 0
    outer loop
      vertex 54.6272 23.9671 4
      vertex 55.2475 23.8689 0
      vertex 54.6272 23.9671 0
    endloop
  endfacet
  facet normal 0.629267 0.777189 -0
    outer loop
      vertex 58.0148 22.4589 0
      vertex 57.5267 22.8541 4
      vertex 58.0148 22.4589 4
    endloop
  endfacet
  facet normal 0.629267 0.777189 0
    outer loop
      vertex 57.5267 22.8541 4
      vertex 58.0148 22.4589 0
      vertex 57.5267 22.8541 0
    endloop
  endfacet
  facet normal 0 0 -1
    outer loop
      vertex 54 0 0
      vertex 60 6 0
      vertex 59.9671 5.37283 0
    endloop
  endfacet
  facet normal -0 0 -1
    outer loop
      vertex 60 6 0
      vertex 54 0 0
      vertex 60 18 0
    endloop
  endfacet
  facet normal 0 0 -1
    outer loop
      vertex 54 0 0
      vertex 59.9671 5.37283 0
      vertex 59.8689 4.75253 0
    endloop
  endfacet
  facet normal 0 0 -1
    outer loop
      vertex 54 24 0
      vertex 60 18 0
      vertex 54 0 0
    endloop
  endfacet
  facet normal 0 0 -1
    outer loop
      vertex 54 0 0
      vertex 59.8689 4.75253 0
      vertex 59.7063 4.1459 0
    endloop
  endfacet
  facet normal 0 0 -1
    outer loop
      vertex 60 18 0
      vertex 54 24 0
      vertex 59.9671 18.6272 0
    endloop
  endfacet
  facet normal 0 0 -1
    outer loop
      vertex 54 0 0
      vertex 59.7063 4.1459 0
      vertex 59.4813 3.55958 0
    endloop
  endfacet
  facet normal 0 0 -1
    outer loop
      vertex 59.9671 18.6272 0
      vertex 54 24 0
      vertex 59.8689 19.2475 0
    endloop
  endfacet
  facet normal 0 0 -1
    outer loop
      vertex 54 0 0
      vertex 59.4813 3.55958 0
      vertex 59.1962 3 0
    endloop
  endfacet
  facet normal 0 0 -1
    outer loop
      vertex 59.8689 19.2475 0
      vertex 54 24 0
      vertex 59.7063 19.8541 0
    endloop
  endfacet
  facet normal 0 0 -1
    outer loop
      vertex 54 0 0
      vertex 59.1962 3 0
      vertex 58.8541 2.47329 0
    endloop
  endfacet
  facet normal 0 0 -1
    outer loop
      vertex 59.7063 19.8541 0
      vertex 54 24 0
      vertex 59.4813 20.4404 0
    endloop
  endfacet
  facet normal 0 0 -1
    outer loop
      vertex 54 0 0
      vertex 58.8541 2.47329 0
      vertex 58.4589 1.98522 0
    endloop
  endfacet
  facet normal 0 0 -1
    outer loop
      vertex 59.4813 20.4404 0
      vertex 54 24 0
      vertex 59.1962 21 0
    endloop
  endfacet
  facet normal 0 0 -1
    outer loop
      vertex 54 0 0
      vertex 58.4589 1.98522 0
      vertex 58.0148 1.54113 0
    endloop
  endfacet
  facet normal 0 0 -1
    outer loop
      vertex 59.1962 21 0
      vertex 54 24 0
      vertex 58.8541 21.5267 0
    endloop
  endfacet
  facet normal 0 0 -1
    outer loop
      vertex 54 0 0
      vertex 58.0148 1.54113 0
      vertex 57.5267 1.1459 0
    endloop
  endfacet
  facet normal 0 0 -1
    outer loop
      vertex 58.8541 21.5267 0
      vertex 54 24 0
      vertex 58.4589 22.0148 0
    endloop
  endfacet
  facet normal 0 0 -1
    outer loop
      vertex 54 0 0
      vertex 57.5267 1.1459 0
      vertex 57 0.803847 0
    endloop
  endfacet
  facet normal 0 0 -1
    outer loop
      vertex 58.4589 22.0148 0
      vertex 54 24 0
      vertex 58.0148 22.4589 0
    endloop
  endfacet
  facet normal 0 0 -1
    outer loop
      vertex 54 0 0
      vertex 57 0.803847 0
      vertex 56.4404 0.518726 0
    endloop
  endfacet
  facet normal 0 0 -1
    outer loop
      vertex 58.0148 22.4589 0
      vertex 54 24 0
      vertex 57.5267 22.8541 0
    endloop
  endfacet
  facet normal 0 0 -1
    outer loop
      vertex 54 0 0
      vertex 56.4404 0.518726 0
      vertex 55.8541 0.29366 0
    endloop
  endfacet
  facet normal 0 0 -1
    outer loop
      vertex 57.5267 22.8541 0
      vertex 54 24 0
      vertex 57 23.1962 0
    endloop
  endfacet
  facet normal 0 0 -1
    outer loop
      vertex 54 0 0
      vertex 55.8541 0.29366 0
      vertex 55.2475 0.131114 0
    endloop
  endfacet
  facet normal 0 0 -1
    outer loop
      vertex 57 23.1962 0
      vertex 54 24 0
      vertex 56.4404 23.4813 0
    endloop
  endfacet
  facet normal 0 0 -1
    outer loop
      vertex 54 0 0
      vertex 55.2475 0.131114 0
      vertex 54.6272 0.0328684 0
    endloop
  endfacet
  facet normal 0 0 -1
    outer loop
      vertex 56.4404 23.4813 0
      vertex 54 24 0
      vertex 55.8541 23.7063 0
    endloop
  endfacet
  facet normal 0 0 -1
    outer loop
      vertex 55.8541 23.7063 0
      vertex 54 24 0
      vertex 55.2475 23.8689 0
    endloop
  endfacet
  facet normal 0 0 -1
    outer loop
      vertex 55.2475 23.8689 0
      vertex 54 24 0
      vertex 54.6272 23.9671 0
    endloop
  endfacet
  facet normal 0 0 -1
    outer loop
      vertex 54 0 0
      vertex 12 12 0
      vertex 54 24 0
    endloop
  endfacet
  facet normal 0 0 -1
    outer loop
      vertex 54 0 0
      vertex 11.9836 11.6864 0
      vertex 12 12 0
    endloop
  endfacet
  facet normal 0 0 -1
    outer loop
      vertex 54 0 0
      vertex 11.9344 11.3763 0
      vertex 11.9836 11.6864 0
    endloop
  endfacet
  facet normal 0 0 -1
    outer loop
      vertex 54 0 0
      vertex 11.8532 11.0729 0
      vertex 11.9344 11.3763 0
    endloop
  endfacet
  facet normal 0 0 -1
    outer loop
      vertex 54 0 0
      vertex 11.7406 10.7798 0
      vertex 11.8532 11.0729 0
    endloop
  endfacet
  facet normal 0 0 -1
    outer loop
      vertex 54 0 0
      vertex 11.5981 10.5 0
      vertex 11.7406 10.7798 0
    endloop
  endfacet
  facet normal 0 0 -1
    outer loop
      vertex 54 0 0
      vertex 11.4271 10.2366 0
      vertex 11.5981 10.5 0
    endloop
  endfacet
  facet normal 0 0 -1
    outer loop
      vertex 54 0 0
      vertex 11.2294 9.99261 0
      vertex 11.4271 10.2366 0
    endloop
  endfacet
  facet normal 0 0 -1
    outer loop
      vertex 6 0 0
      vertex 11.2294 9.99261 0
      vertex 54 0 0
    endloop
  endfacet
  facet normal 0 0 -1
    outer loop
      vertex 11.2294 9.99261 0
      vertex 6 0 0
      vertex 11.0074 9.77057 0
    endloop
  endfacet
  facet normal 0 0 -1
    outer loop
      vertex 11.0074 9.77057 0
      vertex 6 0 0
      vertex 10.7634 9.57295 0
    endloop
  endfacet
  facet normal 0 0 -1
    outer loop
      vertex 10.7634 9.57295 0
      vertex 6 0 0
      vertex 10.5 9.40192 0
    endloop
  endfacet
  facet normal 0 0 -1
    outer loop
      vertex 10.5 9.40192 0
      vertex 6 0 0
      vertex 10.2202 9.25936 0
    endloop
  endfacet
  facet normal 0 0 -1
    outer loop
      vertex 10.2202 9.25936 0
      vertex 6 0 0
      vertex 9.92705 9.14683 0
    endloop
  endfacet
  facet normal 0 0 -1
    outer loop
      vertex 9.92705 9.14683 0
      vertex 6 0 0
      vertex 9.62373 9.06556 0
    endloop
  endfacet
  facet normal 0 0 -1
    outer loop
      vertex 9.62373 9.06556 0
      vertex 6 0 0
      vertex 9.31359 9.01643 0
    endloop
  endfacet
  facet normal 0 0 -1
    outer loop
      vertex 9.31359 9.01643 0
      vertex 6 0 0
      vertex 9 9 0
    endloop
  endfacet
  facet normal -0 0 -1
    outer loop
      vertex 9 9 0
      vertex 6 0 0
      vertex 8.68641 9.01643 0
    endloop
  endfacet
  facet normal -0 0 -1
    outer loop
      vertex 8.68641 9.01643 0
      vertex 6 0 0
      vertex 8.37626 9.06556 0
    endloop
  endfacet
  facet normal 0 0 -1
    outer loop
      vertex 6 0 0
      vertex 8.07295 9.14683 0
      vertex 8.37626 9.06556 0
    endloop
  endfacet
  facet normal 0 0 -1
    outer loop
      vertex 6 0 0
      vertex 7.77979 9.25936 0
      vertex 8.07295 9.14683 0
    endloop
  endfacet
  facet normal 0 0 -1
    outer loop
      vertex 5.37283 0.0328684 0
      vertex 7.77979 9.25936 0
      vertex 6 0 0
    endloop
  endfacet
  facet normal 0 0 -1
    outer loop
      vertex 4.75253 0.131114 0
      vertex 7.77979 9.25936 0
      vertex 5.37283 0.0328684 0
    endloop
  endfacet
  facet normal 0 0 -1
    outer loop
      vertex 4.1459 0.29366 0
      vertex 7.77979 9.25936 0
      vertex 4.75253 0.131114 0
    endloop
  endfacet
  facet normal 0 0 -1
    outer loop
      vertex 3.55958 0.518726 0
      vertex 7.77979 9.25936 0
      vertex 4.1459 0.29366 0
    endloop
  endfacet
  facet normal 0 0 -1
    outer loop
      vertex 3 0.803847 0
      vertex 7.77979 9.25936 0
      vertex 3.55958 0.518726 0
    endloop
  endfacet
  facet normal -0 0 -1
    outer loop
      vertex 7.77979 9.25936 0
      vertex 3 0.803847 0
      vertex 7.5 9.40192 0
    endloop
  endfacet
  facet normal 0 0 -1
    outer loop
      vertex 2.47329 1.1459 0
      vertex 7.5 9.40192 0
      vertex 3 0.803847 0
    endloop
  endfacet
  facet normal 0 0 -1
    outer loop
      vertex 1.98522 1.54113 0
      vertex 7.5 9.40192 0
      vertex 2.47329 1.1459 0
    endloop
  endfacet
  facet normal 0 0 -1
    outer loop
      vertex 1.54113 1.98522 0
      vertex 7.5 9.40192 0
      vertex 1.98522 1.54113 0
    endloop
  endfacet
  facet normal 0 0 -1
    outer loop
      vertex 1.1459 2.47329 0
      vertex 7.5 9.40192 0
      vertex 1.54113 1.98522 0
    endloop
  endfacet
  facet normal 0 0 -1
    outer loop
      vertex 0.803847 3 0
      vertex 7.5 9.40192 0
      vertex 1.1459 2.47329 0
    endloop
  endfacet
  facet normal -0 0 -1
    outer loop
      vertex 6.01643 11.6864 0
      vertex 0 6 0
      vertex 6 12 0
    endloop
  endfacet
  facet normal 0 0 -1
    outer loop
      vertex 0.518726 3.55958 0
      vertex 7.5 9.40192 0
      vertex 0.803847 3 0
    endloop
  endfacet
  facet normal 0 0 -1
    outer loop
      vertex 0 18 0
      vertex 6 12 0
      vertex 0 6 0
    endloop
  endfacet
  facet normal -0 0 -1
    outer loop
      vertex 7.5 9.40192 0
      vertex 0.518726 3.55958 0
      vertex 7.23664 9.57295 0
    endloop
  endfacet
  facet normal 0 0 -1
    outer loop
      vertex 6 12 0
      vertex 0 18 0
      vertex 6 24 0
    endloop
  endfacet
  facet normal 0 0 -1
    outer loop
      vertex 0.29366 4.1459 0
      vertex 7.23664 9.57295 0
      vertex 0.518726 3.55958 0
    endloop
  endfacet
  facet normal 0 0 -1
    outer loop
      vertex 6 24 0
      vertex 0 18 0
      vertex 5.37283 23.9671 0
    endloop
  endfacet
  facet normal 0 0 -1
    outer loop
      vertex 0.131114 4.75253 0
      vertex 7.23664 9.57295 0
      vertex 0.29366 4.1459 0
    endloop
  endfacet
  facet normal 0 0 -1
    outer loop
      vertex 5.37283 23.9671 0
      vertex 0 18 0
      vertex 4.75253 23.8689 0
    endloop
  endfacet
  facet normal 0 0 -1
    outer loop
      vertex 0.0328684 5.37283 0
      vertex 7.23664 9.57295 0
      vertex 0.131114 4.75253 0
    endloop
  endfacet
  facet normal 0 0 -1
    outer loop
      vertex 4.75253 23.8689 0
      vertex 0 18 0
      vertex 4.1459 23.7063 0
    endloop
  endfacet
  facet normal 0 0 -1
    outer loop
      vertex 0 6 0
      vertex 7.23664 9.57295 0
      vertex 0.0328684 5.37283 0
    endloop
  endfacet
  facet normal 0 0 -1
    outer loop
      vertex 4.1459 23.7063 0
      vertex 0 18 0
      vertex 3.55958 23.4813 0
    endloop
  endfacet
  facet normal -0 0 -1
    outer loop
      vertex 7.23664 9.57295 0
      vertex 0 6 0
      vertex 6.99261 9.77057 0
    endloop
  endfacet
  facet normal 0 0 -1
    outer loop
      vertex 3.55958 23.4813 0
      vertex 0 18 0
      vertex 3 23.1962 0
    endloop
  endfacet
  facet normal -0 0 -1
    outer loop
      vertex 6.99261 9.77057 0
      vertex 0 6 0
      vertex 6.77057 9.99261 0
    endloop
  endfacet
  facet normal 0 0 -1
    outer loop
      vertex 3 23.1962 0
      vertex 0 18 0
      vertex 2.47329 22.8541 0
    endloop
  endfacet
  facet normal -0 0 -1
    outer loop
      vertex 6.77057 9.99261 0
      vertex 0 6 0
      vertex 6.57295 10.2366 0
    endloop
  endfacet
  facet normal 0 0 -1
    outer loop
      vertex 2.47329 22.8541 0
      vertex 0 18 0
      vertex 1.98522 22.4589 0
    endloop
  endfacet
  facet normal -0 0 -1
    outer loop
      vertex 6.57295 10.2366 0
      vertex 0 6 0
      vertex 6.40192 10.5 0
    endloop
  endfacet
  facet normal 0 0 -1
    outer loop
      vertex 1.98522 22.4589 0
      vertex 0 18 0
      vertex 1.54113 22.0148 0
    endloop
  endfacet
  facet normal -0 0 -1
    outer loop
      vertex 6.06556 11.3763 0
      vertex 0 6 0
      vertex 6.01643 11.6864 0
    endloop
  endfacet
  facet normal 0 0 -1
    outer loop
      vertex 1.54113 22.0148 0
      vertex 0 18 0
      vertex 1.1459 21.5267 0
    endloop
  endfacet
  facet normal -0 0 -1
    outer loop
      vertex 6.40192 10.5 0
      vertex 0 6 0
      vertex 6.25936 10.7798 0
    endloop
  endfacet
  facet normal 0 0 -1
    outer loop
      vertex 1.1459 21.5267 0
      vertex 0 18 0
      vertex 0.803847 21 0
    endloop
  endfacet
  facet normal -0 0 -1
    outer loop
      vertex 6.25936 10.7798 0
      vertex 0 6 0
      vertex 6.14683 11.0729 0
    endloop
  endfacet
  facet normal 0 0 -1
    outer loop
      vertex 0.803847 21 0
      vertex 0 18 0
      vertex 0.518726 20.4404 0
    endloop
  endfacet
  facet normal -0 0 -1
    outer loop
      vertex 6.14683 11.0729 0
      vertex 0 6 0
      vertex 6.06556 11.3763 0
    endloop
  endfacet
  facet normal 0 0 -1
    outer loop
      vertex 0.518726 20.4404 0
      vertex 0 18 0
      vertex 0.29366 19.8541 0
    endloop
  endfacet
  facet normal 0 0 -1
    outer loop
      vertex 0.29366 19.8541 0
      vertex 0 18 0
      vertex 0.131114 19.2475 0
    endloop
  endfacet
  facet normal 0 0 -1
    outer loop
      vertex 0.131114 19.2475 0
      vertex 0 18 0
      vertex 0.0328684 18.6272 0
    endloop
  endfacet
  facet normal 0 0 -1
    outer loop
      vertex 11.9836 12.3136 0
      vertex 54 24 0
      vertex 12 12 0
    endloop
  endfacet
  facet normal 0 0 -1
    outer loop
      vertex 11.9344 12.6237 0
      vertex 54 24 0
      vertex 11.9836 12.3136 0
    endloop
  endfacet
  facet normal 0 0 -1
    outer loop
      vertex 11.8532 12.9271 0
      vertex 54 24 0
      vertex 11.9344 12.6237 0
    endloop
  endfacet
  facet normal 0 0 -1
    outer loop
      vertex 11.7406 13.2202 0
      vertex 54 24 0
      vertex 11.8532 12.9271 0
    endloop
  endfacet
  facet normal 0 0 -1
    outer loop
      vertex 11.5981 13.5 0
      vertex 54 24 0
      vertex 11.7406 13.2202 0
    endloop
  endfacet
  facet normal 0 0 -1
    outer loop
      vertex 11.4271 13.7634 0
      vertex 54 24 0
      vertex 11.5981 13.5 0
    endloop
  endfacet
  facet normal 0 0 -1
    outer loop
      vertex 11.2294 14.0074 0
      vertex 54 24 0
      vertex 11.4271 13.7634 0
    endloop
  endfacet
  facet normal 0 0 -1
    outer loop
      vertex 6 24 0
      vertex 11.2294 14.0074 0
      vertex 11.0074 14.2294 0
    endloop
  endfacet
  facet normal 0 0 -1
    outer loop
      vertex 6 24 0
      vertex 11.0074 14.2294 0
      vertex 10.7634 14.4271 0
    endloop
  endfacet
  facet normal 0 0 -1
    outer loop
      vertex 6 24 0
      vertex 10.7634 14.4271 0
      vertex 10.5 14.5981 0
    endloop
  endfacet
  facet normal 0 0 -1
    outer loop
      vertex 6 24 0
      vertex 10.5 14.5981 0
      vertex 10.2202 14.7406 0
    endloop
  endfacet
  facet normal 0 0 -1
    outer loop
      vertex 6 24 0
      vertex 10.2202 14.7406 0
      vertex 9.92705 14.8532 0
    endloop
  endfacet
  facet normal 0 0 -1
    outer loop
      vertex 6 24 0
      vertex 9.92705 14.8532 0
      vertex 9.62373 14.9344 0
    endloop
  endfacet
  facet normal 0 0 -1
    outer loop
      vertex 6 24 0
      vertex 9.62373 14.9344 0
      vertex 9.31359 14.9836 0
    endloop
  endfacet
  facet normal 0 0 -1
    outer loop
      vertex 6 24 0
      vertex 9.31359 14.9836 0
      vertex 9 15 0
    endloop
  endfacet
  facet normal 0 0 -1
    outer loop
      vertex 6 24 0
      vertex 9 15 0
      vertex 8.68641 14.9836 0
    endloop
  endfacet
  facet normal 0 0 -1
    outer loop
      vertex 6 24 0
      vertex 8.68641 14.9836 0
      vertex 8.37626 14.9344 0
    endloop
  endfacet
  facet normal 0 0 -1
    outer loop
      vertex 11.2294 14.0074 0
      vertex 6 24 0
      vertex 54 24 0
    endloop
  endfacet
  facet normal 0 0 -1
    outer loop
      vertex 8.07295 14.8532 0
      vertex 6 24 0
      vertex 8.37626 14.9344 0
    endloop
  endfacet
  facet normal 0 0 -1
    outer loop
      vertex 7.77979 14.7406 0
      vertex 6 24 0
      vertex 8.07295 14.8532 0
    endloop
  endfacet
  facet normal 0 0 -1
    outer loop
      vertex 7.5 14.5981 0
      vertex 6 24 0
      vertex 7.77979 14.7406 0
    endloop
  endfacet
  facet normal 0 0 -1
    outer loop
      vertex 7.23664 14.4271 0
      vertex 6 24 0
      vertex 7.5 14.5981 0
    endloop
  endfacet
  facet normal 0 0 -1
    outer loop
      vertex 6.99261 14.2294 0
      vertex 6 24 0
      vertex 7.23664 14.4271 0
    endloop
  endfacet
  facet normal 0 0 -1
    outer loop
      vertex 6.77057 14.0074 0
      vertex 6 24 0
      vertex 6.99261 14.2294 0
    endloop
  endfacet
  facet normal 0 0 -1
    outer loop
      vertex 6.57295 13.7634 0
      vertex 6 24 0
      vertex 6.77057 14.0074 0
    endloop
  endfacet
  facet normal 0 0 -1
    outer loop
      vertex 6.40192 13.5 0
      vertex 6 24 0
      vertex 6.57295 13.7634 0
    endloop
  endfacet
  facet normal 0 0 -1
    outer loop
      vertex 6.25936 13.2202 0
      vertex 6 24 0
      vertex 6.40192 13.5 0
    endloop
  endfacet
  facet normal 0 0 -1
    outer loop
      vertex 6.14683 12.9271 0
      vertex 6 24 0
      vertex 6.25936 13.2202 0
    endloop
  endfacet
  facet normal 0 0 -1
    outer loop
      vertex 6.06556 12.6237 0
      vertex 6 24 0
      vertex 6.14683 12.9271 0
    endloop
  endfacet
  facet normal 0 0 -1
    outer loop
      vertex 6.01643 12.3136 0
      vertex 6 24 0
      vertex 6.06556 12.6237 0
    endloop
  endfacet
  facet normal 0 0 -1
    outer loop
      vertex 6 24 0
      vertex 6.01643 12.3136 0
      vertex 6 12 0
    endloop
  endfacet
  facet normal 0.544703 0.838629 -0
    outer loop
      vertex 57.5267 22.8541 0
      vertex 57 23.1962 4
      vertex 57.5267 22.8541 4
    endloop
  endfacet
  facet normal 0.544703 0.838629 0
    outer loop
      vertex 57 23.1962 4
      vertex 57.5267 22.8541 0
      vertex 57 23.1962 0
    endloop
  endfacet
  facet normal -0 0 1
    outer loop
      vertex 32.9596 15.0087 4
      vertex 38.0591 12.6081 4
      vertex 38.4728 15.0087 4
    endloop
  endfacet
  facet normal 0 0 1
    outer loop
      vertex 38.0591 12.6081 4
      vertex 32.9596 15.0087 4
      vertex 32.9596 12.6081 4
    endloop
  endfacet
  facet normal -0 0 1
    outer loop
      vertex 38.4728 15.0087 4
      vertex 42.9354 10.9196 4
      vertex 39.5312 16.5548 4
    endloop
  endfacet
  facet normal 0 0 1
    outer loop
      vertex 48.3333 16.5548 4
      vertex 60 18 4
      vertex 59.9671 18.6272 4
    endloop
  endfacet
  facet normal 0 0 1
    outer loop
      vertex 60 18 4
      vertex 48.3333 16.5548 4
      vertex 60 6 4
    endloop
  endfacet
  facet normal 0 0 1
    outer loop
      vertex 48.3333 16.5548 4
      vertex 59.9671 18.6272 4
      vertex 59.8689 19.2475 4
    endloop
  endfacet
  facet normal -0 0 1
    outer loop
      vertex 44.9291 10.9196 4
      vertex 60 6 4
      vertex 48.3333 16.5548 4
    endloop
  endfacet
  facet normal 0 0 1
    outer loop
      vertex 48.3333 16.5548 4
      vertex 59.8689 19.2475 4
      vertex 59.7063 19.8541 4
    endloop
  endfacet
  facet normal -0 0 1
    outer loop
      vertex 44.9291 7 4
      vertex 60 6 4
      vertex 44.9291 10.9196 4
    endloop
  endfacet
  facet normal 0 0 1
    outer loop
      vertex 48.3333 16.5548 4
      vertex 59.7063 19.8541 4
      vertex 59.4813 20.4404 4
    endloop
  endfacet
  facet normal 0 -0 1
    outer loop
      vertex 54 0 4
      vertex 60 6 4
      vertex 44.9291 7 4
    endloop
  endfacet
  facet normal 0 0 1
    outer loop
      vertex 48.3333 16.5548 4
      vertex 59.4813 20.4404 4
      vertex 59.1962 21 4
    endloop
  endfacet
  facet normal 0 0 1
    outer loop
      vertex 60 6 4
      vertex 54 0 4
      vertex 59.9671 5.37283 4
    endloop
  endfacet
  facet normal 0 0 1
    outer loop
      vertex 48.3333 16.5548 4
      vertex 59.1962 21 4
      vertex 58.8541 21.5267 4
    endloop
  endfacet
  facet normal 0 0 1
    outer loop
      vertex 59.9671 5.37283 4
      vertex 54 0 4
      vertex 59.8689 4.75253 4
    endloop
  endfacet
  facet normal 0 0 1
    outer loop
      vertex 48.3333 16.5548 4
      vertex 58.8541 21.5267 4
      vertex 58.4589 22.0148 4
    endloop
  endfacet
  facet normal 0 0 1
    outer loop
      vertex 59.8689 4.75253 4
      vertex 54 0 4
      vertex 59.7063 4.1459 4
    endloop
  endfacet
  facet normal 0 0 1
    outer loop
      vertex 48.3333 16.5548 4
      vertex 58.4589 22.0148 4
      vertex 58.0148 22.4589 4
    endloop
  endfacet
  facet normal 0 0 1
    outer loop
      vertex 59.7063 4.1459 4
      vertex 54 0 4
      vertex 59.4813 3.55958 4
    endloop
  endfacet
  facet normal 0 0 1
    outer loop
      vertex 48.3333 16.5548 4
      vertex 58.0148 22.4589 4
      vertex 57.5267 22.8541 4
    endloop
  endfacet
  facet normal 0 0 1
    outer loop
      vertex 59.4813 3.55958 4
      vertex 54 0 4
      vertex 59.1962 3 4
    endloop
  endfacet
  facet normal 0 0 1
    outer loop
      vertex 48.3333 16.5548 4
      vertex 57.5267 22.8541 4
      vertex 57 23.1962 4
    endloop
  endfacet
  facet normal 0 0 1
    outer loop
      vertex 59.1962 3 4
      vertex 54 0 4
      vertex 58.8541 2.47329 4
    endloop
  endfacet
  facet normal 0 0 1
    outer loop
      vertex 48.3333 16.5548 4
      vertex 57 23.1962 4
      vertex 56.4404 23.4813 4
    endloop
  endfacet
  facet normal 0 0 1
    outer loop
      vertex 58.8541 2.47329 4
      vertex 54 0 4
      vertex 58.4589 1.98522 4
    endloop
  endfacet
  facet normal 0 0 1
    outer loop
      vertex 48.3333 16.5548 4
      vertex 56.4404 23.4813 4
      vertex 55.8541 23.7063 4
    endloop
  endfacet
  facet normal 0 0 1
    outer loop
      vertex 58.4589 1.98522 4
      vertex 54 0 4
      vertex 58.0148 1.54113 4
    endloop
  endfacet
  facet normal 0 0 1
    outer loop
      vertex 48.3333 16.5548 4
      vertex 55.8541 23.7063 4
      vertex 55.2475 23.8689 4
    endloop
  endfacet
  facet normal 0 0 1
    outer loop
      vertex 58.0148 1.54113 4
      vertex 54 0 4
      vertex 57.5267 1.1459 4
    endloop
  endfacet
  facet normal 0 0 1
    outer loop
      vertex 48.3333 16.5548 4
      vertex 55.2475 23.8689 4
      vertex 54.6272 23.9671 4
    endloop
  endfacet
  facet normal 0 0 1
    outer loop
      vertex 57.5267 1.1459 4
      vertex 54 0 4
      vertex 57 0.803847 4
    endloop
  endfacet
  facet normal 0 0 1
    outer loop
      vertex 48.3333 16.5548 4
      vertex 54.6272 23.9671 4
      vertex 54 24 4
    endloop
  endfacet
  facet normal 0 0 1
    outer loop
      vertex 57 0.803847 4
      vertex 54 0 4
      vertex 56.4404 0.518726 4
    endloop
  endfacet
  facet normal 0 0 1
    outer loop
      vertex 55.8541 0.29366 4
      vertex 54 0 4
      vertex 55.2475 0.131114 4
    endloop
  endfacet
  facet normal 0 0 1
    outer loop
      vertex 54 24 4
      vertex 46.2379 16.5548 4
      vertex 48.3333 16.5548 4
    endloop
  endfacet
  facet normal 0 0 1
    outer loop
      vertex 46.2379 16.5548 4
      vertex 41.6267 16.5548 4
      vertex 43.9187 12.5132 4
    endloop
  endfacet
  facet normal 0 0 1
    outer loop
      vertex 54 24 4
      vertex 41.6267 16.5548 4
      vertex 46.2379 16.5548 4
    endloop
  endfacet
  facet normal 0 0 1
    outer loop
      vertex 54 24 4
      vertex 39.5312 16.5548 4
      vertex 41.6267 16.5548 4
    endloop
  endfacet
  facet normal 0 0 1
    outer loop
      vertex 38.4728 15.0087 4
      vertex 39.5312 16.5548 4
      vertex 38.4728 16.5548 4
    endloop
  endfacet
  facet normal 0 0 1
    outer loop
      vertex 54 24 4
      vertex 38.4728 16.5548 4
      vertex 39.5312 16.5548 4
    endloop
  endfacet
  facet normal 0 0 1
    outer loop
      vertex 54 24 4
      vertex 30.9591 16.5548 4
      vertex 38.4728 16.5548 4
    endloop
  endfacet
  facet normal 0 0 1
    outer loop
      vertex 30.9591 16.5548 4
      vertex 29.9006 7 4
      vertex 30.9591 7 4
    endloop
  endfacet
  facet normal 0 0 1
    outer loop
      vertex 30.9591 16.5548 4
      vertex 29.5683 16.5548 4
      vertex 29.9006 7 4
    endloop
  endfacet
  facet normal 0 0 1
    outer loop
      vertex 54 24 4
      vertex 29.5683 16.5548 4
      vertex 30.9591 16.5548 4
    endloop
  endfacet
  facet normal -0 0 1
    outer loop
      vertex 6 24 4
      vertex 29.5683 16.5548 4
      vertex 54 24 4
    endloop
  endfacet
  facet normal 0 0 1
    outer loop
      vertex 29.5683 16.5548 4
      vertex 6 24 4
      vertex 27.2356 16.5548 4
    endloop
  endfacet
  facet normal 0 0 1
    outer loop
      vertex 27.2356 16.5548 4
      vertex 6 24 4
      vertex 22.9295 16.5548 4
    endloop
  endfacet
  facet normal 0 0 1
    outer loop
      vertex 20.929 16.5548 4
      vertex 12 12 4
      vertex 20.929 7 4
    endloop
  endfacet
  facet normal 0 0 1
    outer loop
      vertex 20.929 16.5548 4
      vertex 11.9836 12.3136 4
      vertex 12 12 4
    endloop
  endfacet
  facet normal 0 0 1
    outer loop
      vertex 20.929 16.5548 4
      vertex 11.9344 12.6237 4
      vertex 11.9836 12.3136 4
    endloop
  endfacet
  facet normal 0 0 1
    outer loop
      vertex 20.929 16.5548 4
      vertex 11.8532 12.9271 4
      vertex 11.9344 12.6237 4
    endloop
  endfacet
  facet normal 0 0 1
    outer loop
      vertex 20.929 16.5548 4
      vertex 11.7406 13.2202 4
      vertex 11.8532 12.9271 4
    endloop
  endfacet
  facet normal 0 0 1
    outer loop
      vertex 20.929 16.5548 4
      vertex 11.5981 13.5 4
      vertex 11.7406 13.2202 4
    endloop
  endfacet
  facet normal 0 0 1
    outer loop
      vertex 20.929 16.5548 4
      vertex 11.4271 13.7634 4
      vertex 11.5981 13.5 4
    endloop
  endfacet
  facet normal 0 0 1
    outer loop
      vertex 20.929 16.5548 4
      vertex 11.2294 14.0074 4
      vertex 11.4271 13.7634 4
    endloop
  endfacet
  facet normal 0 0 1
    outer loop
      vertex 20.929 16.5548 4
      vertex 11.0074 14.2294 4
      vertex 11.2294 14.0074 4
    endloop
  endfacet
  facet normal 0 0 1
    outer loop
      vertex 20.929 16.5548 4
      vertex 10.7634 14.4271 4
      vertex 11.0074 14.2294 4
    endloop
  endfacet
  facet normal 0 0 1
    outer loop
      vertex 22.9295 16.5548 4
      vertex 6 24 4
      vertex 20.929 16.5548 4
    endloop
  endfacet
  facet normal 0 -0 1
    outer loop
      vertex 10.5 14.5981 4
      vertex 20.929 16.5548 4
      vertex 6 24 4
    endloop
  endfacet
  facet normal 0 0 1
    outer loop
      vertex 20.929 16.5548 4
      vertex 10.5 14.5981 4
      vertex 10.7634 14.4271 4
    endloop
  endfacet
  facet normal 0 0 1
    outer loop
      vertex 10.5 14.5981 4
      vertex 6 24 4
      vertex 10.2202 14.7406 4
    endloop
  endfacet
  facet normal 0 0 1
    outer loop
      vertex 10.2202 14.7406 4
      vertex 6 24 4
      vertex 9.92705 14.8532 4
    endloop
  endfacet
  facet normal 0 0 1
    outer loop
      vertex 9.92705 14.8532 4
      vertex 6 24 4
      vertex 9.62373 14.9344 4
    endloop
  endfacet
  facet normal 0 0 1
    outer loop
      vertex 9.62373 14.9344 4
      vertex 6 24 4
      vertex 9.31359 14.9836 4
    endloop
  endfacet
  facet normal 0 0 1
    outer loop
      vertex 9.31359 14.9836 4
      vertex 6 24 4
      vertex 9 15 4
    endloop
  endfacet
  facet normal 0 0 1
    outer loop
      vertex 9 15 4
      vertex 6 24 4
      vertex 8.68641 14.9836 4
    endloop
  endfacet
  facet normal 0 0 1
    outer loop
      vertex 8.68641 14.9836 4
      vertex 6 24 4
      vertex 8.37626 14.9344 4
    endloop
  endfacet
  facet normal 0 0 1
    outer loop
      vertex 6 24 4
      vertex 8.07295 14.8532 4
      vertex 8.37626 14.9344 4
    endloop
  endfacet
  facet normal 0 0 1
    outer loop
      vertex 6 24 4
      vertex 7.77979 14.7406 4
      vertex 8.07295 14.8532 4
    endloop
  endfacet
  facet normal -0 0 1
    outer loop
      vertex 5.37283 23.9671 4
      vertex 7.77979 14.7406 4
      vertex 6 24 4
    endloop
  endfacet
  facet normal -0 0 1
    outer loop
      vertex 4.75253 23.8689 4
      vertex 7.77979 14.7406 4
      vertex 5.37283 23.9671 4
    endloop
  endfacet
  facet normal -0 0 1
    outer loop
      vertex 4.1459 23.7063 4
      vertex 7.77979 14.7406 4
      vertex 4.75253 23.8689 4
    endloop
  endfacet
  facet normal -0 0 1
    outer loop
      vertex 3.55958 23.4813 4
      vertex 7.77979 14.7406 4
      vertex 4.1459 23.7063 4
    endloop
  endfacet
  facet normal -0 0 1
    outer loop
      vertex 3 23.1962 4
      vertex 7.77979 14.7406 4
      vertex 3.55958 23.4813 4
    endloop
  endfacet
  facet normal 0 0 1
    outer loop
      vertex 7.77979 14.7406 4
      vertex 3 23.1962 4
      vertex 7.5 14.5981 4
    endloop
  endfacet
  facet normal -0 0 1
    outer loop
      vertex 2.47329 22.8541 4
      vertex 7.5 14.5981 4
      vertex 3 23.1962 4
    endloop
  endfacet
  facet normal -0 0 1
    outer loop
      vertex 1.98522 22.4589 4
      vertex 7.5 14.5981 4
      vertex 2.47329 22.8541 4
    endloop
  endfacet
  facet normal -0 0 1
    outer loop
      vertex 1.54113 22.0148 4
      vertex 7.5 14.5981 4
      vertex 1.98522 22.4589 4
    endloop
  endfacet
  facet normal -0 0 1
    outer loop
      vertex 1.1459 21.5267 4
      vertex 7.5 14.5981 4
      vertex 1.54113 22.0148 4
    endloop
  endfacet
  facet normal -0 0 1
    outer loop
      vertex 0.803847 21 4
      vertex 7.5 14.5981 4
      vertex 1.1459 21.5267 4
    endloop
  endfacet
  facet normal 0 0 1
    outer loop
      vertex 6.01643 12.3136 4
      vertex 0 18 4
      vertex 6 12 4
    endloop
  endfacet
  facet normal -0 0 1
    outer loop
      vertex 0.518726 20.4404 4
      vertex 7.5 14.5981 4
      vertex 0.803847 21 4
    endloop
  endfacet
  facet normal 0 0 1
    outer loop
      vertex 0 6 4
      vertex 6 12 4
      vertex 0 18 4
    endloop
  endfacet
  facet normal 0 0 1
    outer loop
      vertex 7.5 14.5981 4
      vertex 0.518726 20.4404 4
      vertex 7.23664 14.4271 4
    endloop
  endfacet
  facet normal 0 0 1
    outer loop
      vertex 6 12 4
      vertex 0 6 4
      vertex 6 0 4
    endloop
  endfacet
  facet normal -0 0 1
    outer loop
      vertex 0.29366 19.8541 4
      vertex 7.23664 14.4271 4
      vertex 0.518726 20.4404 4
    endloop
  endfacet
  facet normal 0 0 1
    outer loop
      vertex 6 0 4
      vertex 0 6 4
      vertex 5.37283 0.0328684 4
    endloop
  endfacet
  facet normal -0 0 1
    outer loop
      vertex 0.131114 19.2475 4
      vertex 7.23664 14.4271 4
      vertex 0.29366 19.8541 4
    endloop
  endfacet
  facet normal 0 0 1
    outer loop
      vertex 5.37283 0.0328684 4
      vertex 0 6 4
      vertex 4.75253 0.131114 4
    endloop
  endfacet
  facet normal -0 0 1
    outer loop
      vertex 0.0328684 18.6272 4
      vertex 7.23664 14.4271 4
      vertex 0.131114 19.2475 4
    endloop
  endfacet
  facet normal 0 0 1
    outer loop
      vertex 4.75253 0.131114 4
      vertex 0 6 4
      vertex 4.1459 0.29366 4
    endloop
  endfacet
  facet normal -0 0 1
    outer loop
      vertex 0 18 4
      vertex 7.23664 14.4271 4
      vertex 0.0328684 18.6272 4
    endloop
  endfacet
  facet normal 0 0 1
    outer loop
      vertex 4.1459 0.29366 4
      vertex 0 6 4
      vertex 3.55958 0.518726 4
    endloop
  endfacet
  facet normal 0 0 1
    outer loop
      vertex 7.23664 14.4271 4
      vertex 0 18 4
      vertex 6.99261 14.2294 4
    endloop
  endfacet
  facet normal 0 0 1
    outer loop
      vertex 3.55958 0.518726 4
      vertex 0 6 4
      vertex 3 0.803847 4
    endloop
  endfacet
  facet normal 0 0 1
    outer loop
      vertex 6.99261 14.2294 4
      vertex 0 18 4
      vertex 6.77057 14.0074 4
    endloop
  endfacet
  facet normal 0 0 1
    outer loop
      vertex 3 0.803847 4
      vertex 0 6 4
      vertex 2.47329 1.1459 4
    endloop
  endfacet
  facet normal 0 0 1
    outer loop
      vertex 6.77057 14.0074 4
      vertex 0 18 4
      vertex 6.57295 13.7634 4
    endloop
  endfacet
  facet normal 0 0 1
    outer loop
      vertex 2.47329 1.1459 4
      vertex 0 6 4
      vertex 1.98522 1.54113 4
    endloop
  endfacet
  facet normal 0 0 1
    outer loop
      vertex 6.57295 13.7634 4
      vertex 0 18 4
      vertex 6.40192 13.5 4
    endloop
  endfacet
  facet normal 0 0 1
    outer loop
      vertex 1.98522 1.54113 4
      vertex 0 6 4
      vertex 1.54113 1.98522 4
    endloop
  endfacet
  facet normal 0 0 1
    outer loop
      vertex 6.06556 12.6237 4
      vertex 0 18 4
      vertex 6.01643 12.3136 4
    endloop
  endfacet
  facet normal 0 0 1
    outer loop
      vertex 1.54113 1.98522 4
      vertex 0 6 4
      vertex 1.1459 2.47329 4
    endloop
  endfacet
  facet normal 0 0 1
    outer loop
      vertex 6.40192 13.5 4
      vertex 0 18 4
      vertex 6.25936 13.2202 4
    endloop
  endfacet
  facet normal 0 0 1
    outer loop
      vertex 1.1459 2.47329 4
      vertex 0 6 4
      vertex 0.803847 3 4
    endloop
  endfacet
  facet normal 0 0 1
    outer loop
      vertex 6.25936 13.2202 4
      vertex 0 18 4
      vertex 6.14683 12.9271 4
    endloop
  endfacet
  facet normal 0 0 1
    outer loop
      vertex 0.803847 3 4
      vertex 0 6 4
      vertex 0.518726 3.55958 4
    endloop
  endfacet
  facet normal 0 0 1
    outer loop
      vertex 6.14683 12.9271 4
      vertex 0 18 4
      vertex 6.06556 12.6237 4
    endloop
  endfacet
  facet normal 0 0 1
    outer loop
      vertex 0.518726 3.55958 4
      vertex 0 6 4
      vertex 0.29366 4.1459 4
    endloop
  endfacet
  facet normal 0 0 1
    outer loop
      vertex 0.29366 4.1459 4
      vertex 0 6 4
      vertex 0.131114 4.75253 4
    endloop
  endfacet
  facet normal 0 0 1
    outer loop
      vertex 0.131114 4.75253 4
      vertex 0 6 4
      vertex 0.0328684 5.37283 4
    endloop
  endfacet
  facet normal 0 0 1
    outer loop
      vertex 55.2475 0.131114 4
      vertex 54 0 4
      vertex 54.6272 0.0328684 4
    endloop
  endfacet
  facet normal 0 0 1
    outer loop
      vertex 56.4404 0.518726 4
      vertex 54 0 4
      vertex 55.8541 0.29366 4
    endloop
  endfacet
  facet normal -0 0 1
    outer loop
      vertex 42.9354 7 4
      vertex 54 0 4
      vertex 44.9291 7 4
    endloop
  endfacet
  facet normal 0 0 1
    outer loop
      vertex 42.9354 10.9196 4
      vertex 38.7508 8.5461 4
      vertex 42.9354 7 4
    endloop
  endfacet
  facet normal 0 0 1
    outer loop
      vertex 38.7508 7 4
      vertex 42.9354 7 4
      vertex 38.7508 8.5461 4
    endloop
  endfacet
  facet normal 0 0 1
    outer loop
      vertex 42.9354 7 4
      vertex 38.7508 7 4
      vertex 54 0 4
    endloop
  endfacet
  facet normal -0 0 1
    outer loop
      vertex 30.9591 7 4
      vertex 54 0 4
      vertex 38.7508 7 4
    endloop
  endfacet
  facet normal -0 0 1
    outer loop
      vertex 29.9006 7 4
      vertex 54 0 4
      vertex 30.9591 7 4
    endloop
  endfacet
  facet normal 0 0 1
    outer loop
      vertex 6 0 4
      vertex 29.9006 7 4
      vertex 27.5408 7 4
    endloop
  endfacet
  facet normal 0 0 1
    outer loop
      vertex 22.9295 7 4
      vertex 24.1094 11.3875 4
      vertex 22.9295 10.4856 4
    endloop
  endfacet
  facet normal 0 0 1
    outer loop
      vertex 24.1094 11.3875 4
      vertex 22.9295 7 4
      vertex 27.5408 7 4
    endloop
  endfacet
  facet normal 0 0 1
    outer loop
      vertex 6 0 4
      vertex 27.5408 7 4
      vertex 22.9295 7 4
    endloop
  endfacet
  facet normal 0 0 1
    outer loop
      vertex 6 0 4
      vertex 22.9295 7 4
      vertex 20.929 7 4
    endloop
  endfacet
  facet normal -0 0 1
    outer loop
      vertex 11.9836 11.6864 4
      vertex 20.929 7 4
      vertex 12 12 4
    endloop
  endfacet
  facet normal -0 0 1
    outer loop
      vertex 11.9344 11.3763 4
      vertex 20.929 7 4
      vertex 11.9836 11.6864 4
    endloop
  endfacet
  facet normal -0 0 1
    outer loop
      vertex 11.8532 11.0729 4
      vertex 20.929 7 4
      vertex 11.9344 11.3763 4
    endloop
  endfacet
  facet normal -0 0 1
    outer loop
      vertex 11.7406 10.7798 4
      vertex 20.929 7 4
      vertex 11.8532 11.0729 4
    endloop
  endfacet
  facet normal -0 0 1
    outer loop
      vertex 11.5981 10.5 4
      vertex 20.929 7 4
      vertex 11.7406 10.7798 4
    endloop
  endfacet
  facet normal -0 0 1
    outer loop
      vertex 11.4271 10.2366 4
      vertex 20.929 7 4
      vertex 11.5981 10.5 4
    endloop
  endfacet
  facet normal -0 0 1
    outer loop
      vertex 11.2294 9.99261 4
      vertex 20.929 7 4
      vertex 11.4271 10.2366 4
    endloop
  endfacet
  facet normal -0 0 1
    outer loop
      vertex 11.0074 9.77057 4
      vertex 20.929 7 4
      vertex 11.2294 9.99261 4
    endloop
  endfacet
  facet normal -0 0 1
    outer loop
      vertex 10.7634 9.57295 4
      vertex 20.929 7 4
      vertex 11.0074 9.77057 4
    endloop
  endfacet
  facet normal -0 0 1
    outer loop
      vertex 10.5 9.40192 4
      vertex 20.929 7 4
      vertex 10.7634 9.57295 4
    endloop
  endfacet
  facet normal -0 0 1
    outer loop
      vertex 10.2202 9.25936 4
      vertex 20.929 7 4
      vertex 10.5 9.40192 4
    endloop
  endfacet
  facet normal 0 0 1
    outer loop
      vertex 6 0 4
      vertex 20.929 7 4
      vertex 10.2202 9.25936 4
    endloop
  endfacet
  facet normal 0 0 1
    outer loop
      vertex 6 0 4
      vertex 10.2202 9.25936 4
      vertex 9.92705 9.14683 4
    endloop
  endfacet
  facet normal 0 0 1
    outer loop
      vertex 6 0 4
      vertex 9.92705 9.14683 4
      vertex 9.62373 9.06556 4
    endloop
  endfacet
  facet normal 0 0 1
    outer loop
      vertex 6 0 4
      vertex 9.62373 9.06556 4
      vertex 9.31359 9.01643 4
    endloop
  endfacet
  facet normal 0 0 1
    outer loop
      vertex 6 0 4
      vertex 9.31359 9.01643 4
      vertex 9 9 4
    endloop
  endfacet
  facet normal 0 0 1
    outer loop
      vertex 6 0 4
      vertex 9 9 4
      vertex 8.68641 9.01643 4
    endloop
  endfacet
  facet normal 0 0 1
    outer loop
      vertex 6 0 4
      vertex 8.68641 9.01643 4
      vertex 8.37626 9.06556 4
    endloop
  endfacet
  facet normal 0 0 1
    outer loop
      vertex 29.9006 7 4
      vertex 6 0 4
      vertex 54 0 4
    endloop
  endfacet
  facet normal 0 0 1
    outer loop
      vertex 8.07295 9.14683 4
      vertex 6 0 4
      vertex 8.37626 9.06556 4
    endloop
  endfacet
  facet normal 0 0 1
    outer loop
      vertex 7.77979 9.25936 4
      vertex 6 0 4
      vertex 8.07295 9.14683 4
    endloop
  endfacet
  facet normal 0 0 1
    outer loop
      vertex 7.5 9.40192 4
      vertex 6 0 4
      vertex 7.77979 9.25936 4
    endloop
  endfacet
  facet normal 0 0 1
    outer loop
      vertex 7.23664 9.57295 4
      vertex 6 0 4
      vertex 7.5 9.40192 4
    endloop
  endfacet
  facet normal 0 0 1
    outer loop
      vertex 6.99261 9.77057 4
      vertex 6 0 4
      vertex 7.23664 9.57295 4
    endloop
  endfacet
  facet normal 0 0 1
    outer loop
      vertex 6.77057 9.99261 4
      vertex 6 0 4
      vertex 6.99261 9.77057 4
    endloop
  endfacet
  facet normal 0 0 1
    outer loop
      vertex 6.57295 10.2366 4
      vertex 6 0 4
      vertex 6.77057 9.99261 4
    endloop
  endfacet
  facet normal 0 0 1
    outer loop
      vertex 6.40192 10.5 4
      vertex 6 0 4
      vertex 6.57295 10.2366 4
    endloop
  endfacet
  facet normal 0 0 1
    outer loop
      vertex 6.25936 10.7798 4
      vertex 6 0 4
      vertex 6.40192 10.5 4
    endloop
  endfacet
  facet normal 0 0 1
    outer loop
      vertex 6.14683 11.0729 4
      vertex 6 0 4
      vertex 6.25936 10.7798 4
    endloop
  endfacet
  facet normal 0 0 1
    outer loop
      vertex 6.06556 11.3763 4
      vertex 6 0 4
      vertex 6.14683 11.0729 4
    endloop
  endfacet
  facet normal 0 0 1
    outer loop
      vertex 6.01643 11.6864 4
      vertex 6 0 4
      vertex 6.06556 11.3763 4
    endloop
  endfacet
  facet normal 0 0 1
    outer loop
      vertex 6 0 4
      vertex 6.01643 11.6864 4
      vertex 6 12 4
    endloop
  endfacet
  facet normal 0 0 1
    outer loop
      vertex 42.9354 10.9196 4
      vertex 38.4728 15.0087 4
      vertex 38.0591 12.6081 4
    endloop
  endfacet
  facet normal -0 0 1
    outer loop
      vertex 38.0591 11.062 4
      vertex 42.9354 10.9196 4
      vertex 38.0591 12.6081 4
    endloop
  endfacet
  facet normal 0 0 1
    outer loop
      vertex 42.9354 10.9196 4
      vertex 38.0591 11.062 4
      vertex 38.7508 8.5461 4
    endloop
  endfacet
  facet normal 0 0 1
    outer loop
      vertex 32.9596 8.5461 4
      vertex 38.0591 11.062 4
      vertex 32.9596 11.062 4
    endloop
  endfacet
  facet normal 0 0 1
    outer loop
      vertex 38.0591 11.062 4
      vertex 32.9596 8.5461 4
      vertex 38.7508 8.5461 4
    endloop
  endfacet
  facet normal 0 0 1
    outer loop
      vertex 29.9006 7 4
      vertex 29.5683 16.5548 4
      vertex 25.486 12.5132 4
    endloop
  endfacet
  facet normal 0 0 1
    outer loop
      vertex 27.2356 16.5548 4
      vertex 22.9295 16.5548 4
      vertex 22.9295 12.2216 4
    endloop
  endfacet
  facet normal 0.62949 -0.777008 0
    outer loop
      vertex 6.99261 14.2294 0
      vertex 7.23664 14.4271 4
      vertex 6.99261 14.2294 4
    endloop
  endfacet
  facet normal 0.62949 -0.777008 0
    outer loop
      vertex 7.23664 14.4271 4
      vertex 6.99261 14.2294 0
      vertex 7.23664 14.4271 0
    endloop
  endfacet
  facet normal -0.998635 -0.0522246 0
    outer loop
      vertex 12 12 0
      vertex 11.9836 12.3136 4
      vertex 11.9836 12.3136 0
    endloop
  endfacet
  facet normal -0.998635 -0.0522246 0
    outer loop
      vertex 11.9836 12.3136 4
      vertex 12 12 0
      vertex 12 12 4
    endloop
  endfacet
  facet normal 0.777095 -0.629383 0
    outer loop
      vertex 6.57295 13.7634 4
      vertex 6.77057 14.0074 0
      vertex 6.77057 14.0074 4
    endloop
  endfacet
  facet normal 0.777095 -0.629383 0
    outer loop
      vertex 6.77057 14.0074 0
      vertex 6.57295 13.7634 4
      vertex 6.57295 13.7634 0
    endloop
  endfacet
  facet normal -0.629537 -0.77697 0
    outer loop
      vertex 10.7634 14.4271 0
      vertex 11.0074 14.2294 4
      vertex 10.7634 14.4271 4
    endloop
  endfacet
  facet normal -0.629537 -0.77697 -0
    outer loop
      vertex 11.0074 14.2294 4
      vertex 10.7634 14.4271 0
      vertex 11.0074 14.2294 0
    endloop
  endfacet
  facet normal 0.453838 -0.891084 0
    outer loop
      vertex 7.5 14.5981 0
      vertex 7.77979 14.7406 4
      vertex 7.5 14.5981 4
    endloop
  endfacet
  facet normal 0.453838 -0.891084 0
    outer loop
      vertex 7.77979 14.7406 4
      vertex 7.5 14.5981 0
      vertex 7.77979 14.7406 0
    endloop
  endfacet
  facet normal -0.998635 0.0522246 0
    outer loop
      vertex 11.9836 11.6864 0
      vertex 12 12 4
      vertex 12 12 0
    endloop
  endfacet
  facet normal -0.998635 0.0522246 0
    outer loop
      vertex 12 12 4
      vertex 11.9836 11.6864 0
      vertex 11.9836 11.6864 4
    endloop
  endfacet
  facet normal -0.838749 0.544518 0
    outer loop
      vertex 11.4271 10.2366 0
      vertex 11.5981 10.5 4
      vertex 11.5981 10.5 0
    endloop
  endfacet
  facet normal -0.838749 0.544518 0
    outer loop
      vertex 11.5981 10.5 4
      vertex 11.4271 10.2366 0
      vertex 11.4271 10.2366 4
    endloop
  endfacet
  facet normal -0.966002 0.258534 0
    outer loop
      vertex 11.8532 11.0729 0
      vertex 11.9344 11.3763 4
      vertex 11.9344 11.3763 0
    endloop
  endfacet
  facet normal -0.966002 0.258534 0
    outer loop
      vertex 11.9344 11.3763 4
      vertex 11.8532 11.0729 0
      vertex 11.8532 11.0729 4
    endloop
  endfacet
  facet normal -0.544518 -0.838749 0
    outer loop
      vertex 10.5 14.5981 0
      vertex 10.7634 14.4271 4
      vertex 10.5 14.5981 4
    endloop
  endfacet
  facet normal -0.544518 -0.838749 -0
    outer loop
      vertex 10.7634 14.4271 4
      vertex 10.5 14.5981 0
      vertex 10.7634 14.4271 0
    endloop
  endfacet
  facet normal -0.966002 -0.258534 0
    outer loop
      vertex 11.9344 12.6237 0
      vertex 11.8532 12.9271 4
      vertex 11.8532 12.9271 0
    endloop
  endfacet
  facet normal -0.966002 -0.258534 0
    outer loop
      vertex 11.8532 12.9271 4
      vertex 11.9344 12.6237 0
      vertex 11.9344 12.6237 4
    endloop
  endfacet
  facet normal 0.777082 0.629399 0
    outer loop
      vertex 6.77057 9.99261 4
      vertex 6.57295 10.2366 0
      vertex 6.57295 10.2366 4
    endloop
  endfacet
  facet normal 0.777082 0.629399 0
    outer loop
      vertex 6.57295 10.2366 0
      vertex 6.77057 9.99261 4
      vertex 6.77057 9.99261 0
    endloop
  endfacet
  facet normal -0.933485 0.358616 0
    outer loop
      vertex 11.7406 10.7798 0
      vertex 11.8532 11.0729 4
      vertex 11.8532 11.0729 0
    endloop
  endfacet
  facet normal -0.933485 0.358616 0
    outer loop
      vertex 11.8532 11.0729 4
      vertex 11.7406 10.7798 0
      vertex 11.7406 10.7798 4
    endloop
  endfacet
  facet normal 0.99863 -0.0523198 0
    outer loop
      vertex 6 12 4
      vertex 6.01643 12.3136 0
      vertex 6.01643 12.3136 4
    endloop
  endfacet
  facet normal 0.99863 -0.0523198 0
    outer loop
      vertex 6.01643 12.3136 0
      vertex 6 12 4
      vertex 6 12 0
    endloop
  endfacet
  facet normal 0.156674 -0.98765 0
    outer loop
      vertex 8.37626 14.9344 0
      vertex 8.68641 14.9836 4
      vertex 8.37626 14.9344 4
    endloop
  endfacet
  facet normal 0.156674 -0.98765 0
    outer loop
      vertex 8.68641 14.9836 4
      vertex 8.37626 14.9344 0
      vertex 8.68641 14.9836 0
    endloop
  endfacet
  facet normal 0.891013 0.453977 0
    outer loop
      vertex 6.40192 10.5 4
      vertex 6.25936 10.7798 0
      vertex 6.25936 10.7798 4
    endloop
  endfacet
  facet normal 0.891013 0.453977 0
    outer loop
      vertex 6.25936 10.7798 0
      vertex 6.40192 10.5 4
      vertex 6.40192 10.5 0
    endloop
  endfacet
  facet normal 0.629337 0.777133 -0
    outer loop
      vertex 7.23664 9.57295 0
      vertex 6.99261 9.77057 4
      vertex 7.23664 9.57295 4
    endloop
  endfacet
  facet normal 0.629337 0.777133 0
    outer loop
      vertex 6.99261 9.77057 4
      vertex 7.23664 9.57295 0
      vertex 6.99261 9.77057 0
    endloop
  endfacet
  facet normal -0.544585 0.838705 0
    outer loop
      vertex 10.7634 9.57295 0
      vertex 10.5 9.40192 4
      vertex 10.7634 9.57295 4
    endloop
  endfacet
  facet normal -0.544585 0.838705 0
    outer loop
      vertex 10.5 9.40192 4
      vertex 10.7634 9.57295 0
      vertex 10.5 9.40192 0
    endloop
  endfacet
  facet normal -0.838749 -0.544518 0
    outer loop
      vertex 11.5981 13.5 0
      vertex 11.4271 13.7634 4
      vertex 11.4271 13.7634 0
    endloop
  endfacet
  facet normal -0.838749 -0.544518 0
    outer loop
      vertex 11.4271 13.7634 4
      vertex 11.5981 13.5 0
      vertex 11.5981 13.5 4
    endloop
  endfacet
  facet normal -0.891091 -0.453826 0
    outer loop
      vertex 11.7406 13.2202 0
      vertex 11.5981 13.5 4
      vertex 11.5981 13.5 0
    endloop
  endfacet
  facet normal -0.891091 -0.453826 0
    outer loop
      vertex 11.5981 13.5 4
      vertex 11.7406 13.2202 0
      vertex 11.7406 13.2202 4
    endloop
  endfacet
  facet normal -0.987646 -0.156699 0
    outer loop
      vertex 11.9836 12.3136 0
      vertex 11.9344 12.6237 4
      vertex 11.9344 12.6237 0
    endloop
  endfacet
  facet normal -0.987646 -0.156699 0
    outer loop
      vertex 11.9344 12.6237 4
      vertex 11.9836 12.3136 0
      vertex 11.9836 12.3136 4
    endloop
  endfacet
  facet normal 0.258606 -0.965983 0
    outer loop
      vertex 8.07295 14.8532 0
      vertex 8.37626 14.9344 4
      vertex 8.07295 14.8532 4
    endloop
  endfacet
  facet normal 0.258606 -0.965983 0
    outer loop
      vertex 8.37626 14.9344 4
      vertex 8.07295 14.8532 0
      vertex 8.37626 14.9344 0
    endloop
  endfacet
  facet normal -0.933485 -0.358616 0
    outer loop
      vertex 11.8532 12.9271 0
      vertex 11.7406 13.2202 4
      vertex 11.7406 13.2202 0
    endloop
  endfacet
  facet normal -0.933485 -0.358616 0
    outer loop
      vertex 11.7406 13.2202 4
      vertex 11.8532 12.9271 0
      vertex 11.8532 12.9271 4
    endloop
  endfacet
  facet normal 0.358358 0.933584 -0
    outer loop
      vertex 8.07295 9.14683 0
      vertex 7.77979 9.25936 4
      vertex 8.07295 9.14683 4
    endloop
  endfacet
  facet normal 0.358358 0.933584 0
    outer loop
      vertex 7.77979 9.25936 4
      vertex 8.07295 9.14683 0
      vertex 7.77979 9.25936 0
    endloop
  endfacet
  facet normal -0.258806 0.965929 0
    outer loop
      vertex 9.92705 9.14683 0
      vertex 9.62373 9.06556 4
      vertex 9.92705 9.14683 4
    endloop
  endfacet
  facet normal -0.258806 0.965929 0
    outer loop
      vertex 9.62373 9.06556 4
      vertex 9.92705 9.14683 0
      vertex 9.62373 9.06556 0
    endloop
  endfacet
  facet normal 0.156456 0.987685 -0
    outer loop
      vertex 8.68641 9.01643 0
      vertex 8.37626 9.06556 4
      vertex 8.68641 9.01643 4
    endloop
  endfacet
  facet normal 0.156456 0.987685 0
    outer loop
      vertex 8.37626 9.06556 4
      vertex 8.68641 9.01643 0
      vertex 8.37626 9.06556 0
    endloop
  endfacet
  facet normal 0.93356 0.358422 0
    outer loop
      vertex 6.25936 10.7798 4
      vertex 6.14683 11.0729 0
      vertex 6.14683 11.0729 4
    endloop
  endfacet
  facet normal 0.93356 0.358422 0
    outer loop
      vertex 6.14683 11.0729 0
      vertex 6.25936 10.7798 4
      vertex 6.25936 10.7798 0
    endloop
  endfacet
  facet normal -0.707107 -0.707107 0
    outer loop
      vertex 11.2294 14.0074 0
      vertex 11.0074 14.2294 4
      vertex 11.0074 14.2294 0
    endloop
  endfacet
  facet normal -0.707107 -0.707107 0
    outer loop
      vertex 11.0074 14.2294 4
      vertex 11.2294 14.0074 0
      vertex 11.2294 14.0074 4
    endloop
  endfacet
  facet normal 0.965946 -0.258742 0
    outer loop
      vertex 6.06556 12.6237 4
      vertex 6.14683 12.9271 0
      vertex 6.14683 12.9271 4
    endloop
  endfacet
  facet normal 0.965946 -0.258742 0
    outer loop
      vertex 6.14683 12.9271 0
      vertex 6.06556 12.6237 4
      vertex 6.06556 12.6237 0
    endloop
  endfacet
  facet normal 0.707107 0.707107 0
    outer loop
      vertex 6.99261 9.77057 4
      vertex 6.77057 9.99261 0
      vertex 6.77057 9.99261 4
    endloop
  endfacet
  facet normal 0.707107 0.707107 0
    outer loop
      vertex 6.77057 9.99261 0
      vertex 6.99261 9.77057 4
      vertex 6.99261 9.77057 0
    endloop
  endfacet
  facet normal -0.453977 0.891013 0
    outer loop
      vertex 10.5 9.40192 0
      vertex 10.2202 9.25936 4
      vertex 10.5 9.40192 4
    endloop
  endfacet
  facet normal -0.453977 0.891013 0
    outer loop
      vertex 10.2202 9.25936 4
      vertex 10.5 9.40192 0
      vertex 10.2202 9.25936 0
    endloop
  endfacet
  facet normal 0.838705 0.544585 0
    outer loop
      vertex 6.57295 10.2366 4
      vertex 6.40192 10.5 0
      vertex 6.40192 10.5 4
    endloop
  endfacet
  facet normal 0.838705 0.544585 0
    outer loop
      vertex 6.40192 10.5 0
      vertex 6.57295 10.2366 4
      vertex 6.57295 10.2366 0
    endloop
  endfacet
  facet normal 0.258814 0.965927 -0
    outer loop
      vertex 8.37626 9.06556 0
      vertex 8.07295 9.14683 4
      vertex 8.37626 9.06556 4
    endloop
  endfacet
  facet normal 0.258814 0.965927 0
    outer loop
      vertex 8.07295 9.14683 4
      vertex 8.37626 9.06556 0
      vertex 8.07295 9.14683 0
    endloop
  endfacet
  facet normal -0.358563 -0.933506 0
    outer loop
      vertex 9.92705 14.8532 0
      vertex 10.2202 14.7406 4
      vertex 9.92705 14.8532 4
    endloop
  endfacet
  facet normal -0.358563 -0.933506 -0
    outer loop
      vertex 10.2202 14.7406 4
      vertex 9.92705 14.8532 0
      vertex 10.2202 14.7406 0
    endloop
  endfacet
  facet normal -0.987646 0.156699 0
    outer loop
      vertex 11.9344 11.3763 0
      vertex 11.9836 11.6864 4
      vertex 11.9836 11.6864 0
    endloop
  endfacet
  facet normal -0.987646 0.156699 0
    outer loop
      vertex 11.9836 11.6864 4
      vertex 11.9344 11.3763 0
      vertex 11.9344 11.3763 4
    endloop
  endfacet
  facet normal -0.70717 0.707043 0
    outer loop
      vertex 11.0074 9.77057 0
      vertex 11.2294 9.99261 4
      vertex 11.2294 9.99261 0
    endloop
  endfacet
  facet normal -0.70717 0.707043 0
    outer loop
      vertex 11.2294 9.99261 4
      vertex 11.0074 9.77057 0
      vertex 11.0074 9.77057 4
    endloop
  endfacet
  facet normal -0.77697 -0.629537 0
    outer loop
      vertex 11.4271 13.7634 0
      vertex 11.2294 14.0074 4
      vertex 11.2294 14.0074 0
    endloop
  endfacet
  facet normal -0.77697 -0.629537 0
    outer loop
      vertex 11.2294 14.0074 4
      vertex 11.4271 13.7634 0
      vertex 11.4271 13.7634 4
    endloop
  endfacet
  facet normal 0.358552 -0.93351 0
    outer loop
      vertex 7.77979 14.7406 0
      vertex 8.07295 14.8532 4
      vertex 7.77979 14.7406 4
    endloop
  endfacet
  facet normal 0.358552 -0.93351 0
    outer loop
      vertex 8.07295 14.8532 4
      vertex 7.77979 14.7406 0
      vertex 8.07295 14.8532 0
    endloop
  endfacet
  facet normal -0.156461 0.987684 0
    outer loop
      vertex 9.62373 9.06556 0
      vertex 9.31359 9.01643 4
      vertex 9.62373 9.06556 4
    endloop
  endfacet
  facet normal -0.156461 0.987684 0
    outer loop
      vertex 9.31359 9.01643 4
      vertex 9.62373 9.06556 0
      vertex 9.31359 9.01643 0
    endloop
  endfacet
  facet normal 0.544576 -0.838711 0
    outer loop
      vertex 7.23664 14.4271 0
      vertex 7.5 14.5981 4
      vertex 7.23664 14.4271 4
    endloop
  endfacet
  facet normal 0.544576 -0.838711 0
    outer loop
      vertex 7.5 14.5981 4
      vertex 7.23664 14.4271 0
      vertex 7.5 14.5981 0
    endloop
  endfacet
  facet normal 0.0523215 0.99863 -0
    outer loop
      vertex 9 9 0
      vertex 8.68641 9.01643 4
      vertex 9 9 4
    endloop
  endfacet
  facet normal 0.0523215 0.99863 0
    outer loop
      vertex 8.68641 9.01643 4
      vertex 9 9 0
      vertex 8.68641 9.01643 0
    endloop
  endfacet
  facet normal 0.707043 -0.70717 0
    outer loop
      vertex 6.77057 14.0074 4
      vertex 6.99261 14.2294 0
      vertex 6.99261 14.2294 4
    endloop
  endfacet
  facet normal 0.707043 -0.70717 0
    outer loop
      vertex 6.99261 14.2294 0
      vertex 6.77057 14.0074 4
      vertex 6.77057 14.0074 0
    endloop
  endfacet
  facet normal -0.629383 0.777095 0
    outer loop
      vertex 11.0074 9.77057 0
      vertex 10.7634 9.57295 4
      vertex 11.0074 9.77057 4
    endloop
  endfacet
  facet normal -0.629383 0.777095 0
    outer loop
      vertex 10.7634 9.57295 4
      vertex 11.0074 9.77057 0
      vertex 10.7634 9.57295 0
    endloop
  endfacet
  facet normal -0.453826 -0.891091 0
    outer loop
      vertex 10.2202 14.7406 0
      vertex 10.5 14.5981 4
      vertex 10.2202 14.7406 4
    endloop
  endfacet
  facet normal -0.453826 -0.891091 -0
    outer loop
      vertex 10.5 14.5981 4
      vertex 10.2202 14.7406 0
      vertex 10.5 14.5981 0
    endloop
  endfacet
  facet normal -0.776958 0.629553 0
    outer loop
      vertex 11.2294 9.99261 0
      vertex 11.4271 10.2366 4
      vertex 11.4271 10.2366 0
    endloop
  endfacet
  facet normal -0.776958 0.629553 0
    outer loop
      vertex 11.4271 10.2366 4
      vertex 11.2294 9.99261 0
      vertex 11.2294 9.99261 4
    endloop
  endfacet
  facet normal -0.891091 0.453826 0
    outer loop
      vertex 11.5981 10.5 0
      vertex 11.7406 10.7798 4
      vertex 11.7406 10.7798 0
    endloop
  endfacet
  facet normal -0.891091 0.453826 0
    outer loop
      vertex 11.7406 10.7798 4
      vertex 11.5981 10.5 0
      vertex 11.5981 10.5 4
    endloop
  endfacet
  facet normal 0.987681 -0.156481 0
    outer loop
      vertex 6.01643 12.3136 4
      vertex 6.06556 12.6237 0
      vertex 6.06556 12.6237 4
    endloop
  endfacet
  facet normal 0.987681 -0.156481 0
    outer loop
      vertex 6.06556 12.6237 0
      vertex 6.01643 12.3136 4
      vertex 6.01643 12.3136 0
    endloop
  endfacet
  facet normal 0.965946 0.258742 0
    outer loop
      vertex 6.14683 11.0729 4
      vertex 6.06556 11.3763 0
      vertex 6.06556 11.3763 4
    endloop
  endfacet
  facet normal 0.965946 0.258742 0
    outer loop
      vertex 6.06556 11.3763 0
      vertex 6.14683 11.0729 4
      vertex 6.14683 11.0729 0
    endloop
  endfacet
  facet normal 0.987681 0.156481 0
    outer loop
      vertex 6.06556 11.3763 4
      vertex 6.01643 11.6864 0
      vertex 6.01643 11.6864 4
    endloop
  endfacet
  facet normal 0.987681 0.156481 0
    outer loop
      vertex 6.01643 11.6864 0
      vertex 6.06556 11.3763 4
      vertex 6.06556 11.3763 0
    endloop
  endfacet
  facet normal 0.99863 0.0523198 0
    outer loop
      vertex 6.01643 11.6864 4
      vertex 6 12 0
      vertex 6 12 4
    endloop
  endfacet
  facet normal 0.99863 0.0523198 0
    outer loop
      vertex 6 12 0
      vertex 6.01643 11.6864 4
      vertex 6.01643 11.6864 0
    endloop
  endfacet
  facet normal 0.838705 -0.544585 0
    outer loop
      vertex 6.40192 13.5 4
      vertex 6.57295 13.7634 0
      vertex 6.57295 13.7634 4
    endloop
  endfacet
  facet normal 0.838705 -0.544585 0
    outer loop
      vertex 6.57295 13.7634 0
      vertex 6.40192 13.5 4
      vertex 6.40192 13.5 0
    endloop
  endfacet
  facet normal -0.156679 -0.98765 0
    outer loop
      vertex 9.31359 14.9836 0
      vertex 9.62373 14.9344 4
      vertex 9.31359 14.9836 4
    endloop
  endfacet
  facet normal -0.156679 -0.98765 -0
    outer loop
      vertex 9.62373 14.9344 4
      vertex 9.31359 14.9836 0
      vertex 9.62373 14.9344 0
    endloop
  endfacet
  facet normal -0.358369 0.93358 0
    outer loop
      vertex 10.2202 9.25936 0
      vertex 9.92705 9.14683 4
      vertex 10.2202 9.25936 4
    endloop
  endfacet
  facet normal -0.358369 0.93358 0
    outer loop
      vertex 9.92705 9.14683 4
      vertex 10.2202 9.25936 0
      vertex 9.92705 9.14683 0
    endloop
  endfacet
  facet normal 0.544644 0.838668 -0
    outer loop
      vertex 7.5 9.40192 0
      vertex 7.23664 9.57295 4
      vertex 7.5 9.40192 4
    endloop
  endfacet
  facet normal 0.544644 0.838668 0
    outer loop
      vertex 7.23664 9.57295 4
      vertex 7.5 9.40192 0
      vertex 7.23664 9.57295 0
    endloop
  endfacet
  facet normal -0.258598 -0.965985 0
    outer loop
      vertex 9.62373 14.9344 0
      vertex 9.92705 14.8532 4
      vertex 9.62373 14.9344 4
    endloop
  endfacet
  facet normal -0.258598 -0.965985 -0
    outer loop
      vertex 9.92705 14.8532 4
      vertex 9.62373 14.9344 0
      vertex 9.92705 14.8532 0
    endloop
  endfacet
  facet normal -0.0522262 -0.998635 0
    outer loop
      vertex 9 15 0
      vertex 9.31359 14.9836 4
      vertex 9 15 4
    endloop
  endfacet
  facet normal -0.0522262 -0.998635 -0
    outer loop
      vertex 9.31359 14.9836 4
      vertex 9 15 0
      vertex 9.31359 14.9836 0
    endloop
  endfacet
  facet normal 0.0522262 -0.998635 0
    outer loop
      vertex 8.68641 14.9836 0
      vertex 9 15 4
      vertex 8.68641 14.9836 4
    endloop
  endfacet
  facet normal 0.0522262 -0.998635 0
    outer loop
      vertex 9 15 4
      vertex 8.68641 14.9836 0
      vertex 9 15 0
    endloop
  endfacet
  facet normal 0.891013 -0.453977 0
    outer loop
      vertex 6.25936 13.2202 4
      vertex 6.40192 13.5 0
      vertex 6.40192 13.5 4
    endloop
  endfacet
  facet normal 0.891013 -0.453977 0
    outer loop
      vertex 6.40192 13.5 0
      vertex 6.25936 13.2202 4
      vertex 6.25936 13.2202 0
    endloop
  endfacet
  facet normal -0.0523215 0.99863 0
    outer loop
      vertex 9.31359 9.01643 0
      vertex 9 9 4
      vertex 9.31359 9.01643 4
    endloop
  endfacet
  facet normal -0.0523215 0.99863 0
    outer loop
      vertex 9 9 4
      vertex 9.31359 9.01643 0
      vertex 9 9 0
    endloop
  endfacet
  facet normal 0.45399 0.891007 -0
    outer loop
      vertex 7.77979 9.25936 0
      vertex 7.5 9.40192 4
      vertex 7.77979 9.25936 4
    endloop
  endfacet
  facet normal 0.45399 0.891007 0
    outer loop
      vertex 7.5 9.40192 4
      vertex 7.77979 9.25936 0
      vertex 7.5 9.40192 0
    endloop
  endfacet
  facet normal 0.93356 -0.358422 0
    outer loop
      vertex 6.14683 12.9271 4
      vertex 6.25936 13.2202 0
      vertex 6.25936 13.2202 4
    endloop
  endfacet
  facet normal 0.93356 -0.358422 0
    outer loop
      vertex 6.25936 13.2202 0
      vertex 6.14683 12.9271 4
      vertex 6.14683 12.9271 0
    endloop
  endfacet
  facet normal 0.60729 -0.79448 0
    outer loop
      vertex 22.9295 10.4856 4
      vertex 24.1094 11.3875 5.5
      vertex 22.9295 10.4856 5.5
    endloop
  endfacet
  facet normal 0.60729 -0.79448 0
    outer loop
      vertex 24.1094 11.3875 5.5
      vertex 22.9295 10.4856 4
      vertex 24.1094 11.3875 4
    endloop
  endfacet
  facet normal -0.787705 -0.616053 0
    outer loop
      vertex 27.5408 7 4
      vertex 24.1094 11.3875 5.5
      vertex 24.1094 11.3875 4
    endloop
  endfacet
  facet normal -0.787705 -0.616053 0
    outer loop
      vertex 24.1094 11.3875 5.5
      vertex 27.5408 7 4
      vertex 27.5408 7 5.5
    endloop
  endfacet
  facet normal 0 -1 0
    outer loop
      vertex 27.5408 7 4
      vertex 29.9006 7 5.5
      vertex 27.5408 7 5.5
    endloop
  endfacet
  facet normal 0 -1 -0
    outer loop
      vertex 29.9006 7 5.5
      vertex 27.5408 7 4
      vertex 29.9006 7 4
    endloop
  endfacet
  facet normal 0.78059 0.625044 0
    outer loop
      vertex 29.9006 7 5.5
      vertex 25.486 12.5132 4
      vertex 25.486 12.5132 5.5
    endloop
  endfacet
  facet normal 0.78059 0.625044 0
    outer loop
      vertex 25.486 12.5132 4
      vertex 29.9006 7 5.5
      vertex 29.9006 7 4
    endloop
  endfacet
  facet normal 0.703555 -0.71064 0
    outer loop
      vertex 25.486 12.5132 4
      vertex 29.5683 16.5548 5.5
      vertex 25.486 12.5132 5.5
    endloop
  endfacet
  facet normal 0.703555 -0.71064 0
    outer loop
      vertex 29.5683 16.5548 5.5
      vertex 25.486 12.5132 4
      vertex 29.5683 16.5548 4
    endloop
  endfacet
  facet normal 0 1 -0
    outer loop
      vertex 29.5683 16.5548 4
      vertex 27.2356 16.5548 5.5
      vertex 29.5683 16.5548 5.5
    endloop
  endfacet
  facet normal 0 1 0
    outer loop
      vertex 27.2356 16.5548 5.5
      vertex 29.5683 16.5548 4
      vertex 27.2356 16.5548 4
    endloop
  endfacet
  facet normal -0.709321 0.704885 0
    outer loop
      vertex 22.9295 12.2216 4
      vertex 27.2356 16.5548 5.5
      vertex 27.2356 16.5548 4
    endloop
  endfacet
  facet normal -0.709321 0.704885 0
    outer loop
      vertex 27.2356 16.5548 5.5
      vertex 22.9295 12.2216 4
      vertex 22.9295 12.2216 5.5
    endloop
  endfacet
  facet normal 1 -0 0
    outer loop
      vertex 22.9295 12.2216 5.5
      vertex 22.9295 16.5548 4
      vertex 22.9295 16.5548 5.5
    endloop
  endfacet
  facet normal 1 0 0
    outer loop
      vertex 22.9295 16.5548 4
      vertex 22.9295 12.2216 5.5
      vertex 22.9295 12.2216 4
    endloop
  endfacet
  facet normal 0 1 -0
    outer loop
      vertex 22.9295 16.5548 4
      vertex 20.929 16.5548 5.5
      vertex 22.9295 16.5548 5.5
    endloop
  endfacet
  facet normal 0 1 0
    outer loop
      vertex 20.929 16.5548 5.5
      vertex 22.9295 16.5548 4
      vertex 20.929 16.5548 4
    endloop
  endfacet
  facet normal -1 0 0
    outer loop
      vertex 20.929 7 4
      vertex 20.929 16.5548 5.5
      vertex 20.929 16.5548 4
    endloop
  endfacet
  facet normal -1 -0 0
    outer loop
      vertex 20.929 16.5548 5.5
      vertex 20.929 7 4
      vertex 20.929 7 5.5
    endloop
  endfacet
  facet normal 0 -1 0
    outer loop
      vertex 20.929 7 4
      vertex 22.9295 7 5.5
      vertex 20.929 7 5.5
    endloop
  endfacet
  facet normal 0 -1 -0
    outer loop
      vertex 22.9295 7 5.5
      vertex 20.929 7 4
      vertex 22.9295 7 4
    endloop
  endfacet
  facet normal 1 -0 0
    outer loop
      vertex 22.9295 7 5.5
      vertex 22.9295 10.4856 4
      vertex 22.9295 10.4856 5.5
    endloop
  endfacet
  facet normal 1 0 0
    outer loop
      vertex 22.9295 10.4856 4
      vertex 22.9295 7 5.5
      vertex 22.9295 7 4
    endloop
  endfacet
  facet normal 0 1 -0
    outer loop
      vertex 38.7508 8.5461 4
      vertex 32.9596 8.5461 5.5
      vertex 38.7508 8.5461 5.5
    endloop
  endfacet
  facet normal 0 1 0
    outer loop
      vertex 32.9596 8.5461 5.5
      vertex 38.7508 8.5461 4
      vertex 32.9596 8.5461 4
    endloop
  endfacet
  facet normal 1 -0 0
    outer loop
      vertex 32.9596 8.5461 5.5
      vertex 32.9596 11.062 4
      vertex 32.9596 11.062 5.5
    endloop
  endfacet
  facet normal 1 0 0
    outer loop
      vertex 32.9596 11.062 4
      vertex 32.9596 8.5461 5.5
      vertex 32.9596 8.5461 4
    endloop
  endfacet
  facet normal 0 -1 0
    outer loop
      vertex 32.9596 11.062 4
      vertex 38.0591 11.062 5.5
      vertex 32.9596 11.062 5.5
    endloop
  endfacet
  facet normal 0 -1 -0
    outer loop
      vertex 38.0591 11.062 5.5
      vertex 32.9596 11.062 4
      vertex 38.0591 11.062 4
    endloop
  endfacet
  facet normal 1 -0 0
    outer loop
      vertex 38.0591 11.062 5.5
      vertex 38.0591 12.6081 4
      vertex 38.0591 12.6081 5.5
    endloop
  endfacet
  facet normal 1 0 0
    outer loop
      vertex 38.0591 12.6081 4
      vertex 38.0591 11.062 5.5
      vertex 38.0591 11.062 4
    endloop
  endfacet
  facet normal 0 1 -0
    outer loop
      vertex 38.0591 12.6081 4
      vertex 32.9596 12.6081 5.5
      vertex 38.0591 12.6081 5.5
    endloop
  endfacet
  facet normal 0 1 0
    outer loop
      vertex 32.9596 12.6081 5.5
      vertex 38.0591 12.6081 4
      vertex 32.9596 12.6081 4
    endloop
  endfacet
  facet normal 1 -0 0
    outer loop
      vertex 32.9596 12.6081 5.5
      vertex 32.9596 15.0087 4
      vertex 32.9596 15.0087 5.5
    endloop
  endfacet
  facet normal 1 0 0
    outer loop
      vertex 32.9596 15.0087 4
      vertex 32.9596 12.6081 5.5
      vertex 32.9596 12.6081 4
    endloop
  endfacet
  facet normal 0 -1 0
    outer loop
      vertex 32.9596 15.0087 4
      vertex 38.4728 15.0087 5.5
      vertex 32.9596 15.0087 5.5
    endloop
  endfacet
  facet normal 0 -1 -0
    outer loop
      vertex 38.4728 15.0087 5.5
      vertex 32.9596 15.0087 4
      vertex 38.4728 15.0087 4
    endloop
  endfacet
  facet normal 1 -0 0
    outer loop
      vertex 38.4728 15.0087 5.5
      vertex 38.4728 16.5548 4
      vertex 38.4728 16.5548 5.5
    endloop
  endfacet
  facet normal 1 0 0
    outer loop
      vertex 38.4728 16.5548 4
      vertex 38.4728 15.0087 5.5
      vertex 38.4728 15.0087 4
    endloop
  endfacet
  facet normal 0 1 -0
    outer loop
      vertex 38.4728 16.5548 4
      vertex 30.9591 16.5548 5.5
      vertex 38.4728 16.5548 5.5
    endloop
  endfacet
  facet normal 0 1 0
    outer loop
      vertex 30.9591 16.5548 5.5
      vertex 38.4728 16.5548 4
      vertex 30.9591 16.5548 4
    endloop
  endfacet
  facet normal -1 0 0
    outer loop
      vertex 30.9591 7 4
      vertex 30.9591 16.5548 5.5
      vertex 30.9591 16.5548 4
    endloop
  endfacet
  facet normal -1 -0 0
    outer loop
      vertex 30.9591 16.5548 5.5
      vertex 30.9591 7 4
      vertex 30.9591 7 5.5
    endloop
  endfacet
  facet normal 0 -1 0
    outer loop
      vertex 30.9591 7 4
      vertex 38.7508 7 5.5
      vertex 30.9591 7 5.5
    endloop
  endfacet
  facet normal 0 -1 -0
    outer loop
      vertex 38.7508 7 5.5
      vertex 30.9591 7 4
      vertex 38.7508 7 4
    endloop
  endfacet
  facet normal 1 -0 0
    outer loop
      vertex 38.7508 7 5.5
      vertex 38.7508 8.5461 4
      vertex 38.7508 8.5461 5.5
    endloop
  endfacet
  facet normal 1 0 0
    outer loop
      vertex 38.7508 8.5461 4
      vertex 38.7508 7 5.5
      vertex 38.7508 7 4
    endloop
  endfacet
  facet normal 0.855942 -0.517071 0
    outer loop
      vertex 44.9291 10.9196 5.5
      vertex 48.3333 16.5548 4
      vertex 48.3333 16.5548 5.5
    endloop
  endfacet
  facet normal 0.855942 -0.517071 0
    outer loop
      vertex 48.3333 16.5548 4
      vertex 44.9291 10.9196 5.5
      vertex 44.9291 10.9196 4
    endloop
  endfacet
  facet normal 0 1 -0
    outer loop
      vertex 48.3333 16.5548 4
      vertex 46.2379 16.5548 5.5
      vertex 48.3333 16.5548 5.5
    endloop
  endfacet
  facet normal 0 1 0
    outer loop
      vertex 46.2379 16.5548 5.5
      vertex 48.3333 16.5548 4
      vertex 46.2379 16.5548 4
    endloop
  endfacet
  facet normal -0.867344 0.49771 0
    outer loop
      vertex 43.9187 12.5132 4
      vertex 46.2379 16.5548 5.5
      vertex 46.2379 16.5548 4
    endloop
  endfacet
  facet normal -0.867344 0.49771 0
    outer loop
      vertex 46.2379 16.5548 5.5
      vertex 43.9187 12.5132 4
      vertex 43.9187 12.5132 5.5
    endloop
  endfacet
  facet normal 0.86986 0.493299 0
    outer loop
      vertex 43.9187 12.5132 5.5
      vertex 41.6267 16.5548 4
      vertex 41.6267 16.5548 5.5
    endloop
  endfacet
  facet normal 0.86986 0.493299 0
    outer loop
      vertex 41.6267 16.5548 4
      vertex 43.9187 12.5132 5.5
      vertex 43.9187 12.5132 4
    endloop
  endfacet
  facet normal 0 1 -0
    outer loop
      vertex 41.6267 16.5548 4
      vertex 39.5312 16.5548 5.5
      vertex 41.6267 16.5548 5.5
    endloop
  endfacet
  facet normal 0 1 0
    outer loop
      vertex 39.5312 16.5548 5.5
      vertex 41.6267 16.5548 4
      vertex 39.5312 16.5548 4
    endloop
  endfacet
  facet normal -0.855942 -0.517071 0
    outer loop
      vertex 42.9354 10.9196 4
      vertex 39.5312 16.5548 5.5
      vertex 39.5312 16.5548 4
    endloop
  endfacet
  facet normal -0.855942 -0.517071 0
    outer loop
      vertex 39.5312 16.5548 5.5
      vertex 42.9354 10.9196 4
      vertex 42.9354 10.9196 5.5
    endloop
  endfacet
  facet normal -1 0 0
    outer loop
      vertex 42.9354 7 4
      vertex 42.9354 10.9196 5.5
      vertex 42.9354 10.9196 4
    endloop
  endfacet
  facet normal -1 -0 0
    outer loop
      vertex 42.9354 10.9196 5.5
      vertex 42.9354 7 4
      vertex 42.9354 7 5.5
    endloop
  endfacet
  facet normal 0 -1 0
    outer loop
      vertex 42.9354 7 4
      vertex 44.9291 7 5.5
      vertex 42.9354 7 5.5
    endloop
  endfacet
  facet normal 0 -1 -0
    outer loop
      vertex 44.9291 7 5.5
      vertex 42.9354 7 4
      vertex 44.9291 7 4
    endloop
  endfacet
  facet normal 1 -0 0
    outer loop
      vertex 44.9291 7 5.5
      vertex 44.9291 10.9196 4
      vertex 44.9291 10.9196 5.5
    endloop
  endfacet
  facet normal 1 0 0
    outer loop
      vertex 44.9291 10.9196 4
      vertex 44.9291 7 5.5
      vertex 44.9291 7 4
    endloop
  endfacet
  facet normal -0 0 1
    outer loop
      vertex 20.929 16.5548 5.5
      vertex 22.9295 12.2216 5.5
      vertex 22.9295 16.5548 5.5
    endloop
  endfacet
  facet normal 0 0 1
    outer loop
      vertex 20.929 7 5.5
      vertex 22.9295 12.2216 5.5
      vertex 20.929 16.5548 5.5
    endloop
  endfacet
  facet normal 0 0 1
    outer loop
      vertex 22.9295 12.2216 5.5
      vertex 20.929 7 5.5
      vertex 22.9295 10.4856 5.5
    endloop
  endfacet
  facet normal 0 0 1
    outer loop
      vertex 22.9295 10.4856 5.5
      vertex 20.929 7 5.5
      vertex 22.9295 7 5.5
    endloop
  endfacet
  facet normal -0 0 1
    outer loop
      vertex 27.2356 16.5548 5.5
      vertex 25.486 12.5132 5.5
      vertex 29.5683 16.5548 5.5
    endloop
  endfacet
  facet normal 0 0 1
    outer loop
      vertex 22.9295 12.2216 5.5
      vertex 25.486 12.5132 5.5
      vertex 27.2356 16.5548 5.5
    endloop
  endfacet
  facet normal 0 0 1
    outer loop
      vertex 25.486 12.5132 5.5
      vertex 22.9295 12.2216 5.5
      vertex 24.1094 11.3875 5.5
    endloop
  endfacet
  facet normal 0 0 1
    outer loop
      vertex 24.1094 11.3875 5.5
      vertex 22.9295 12.2216 5.5
      vertex 22.9295 10.4856 5.5
    endloop
  endfacet
  facet normal 0 0 1
    outer loop
      vertex 25.486 12.5132 5.5
      vertex 27.5408 7 5.5
      vertex 29.9006 7 5.5
    endloop
  endfacet
  facet normal 0 0 1
    outer loop
      vertex 27.5408 7 5.5
      vertex 25.486 12.5132 5.5
      vertex 24.1094 11.3875 5.5
    endloop
  endfacet
  facet normal 0 0 1
    outer loop
      vertex 38.4728 16.5548 5.5
      vertex 32.9596 15.0087 5.5
      vertex 38.4728 15.0087 5.5
    endloop
  endfacet
  facet normal 0 0 1
    outer loop
      vertex 30.9591 16.5548 5.5
      vertex 32.9596 12.6081 5.5
      vertex 32.9596 15.0087 5.5
    endloop
  endfacet
  facet normal 0 0 1
    outer loop
      vertex 32.9596 12.6081 5.5
      vertex 30.9591 16.5548 5.5
      vertex 32.9596 11.062 5.5
    endloop
  endfacet
  facet normal 0 0 1
    outer loop
      vertex 30.9591 7 5.5
      vertex 32.9596 11.062 5.5
      vertex 30.9591 16.5548 5.5
    endloop
  endfacet
  facet normal -0 0 1
    outer loop
      vertex 30.9591 16.5548 5.5
      vertex 32.9596 15.0087 5.5
      vertex 38.4728 16.5548 5.5
    endloop
  endfacet
  facet normal -0 0 1
    outer loop
      vertex 32.9596 12.6081 5.5
      vertex 38.0591 11.062 5.5
      vertex 38.0591 12.6081 5.5
    endloop
  endfacet
  facet normal 0 0 1
    outer loop
      vertex 38.0591 11.062 5.5
      vertex 32.9596 12.6081 5.5
      vertex 32.9596 11.062 5.5
    endloop
  endfacet
  facet normal -0 0 1
    outer loop
      vertex 32.9596 8.5461 5.5
      vertex 38.7508 7 5.5
      vertex 38.7508 8.5461 5.5
    endloop
  endfacet
  facet normal 0 0 1
    outer loop
      vertex 32.9596 8.5461 5.5
      vertex 30.9591 7 5.5
      vertex 38.7508 7 5.5
    endloop
  endfacet
  facet normal 0 0 1
    outer loop
      vertex 32.9596 11.062 5.5
      vertex 30.9591 7 5.5
      vertex 32.9596 8.5461 5.5
    endloop
  endfacet
  facet normal 0 0 1
    outer loop
      vertex 41.6267 16.5548 5.5
      vertex 42.9354 10.9196 5.5
      vertex 43.9187 12.5132 5.5
    endloop
  endfacet
  facet normal 0 0 1
    outer loop
      vertex 42.9354 10.9196 5.5
      vertex 41.6267 16.5548 5.5
      vertex 39.5312 16.5548 5.5
    endloop
  endfacet
  facet normal -0 0 1
    outer loop
      vertex 46.2379 16.5548 5.5
      vertex 44.9291 10.9196 5.5
      vertex 48.3333 16.5548 5.5
    endloop
  endfacet
  facet normal -0 0 1
    outer loop
      vertex 43.9187 12.5132 5.5
      vertex 44.9291 10.9196 5.5
      vertex 46.2379 16.5548 5.5
    endloop
  endfacet
  facet normal 0 0 1
    outer loop
      vertex 42.9354 10.9196 5.5
      vertex 44.9291 10.9196 5.5
      vertex 43.9187 12.5132 5.5
    endloop
  endfacet
  facet normal 0 0 1
    outer loop
      vertex 44.9291 10.9196 5.5
      vertex 42.9354 10.9196 5.5
      vertex 44.9291 7 5.5
    endloop
  endfacet
  facet normal 0 0 1
    outer loop
      vertex 44.9291 7 5.5
      vertex 42.9354 10.9196 5.5
      vertex 42.9354 7 5.5
    endloop
  endfacet
endsolid OpenSCAD_Model
