solid OpenSCAD_Model
  facet normal 0 0 -1
    outer loop
      vertex -12.5 -7.21688 0
      vertex -25 0 0
      vertex -12.5 7.21688 0
    endloop
  endfacet
  facet normal 0 0 -1
    outer loop
      vertex 0 -14.4338 0
      vertex 12.5 -7.21688 0
      vertex 12.5 -21.6506 0
    endloop
  endfacet
  facet normal -0 0 -1
    outer loop
      vertex 12.5 -7.21688 0
      vertex 0 -14.4338 0
      vertex 12.5 7.21688 0
    endloop
  endfacet
  facet normal 0 0 -1
    outer loop
      vertex 0 14.4338 0
      vertex 12.5 7.21688 0
      vertex 0 -14.4338 0
    endloop
  endfacet
  facet normal 0 0 -1
    outer loop
      vertex 12.5 7.21688 0
      vertex 0 14.4338 0
      vertex 12.5 21.6506 0
    endloop
  endfacet
  facet normal 0 0 -1
    outer loop
      vertex -12.5 -7.21688 0
      vertex 0 -14.4338 0
      vertex -12.5 -21.6506 0
    endloop
  endfacet
  facet normal 0 0 -1
    outer loop
      vertex 0 -14.4338 0
      vertex -12.5 -7.21688 0
      vertex 0 14.4338 0
    endloop
  endfacet
  facet normal 0 0 -1
    outer loop
      vertex -12.5 7.21688 0
      vertex 0 14.4338 0
      vertex -12.5 -7.21688 0
    endloop
  endfacet
  facet normal -0 0 -1
    outer loop
      vertex 0 14.4338 0
      vertex -12.5 7.21688 0
      vertex -12.5 21.6506 0
    endloop
  endfacet
  facet normal -0 0 -1
    outer loop
      vertex 25 0 0
      vertex 12.5 -7.21688 0
      vertex 12.5 7.21688 0
    endloop
  endfacet
  facet normal 0.5 -0.866025 0
    outer loop
      vertex 12.5 -7.21688 0
      vertex 25 0 4
      vertex 12.5 -7.21688 4
    endloop
  endfacet
  facet normal 0.5 -0.866025 0
    outer loop
      vertex 25 0 4
      vertex 12.5 -7.21688 0
      vertex 25 0 0
    endloop
  endfacet
  facet normal 0.5 0.866025 -0
    outer loop
      vertex 25 0 0
      vertex 12.5 7.21688 4
      vertex 25 0 4
    endloop
  endfacet
  facet normal 0.5 0.866025 0
    outer loop
      vertex 12.5 7.21688 4
      vertex 25 0 0
      vertex 12.5 7.21688 0
    endloop
  endfacet
  facet normal 1 -0 0
    outer loop
      vertex 12.5 7.21688 4
      vertex 12.5 21.6506 0
      vertex 12.5 21.6506 4
    endloop
  endfacet
  facet normal 1 0 0
    outer loop
      vertex 12.5 21.6506 0
      vertex 12.5 7.21688 4
      vertex 12.5 7.21688 0
    endloop
  endfacet
  facet normal -0.499996 0.866028 0
    outer loop
      vertex 12.5 21.6506 0
      vertex 0 14.4338 4
      vertex 12.5 21.6506 4
    endloop
  endfacet
  facet normal -0.499996 0.866028 0
    outer loop
      vertex 0 14.4338 4
      vertex 12.5 21.6506 0
      vertex 0 14.4338 0
    endloop
  endfacet
  facet normal 0.499996 0.866028 -0
    outer loop
      vertex 0 14.4338 0
      vertex -12.5 21.6506 4
      vertex 0 14.4338 4
    endloop
  endfacet
  facet normal 0.499996 0.866028 0
    outer loop
      vertex -12.5 21.6506 4
      vertex 0 14.4338 0
      vertex -12.5 21.6506 0
    endloop
  endfacet
  facet normal -1 0 0
    outer loop
      vertex -12.5 7.21688 0
      vertex -12.5 21.6506 4
      vertex -12.5 21.6506 0
    endloop
  endfacet
  facet normal -1 -0 0
    outer loop
      vertex -12.5 21.6506 4
      vertex -12.5 7.21688 0
      vertex -12.5 7.21688 4
    endloop
  endfacet
  facet normal -0.5 0.866025 0
    outer loop
      vertex -12.5 7.21688 0
      vertex -25 0 4
      vertex -12.5 7.21688 4
    endloop
  endfacet
  facet normal -0.5 0.866025 0
    outer loop
      vertex -25 0 4
      vertex -12.5 7.21688 0
      vertex -25 0 0
    endloop
  endfacet
  facet normal -0.5 -0.866025 0
    outer loop
      vertex -25 0 0
      vertex -12.5 -7.21688 4
      vertex -25 0 4
    endloop
  endfacet
  facet normal -0.5 -0.866025 -0
    outer loop
      vertex -12.5 -7.21688 4
      vertex -25 0 0
      vertex -12.5 -7.21688 0
    endloop
  endfacet
  facet normal -1 0 0
    outer loop
      vertex -12.5 -21.6506 0
      vertex -12.5 -7.21688 4
      vertex -12.5 -7.21688 0
    endloop
  endfacet
  facet normal -1 -0 0
    outer loop
      vertex -12.5 -7.21688 4
      vertex -12.5 -21.6506 0
      vertex -12.5 -21.6506 4
    endloop
  endfacet
  facet normal 0.499996 -0.866028 0
    outer loop
      vertex -12.5 -21.6506 0
      vertex 0 -14.4338 4
      vertex -12.5 -21.6506 4
    endloop
  endfacet
  facet normal 0.499996 -0.866028 0
    outer loop
      vertex 0 -14.4338 4
      vertex -12.5 -21.6506 0
      vertex 0 -14.4338 0
    endloop
  endfacet
  facet normal -0.499996 -0.866028 0
    outer loop
      vertex 0 -14.4338 0
      vertex 12.5 -21.6506 4
      vertex 0 -14.4338 4
    endloop
  endfacet
  facet normal -0.499996 -0.866028 -0
    outer loop
      vertex 12.5 -21.6506 4
      vertex 0 -14.4338 0
      vertex 12.5 -21.6506 0
    endloop
  endfacet
  facet normal 1 -0 0
    outer loop
      vertex 12.5 -21.6506 4
      vertex 12.5 -7.21688 0
      vertex 12.5 -7.21688 4
    endloop
  endfacet
  facet normal 1 0 0
    outer loop
      vertex 12.5 -7.21688 0
      vertex 12.5 -21.6506 4
      vertex 12.5 -21.6506 0
    endloop
  endfacet
  facet normal 0 0 1
    outer loop
      vertex -12.5 7.21688 4
      vertex -25 0 4
      vertex -12.5 -7.21688 4
    endloop
  endfacet
  facet normal -0 0 1
    outer loop
      vertex 0 14.4338 4
      vertex 12.5 7.21688 4
      vertex 12.5 21.6506 4
    endloop
  endfacet
  facet normal 0 0 1
    outer loop
      vertex 12.5 7.21688 4
      vertex 0 14.4338 4
      vertex 12.5 -7.21688 4
    endloop
  endfacet
  facet normal 0 0 1
    outer loop
      vertex 0 -14.4338 4
      vertex 12.5 -7.21688 4
      vertex 0 14.4338 4
    endloop
  endfacet
  facet normal 0 0 1
    outer loop
      vertex 12.5 -7.21688 4
      vertex 0 -14.4338 4
      vertex 12.5 -21.6506 4
    endloop
  endfacet
  facet normal 0 0 1
    outer loop
      vertex -12.5 7.21688 4
      vertex 0 14.4338 4
      vertex -12.5 21.6506 4
    endloop
  endfacet
  facet normal 0 0 1
    outer loop
      vertex 0 14.4338 4
      vertex -12.5 7.21688 4
      vertex 0 -14.4338 4
    endloop
  endfacet
  facet normal -0 0 1
    outer loop
      vertex -12.5 -7.21688 4
      vertex 0 -14.4338 4
      vertex -12.5 7.21688 4
    endloop
  endfacet
  facet normal 0 0 1
    outer loop
      vertex 0 -14.4338 4
      vertex -12.5 -7.21688 4
      vertex -12.5 -21.6506 4
    endloop
  endfacet
  facet normal 0 0 1
    outer loop
      vertex 25 0 4
      vertex 12.5 7.21688 4
      vertex 12.5 -7.21688 4
    endloop
  endfacet
endsolid OpenSCAD_Model
